# Blender 5.0.1
# www.blender.org
mtllib carrier.mtl
o Cube
v -1.533592 0.000000 5.299950
v 0.000000 1.409008 2.195888
v -1.533592 1.040698 5.299950
v -1.405519 0.937717 4.999839
v -0.768668 1.040698 -0.697444
v 0.218320 1.409008 2.266825
v 1.533592 0.000000 5.299950
v 1.533592 1.040698 5.299950
v 1.405519 0.937717 4.999839
v 0.353249 1.409008 2.452538
v 0.768668 1.040698 -0.697444
v -1.533592 0.000000 -1.353483
v 0.353249 1.409008 2.682094
v 1.533592 0.000000 -1.353483
v 0.000000 1.040698 -4.821286
v 0.218320 1.409008 2.867808
v 0.000000 0.000000 -3.885500
v -1.533592 0.000000 0.893272
v -0.768668 1.040698 0.581390
v 0.000000 1.409008 2.938744
v 1.533592 0.000000 0.893272
v 0.768668 1.040698 0.581390
v -0.218320 1.409008 2.867808
v -1.357016 1.040698 1.959316
v -1.533592 1.040698 -1.353483
v -0.353249 1.409008 2.682094
v 1.533592 1.040698 -1.353483
v 1.357016 1.040698 1.959316
v -0.353249 1.409008 2.452538
v -1.533592 1.040698 -4.879481
v 1.533592 1.048551 -4.879481
v -0.218320 1.409008 2.266825
v -1.533663 1.095696 -3.093426
v 1.533522 1.095696 -3.093426
v -1.533663 1.313642 -4.879444
v 1.533522 1.321495 -4.879444
v -1.533592 0.000000 3.290190
v 1.357016 1.040698 3.108987
v -1.357016 1.040698 3.108987
v 1.533592 0.000000 3.290190
v -1.533592 1.040698 3.290190
v -1.533592 1.040698 0.893272
v 1.533592 1.040698 0.893272
v 1.533592 1.040698 3.290190
v -0.877620 1.351349 3.108987
v -0.877620 1.351349 1.959316
v 0.877620 1.351349 1.959316
v 0.877620 1.351349 3.108987
v -0.848808 1.040698 1.049037
v 0.848808 1.040698 1.049037
v -0.351447 1.351349 2.764347
v -0.400138 1.351349 2.697329
v -0.400138 1.351349 2.437303
v -0.247299 1.351349 2.226938
v 0.247299 1.351349 2.226938
v 0.000000 1.351349 2.146586
v -0.247299 1.351349 2.907694
v 0.000000 1.351349 2.988046
v 0.400138 1.351349 2.437303
v 0.400138 1.351349 2.697329
v 0.257772 1.351349 2.893279
v 0.247299 1.351349 2.907694
v 0.400138 1.506561 2.437303
v 0.400138 1.506561 2.697329
v 0.257772 1.506561 2.893279
v -0.351447 1.506561 2.764347
v -0.400138 1.506561 2.697329
v -0.400138 1.506561 2.437303
v -0.247299 1.506561 2.226938
v 0.247299 1.506561 2.226938
v -0.247299 1.506561 2.907694
v 0.247299 1.506561 2.907694
v 0.218320 1.564221 2.266825
v 0.353249 1.921020 2.567316
v 0.218320 1.564221 2.867808
v -0.218320 1.564221 2.867808
v -0.353249 1.921020 2.567316
v -0.218320 1.564221 2.266825
v -1.405519 0.937717 5.299950
v -1.405519 0.000000 5.299950
v 1.405519 0.937717 5.299950
v 1.405519 0.000000 5.299950
v 1.405519 0.000000 4.999839
v -1.405519 0.000000 4.999839
vn -1.0000 -0.0000 -0.0000
vn 1.0000 -0.0000 -0.0000
vn -0.0000 1.0000 -0.0000
vn -0.7753 -0.4223 -0.4696
vn 0.9146 -0.0000 -0.4045
vn -0.0000 -1.0000 -0.0000
vn -0.9146 -0.0000 -0.4045
vn 0.7753 -0.4223 -0.4696
vn -1.0000 -0.0003 -0.0000
vn -0.0000 0.9926 0.1211
vn -0.0000 0.9995 0.0316
vn 1.0000 0.0014 -0.0000
vn -0.0000 0.0001 -1.0000
vn 0.0026 -1.0000 -0.0022
vn 0.5438 0.8392 -0.0000
vn -0.5438 0.8392 -0.0000
vn -0.0000 -0.0000 1.0000
vn -0.0000 0.9464 -0.3230
vn 0.5204 0.8030 -0.2905
vn -0.5204 0.8030 -0.2905
vn 0.2397 0.6309 -0.7379
vn 0.8090 -0.0000 -0.5878
vn 0.8090 -0.0000 0.5878
vn -0.8090 -0.0000 0.5878
vn 0.2398 0.6309 0.7379
vn -0.2398 0.6309 0.7379
vn -0.8472 -0.1162 -0.5184
vn -0.2397 0.6309 -0.7379
vn 0.6277 0.6309 -0.4560
vn 0.9937 0.1124 -0.0000
vn 0.6277 0.6309 0.4560
vn -0.7799 0.2660 0.5666
vn -0.9937 0.1124 -0.0000
vn -0.6277 0.6309 -0.4560
vn -0.8090 -0.0000 -0.5878
vn 0.8472 -0.1162 0.5184
vn 0.8472 -0.1162 -0.5184
vn -0.8472 -0.1162 0.5184
vn -1.0000 -0.0013 -0.0000
vn -0.0025 0.9921 0.1254
vn 1.0000 0.0003 -0.0000
vn 0.2398 0.6309 -0.7379
vn 0.2397 0.6309 0.7379
vn -0.2397 0.6309 0.7379
vn -0.2398 0.6309 -0.7379
vn 0.7022 0.2842 -0.6528
vn 0.7022 0.2842 0.6528
vn -0.6277 0.6309 0.4560
vn -0.6638 0.3187 0.6766
vn -0.7022 0.2842 -0.6528
vt 0.625000 0.151175
vt 0.375000 0.250000
vt 0.375000 0.151175
vt 0.625000 0.676838
vt 0.375000 0.750000
vt 0.375000 0.676838
vt 0.875000 0.676838
vt 0.625000 0.750000
vt 0.625000 0.250000
vt 0.375000 0.500000
vt 0.625000 0.500000
vt 0.125000 0.500000
vt 0.859497 0.515503
vt 0.640503 0.583322
vt 0.640503 0.515503
vt 0.125000 0.598825
vt 0.375000 0.598825
vt 0.625000 0.073162
vt 0.375000 0.073162
vt 0.875000 0.598825
vt 0.859497 0.583322
vt 0.875000 0.500000
vt 0.625000 0.598825
vt 0.000000 0.000000
vt 0.625000 0.000000
vt 0.375000 0.000000
vt 0.643235 0.610888
vt 0.643235 0.664775
vt 0.125000 0.676838
vt 0.856765 0.610888
vt 0.856765 0.664775
vt 1.000000 1.000000
vt 0.900000 0.965738
vt 1.000000 0.965738
vt 0.800000 0.965738
vt 0.700000 0.965738
vt 0.606852 0.965738
vt 0.600000 1.000000
vt 0.600000 0.965738
vt 0.500000 1.000000
vt 0.500000 0.965738
vt 0.400000 0.965738
vt 0.021746 0.175836
vt 0.021746 0.324164
vt 0.478254 0.175836
vt 0.391068 0.055836
vt 0.100000 0.965738
vt -0.000000 1.000000
vt -0.000000 0.965738
vt 0.331858 0.965738
vt 0.900000 1.000000
vt 0.700000 1.000000
vt 0.300000 1.000000
vt 0.300000 0.965738
vt 0.200000 1.000000
vt 0.200000 0.965738
vt 0.100000 1.000000
vt 0.478254 0.324164
vt 0.391068 0.444164
vt 0.108932 0.444164
vt 0.400000 1.000000
vt 0.108932 0.055836
vt 0.608065 0.742093
vt 0.875000 0.750000
vt 0.341063 0.122202
vt 0.250000 0.010000
vt 0.250000 0.490000
vt 0.800000 1.000000
vt 0.541604 0.223310
vt 0.541604 0.250000
vt 0.541604 0.500000
vt 0.541604 0.526690
vt 0.625000 0.526690
vt 0.875000 0.526690
vt 0.375000 0.718683
vt 0.817720 0.683691
vt 0.375000 0.031317
vt 0.371605 0.717942
vt 0.625000 0.223310
s 0
usemtl SBX_49
f 42/1/1 12/2/1 18/3/1
f 41/7/3 8/8/3 44/4/3
f 12/2/4 15/9/4 17/2/4
f 14/10/6 12/12/6 17/10/6
f 14/10/6 18/16/6 12/12/6
f 27/11/2 21/17/2 14/10/2
f 5/13/3 42/20/3 19/21/3
f 11/15/3 25/22/3 5/13/3
f 11/15/3 43/23/3 27/11/3
f 19/21/3 43/23/3 22/14/3
f 14/10/8 17/10/8 15/11/8
f 31/24/12 34/24/12 27/24/12
f 28/27/15 48/28/15 38/28/15
f 21/17/6 37/29/6 18/16/6
f 24/30/3 41/7/3 39/31/3
f 28/27/3 44/4/3 43/23/3
f 39/31/3 44/4/3 38/28/3
f 39/31/16 46/30/16 24/30/16
f 43/23/3 42/20/3 49/30/3
f 42/1/1 25/9/1 12/2/1
f 37/29/6 40/6/6 84/65/6
f 41/7/3 3/64/3 8/8/3
f 14/10/6 21/17/6 18/16/6
f 27/11/2 43/23/2 21/17/2
f 5/13/3 25/22/3 42/20/3
f 11/15/3 27/11/3 25/22/3
f 11/15/3 22/14/3 43/23/3
f 19/21/3 42/20/3 43/23/3
f 30/24/39 25/24/39 33/24/39
f 28/27/15 47/27/15 48/28/15
f 21/17/6 40/6/6 37/29/6
f 24/30/3 42/20/3 41/7/3
f 28/27/3 38/28/3 44/4/3
f 39/31/3 41/7/3 44/4/3
f 39/31/16 45/31/16 46/30/16
f 50/27/3 28/27/3 43/23/3
f 42/20/3 24/30/3 49/30/3
f 49/30/3 50/27/3 43/23/3
f 80/77/6 1/26/6 84/65/6
f 1/26/6 37/29/6 84/65/6
f 40/6/6 7/5/6 83/78/6
f 7/5/6 82/75/6 83/78/6
f 40/6/6 83/78/6 84/65/6
usemtl SBX_35
f 44/4/2 7/5/2 40/6/2
f 14/10/5 15/11/5 27/11/5
f 5/13/3 22/14/3 11/15/3
f 41/18/1 18/3/1 37/19/1
f 12/2/7 25/9/7 15/9/7
f 3/25/1 37/19/1 1/26/1
f 43/23/2 40/6/2 21/17/2
f 44/4/2 8/8/2 7/5/2
f 81/63/17 8/8/17 3/64/17
f 5/13/3 19/21/3 22/14/3
f 41/18/1 42/1/1 18/3/1
f 3/25/1 41/18/1 37/19/1
f 43/23/2 44/4/2 40/6/2
f 81/63/17 82/75/17 7/5/17
f 3/64/17 1/26/17 79/76/17
f 1/26/17 80/77/17 79/76/17
f 81/63/17 7/5/17 8/8/17
f 3/64/17 79/76/17 81/63/17
usemtl SBX_34
f 38/28/17 45/31/17 39/31/17
f 38/28/17 48/28/17 45/31/17
f 9/11/17 84/70/17 83/71/17
f 9/11/17 4/9/17 84/70/17
usemtl SBX_41
f 34/11/10 35/22/10 33/22/10
f 25/22/11 34/11/11 33/22/11
f 27/24/14 30/24/14 31/24/14
f 47/27/18 49/30/18 46/30/18
f 47/27/19 28/27/19 50/27/19
f 24/30/20 46/30/20 49/30/20
f 34/11/40 36/11/40 35/22/40
f 25/22/11 27/11/11 34/11/11
f 27/24/6 25/22/6 30/24/6
f 47/27/18 50/27/18 49/30/18
usemtl SBX_37
f 46/30/3 48/28/3 47/27/3
f 46/30/3 45/31/3 48/28/3
usemtl SBX_43
f 30/24/9 33/24/9 35/24/9
f 31/24/13 35/24/13 36/24/13
f 31/24/41 36/24/41 34/24/41
f 31/24/13 30/24/13 35/24/13
usemtl SBX_33
f 2/32/21 55/33/21 56/34/21
f 55/33/22 63/35/22 59/35/22
f 60/36/23 65/37/23 61/37/23
f 16/38/24 72/39/24 75/38/24
f 62/39/25 20/40/25 58/41/25
f 20/40/26 57/42/26 58/41/26
f 59/35/2 64/36/2 60/36/2
f 26/43/2 29/44/2 77/43/2
f 29/44/3 26/43/3 13/45/3
f 13/45/27 75/46/27 74/45/27
f 54/47/28 2/48/28 56/49/28
f 61/37/6 58/41/6 51/50/6
f 73/51/29 63/35/29 70/33/29
f 63/35/30 74/52/30 64/36/30
f 75/38/31 72/39/31 65/37/31
f 77/53/32 67/54/32 66/50/32
f 67/54/33 77/55/33 68/56/33
f 68/56/34 78/57/34 69/47/34
f 6/51/35 70/33/35 55/33/35
f 57/42/24 66/50/24 51/50/24
f 10/58/24 73/59/24 6/59/24
f 29/44/36 78/60/36 77/44/36
f 32/57/22 69/47/22 78/57/22
f 51/50/24 67/54/24 52/54/24
f 23/61/23 71/42/23 57/42/23
f 61/37/23 72/39/23 62/39/23
f 10/58/1 13/45/1 74/58/1
f 52/54/1 68/56/1 53/56/1
f 26/43/22 76/62/22 23/62/22
f 54/47/35 68/56/35 69/47/35
f 29/44/23 32/60/23 78/60/23
f 26/43/37 77/43/37 76/62/37
f 10/58/38 74/58/38 73/59/38
f 13/45/35 16/46/35 75/46/35
f 2/32/42 6/51/42 55/33/42
f 55/33/22 70/33/22 63/35/22
f 60/36/23 64/36/23 65/37/23
f 16/38/24 62/39/24 72/39/24
f 62/39/43 16/38/43 20/40/43
f 20/40/44 23/61/44 57/42/44
f 59/35/2 63/35/2 64/36/2
f 26/43/3 23/62/3 16/46/3
f 23/62/3 20/66/3 16/46/3
f 16/46/3 13/45/3 26/43/3
f 13/45/3 10/58/3 29/44/3
f 10/58/3 6/59/3 32/60/3
f 6/59/3 2/67/3 32/60/3
f 32/60/3 29/44/3 10/58/3
f 54/47/45 32/57/45 2/48/45
f 55/33/6 59/35/6 54/47/6
f 59/35/6 60/36/6 51/50/6
f 54/47/6 59/35/6 53/56/6
f 61/37/6 62/39/6 58/41/6
f 60/36/6 61/37/6 51/50/6
f 59/35/6 51/50/6 53/56/6
f 54/47/6 56/34/6 55/33/6
f 52/54/6 53/56/6 51/50/6
f 58/41/6 57/42/6 51/50/6
f 73/51/46 74/68/46 63/35/46
f 65/37/31 64/36/31 75/38/31
f 64/36/47 74/52/47 75/38/47
f 71/42/48 76/61/48 66/50/48
f 76/61/49 77/53/49 66/50/49
f 68/56/50 77/55/50 78/57/50
f 6/51/35 73/51/35 70/33/35
f 57/42/24 71/42/24 66/50/24
f 32/57/22 54/47/22 69/47/22
f 51/50/24 66/50/24 67/54/24
f 23/61/23 76/61/23 71/42/23
f 61/37/23 65/37/23 72/39/23
f 52/54/1 67/54/1 68/56/1
f 54/47/35 53/56/35 68/56/35
f 4/9/2 80/69/2 84/70/2
f 9/11/1 82/72/1 81/73/1
f 4/22/6 81/73/6 79/74/6
f 4/9/2 79/79/2 80/69/2
f 9/11/1 83/71/1 82/72/1
f 4/22/6 9/11/6 81/73/6
o Cube.001
v -0.076928 1.795888 2.881326
v -0.076928 1.900854 2.902163
v -0.126176 1.756100 2.686651
v -0.143256 2.011985 2.737447
v 0.076928 1.795888 2.881326
v 0.076928 1.900854 2.902163
v 0.126176 1.756100 2.686651
v 0.143256 2.011985 2.737447
v -0.143256 1.752850 2.703022
v -0.159731 1.843773 2.914909
v -0.143256 2.008735 2.753818
v -0.348587 1.913215 2.565095
v 0.348587 1.913215 2.565095
v 0.143256 1.752850 2.703022
v 0.143256 2.008735 2.753818
v 0.159731 1.843773 2.914909
v 0.297453 1.880793 2.728419
v -0.297453 1.880793 2.728419
v -0.192179 1.998415 2.135894
v -0.092555 1.887437 2.245322
v 0.092555 1.887437 2.245322
v -0.092555 2.059181 2.279415
v 0.092555 2.059181 2.279415
v 0.192179 1.998415 2.135894
v 0.000000 2.074719 1.751516
v 0.130312 1.759759 2.693239
v 0.126066 1.756182 2.692360
v 0.121906 1.759592 2.694082
v 0.122670 1.762133 2.694755
v 0.090337 1.906111 2.213196
v 0.086092 1.902534 2.212317
v 0.081931 1.905944 2.214039
v 0.086176 1.909521 2.214918
v -0.122132 1.758867 2.693938
v -0.126292 1.755457 2.692216
v -0.130538 1.759034 2.693095
v -0.125101 1.762133 2.694755
v -0.081438 1.904978 2.213847
v -0.085598 1.901568 2.212126
v -0.089844 1.905145 2.213005
v -0.085683 1.908555 2.214726
v -0.137639 2.000841 2.742192
v -0.141886 1.997242 2.741421
v -0.146007 2.001092 2.740927
v -0.141760 2.004691 2.741697
v -0.077651 2.054469 2.243742
v -0.081898 2.050870 2.242972
v -0.086019 2.054720 2.242478
v -0.081772 2.058319 2.243248
v 0.143576 2.001092 2.740927
v 0.139456 1.997242 2.741421
v 0.135209 2.000841 2.742192
v 0.139329 2.004691 2.741697
v 0.089402 2.056451 2.242821
v 0.085282 2.052601 2.243315
v 0.081034 2.056200 2.244086
v 0.085155 2.060050 2.243591
v 0.345734 1.912877 2.567536
v 0.341838 1.908864 2.568717
v 0.337943 1.912122 2.571341
v 0.341838 1.916134 2.570160
v 0.166031 2.005823 2.098431
v 0.162135 2.001810 2.099612
v 0.158240 2.005068 2.102235
v 0.162135 2.009080 2.101054
v -0.338210 1.912177 2.571352
v -0.342105 1.908919 2.568727
v -0.346000 1.912932 2.567547
v -0.342105 1.916189 2.570171
v -0.156417 2.005068 2.102235
v -0.160313 2.001810 2.099612
v -0.164208 2.005823 2.098431
v -0.160313 2.009080 2.101054
vn -0.6218 0.7078 0.3352
vn 0.5850 0.5958 0.5503
vn -0.0000 0.2179 0.9760
vn -0.0000 -0.9721 0.2346
vn -0.0000 0.8088 0.5882
vn -0.0000 0.9809 0.1947
vn -0.0000 -0.9809 -0.1947
vn -0.0000 -0.5742 0.8187
vn 0.3617 -0.8666 0.3437
vn 0.3109 -0.8165 -0.4865
vn 0.6218 0.7078 0.3352
vn -0.3109 -0.8165 -0.4865
vn -0.3617 -0.8666 0.3437
vn -0.5850 0.5958 0.5503
vn -0.0000 0.9996 0.0294
vn -0.4612 0.8856 -0.0548
vn -0.4612 -0.7975 -0.3889
vn 0.4612 0.8856 -0.0548
vn 0.4612 -0.7975 -0.3889
vn -0.0000 -0.9350 -0.3546
vn -0.0000 -0.9209 0.3899
vn -0.0000 0.7021 0.7121
vn -0.0000 0.8676 -0.4972
vn -0.0000 -0.6119 -0.7909
vn 0.6525 -0.7080 -0.2702
vn -0.6653 -0.7278 -0.1665
vn -0.9566 0.2469 0.1549
vn 0.6661 0.7257 0.1723
vn 0.6652 -0.7282 -0.1652
vn -0.6525 -0.7078 -0.2707
vn -0.5312 0.8220 0.2051
vn 0.6526 0.7082 0.2696
vn 0.6469 -0.7626 -0.0042
vn -0.6639 -0.7309 -0.1585
vn -0.6469 0.7625 0.0042
vn 0.6638 0.7309 0.1585
vn 0.6647 -0.7311 -0.1536
vn -0.6479 -0.7616 -0.0142
vn -0.6647 0.7312 0.1536
vn 0.6480 0.7615 0.0142
vn 0.6089 -0.7006 -0.3721
vn -0.6087 -0.7897 0.0767
vn -0.6089 0.7006 0.3721
vn 0.6087 0.7897 -0.0767
vn 0.6077 -0.7903 0.0790
vn -0.6079 -0.7003 -0.3742
vn -0.6076 0.7903 -0.0790
vn 0.6079 0.7003 0.3742
vn -0.6458 0.7489 0.1487
vn 0.3617 0.6696 0.6487
vn 0.5850 -0.7608 0.2810
vn 0.6335 -0.7724 0.0450
vn 0.6458 0.7489 0.1487
vn -0.6335 -0.7724 0.0450
vn -0.5850 -0.7608 0.2810
vn -0.3617 0.6696 0.6487
vn -0.6527 0.7089 0.2674
vn 0.3321 0.9096 0.2497
vn -0.6654 0.7275 0.1673
vn 0.7467 0.6160 0.2508
vn 0.6470 -0.7625 -0.0042
vn -0.6639 -0.7308 -0.1585
vn -0.6469 0.7626 0.0042
vn 0.6648 -0.7311 -0.1535
vn -0.6647 0.7311 0.1536
vn 0.6478 0.7616 0.0142
vn 0.6076 -0.7903 0.0790
vt 0.500000 0.125000
vt 0.625000 0.250000
vt 0.500000 0.250000
vt 0.625000 0.625000
vt 0.500000 0.750000
vt 0.500000 0.625000
vt 0.625000 1.000000
vt 0.500000 1.000000
vt 0.375000 0.625000
vt 0.125000 0.750000
vt 0.125000 0.625000
vt 0.875000 0.625000
vt 0.625000 0.750000
vt 0.875000 0.500000
vt 0.625000 0.500000
vt 0.375000 0.500000
vt 0.125000 0.500000
vt 0.375000 0.750000
vt 0.375000 1.000000
vt 0.500000 0.500000
vt 0.375000 0.125000
vt 0.375000 0.250000
vt 0.500000 0.000000
vt 0.375000 0.000000
vt 0.625000 0.125000
vt 2.782769 0.750000
vt 2.782769 1.000000
vt 2.782769 1.000000
vt 2.782769 0.500000
vt 2.782769 0.750000
vt 2.782769 0.250000
vt 2.782769 0.500000
vt 2.782769 0.000000
vt 2.782769 0.250000
vt 2.795350 1.000000
vt 2.795350 0.750000
vt 2.795350 0.500000
vt 2.795350 0.250000
vt 2.795350 0.000000
vt 2.845680 0.750000
vt 2.845680 1.000000
vt 2.845680 0.500000
vt 2.845680 0.250000
vt 2.845680 0.000000
vt 0.875000 0.750000
vt 0.625000 0.000000
vt 2.782769 0.000000
s 0
usemtl SBX_34
f 102/80/51 88/81/51 96/82/51
f 99/83/52 100/84/52 101/85/52
f 100/84/53 86/86/53 94/87/53
f 98/88/54 85/89/54 93/90/54
f 95/91/55 90/92/55 99/83/55
f 88/93/56 99/83/56 92/94/56
f 91/95/57 93/90/57 87/96/57
f 89/97/58 94/87/58 85/98/58
f 98/88/59 100/84/59 89/97/59
f 97/99/60 98/88/60 91/95/60
f 92/94/61 101/85/61 97/99/61
f 93/100/62 96/82/62 87/101/62
f 94/102/63 93/100/63 85/103/63
f 94/102/64 95/104/64 102/80/64
f 97/99/73 88/81/73 92/94/73
f 96/82/74 91/95/74 87/96/74
f 102/80/99 95/104/99 88/81/99
f 99/83/100 90/92/100 100/84/100
f 100/84/53 90/92/53 86/86/53
f 98/88/54 89/97/54 85/89/54
f 95/91/55 86/124/55 90/92/55
f 88/93/56 95/91/56 99/83/56
f 91/95/57 98/88/57 93/90/57
f 89/97/58 100/84/58 94/87/58
f 98/88/101 101/85/101 100/84/101
f 97/99/102 101/85/102 98/88/102
f 92/94/103 99/83/103 101/85/103
f 93/100/104 102/80/104 96/82/104
f 94/102/105 102/80/105 93/100/105
f 94/102/106 86/125/106 95/104/106
f 97/99/73 96/82/73 88/81/73
f 96/82/74 97/99/74 91/95/74
usemtl SBX_33
f 111/105/75 114/106/75 110/107/75
f 112/108/76 115/109/76 111/105/76
f 113/110/77 116/111/77 112/108/77
f 113/110/78 114/112/78 117/113/78
f 118/107/79 123/109/79 122/106/79
f 119/105/80 124/111/80 123/109/80
f 121/110/81 124/111/81 120/108/81
f 121/110/82 122/112/82 125/113/82
f 126/114/83 131/115/83 130/114/83
f 128/116/84 131/115/84 127/115/84
f 129/117/85 132/116/85 128/116/85
f 129/117/86 130/118/86 133/117/86
f 134/114/87 139/115/87 138/114/87
f 136/116/88 139/115/88 135/115/88
f 137/117/89 140/116/89 136/116/89
f 137/117/90 138/118/90 141/117/90
f 143/119/91 146/120/91 142/120/91
f 144/121/92 147/119/92 143/119/92
f 144/121/93 149/122/93 148/121/93
f 145/122/94 146/123/94 149/122/94
f 150/120/95 155/119/95 154/120/95
f 151/119/96 156/121/96 155/119/96
f 153/122/97 156/121/97 152/121/97
f 150/123/98 157/122/98 153/122/98
f 111/105/75 115/109/75 114/106/75
f 112/108/76 116/111/76 115/109/76
f 113/110/107 117/113/107 116/111/107
f 113/110/108 110/126/108 114/112/108
f 118/107/79 119/105/79 123/109/79
f 119/105/80 120/108/80 124/111/80
f 121/110/109 125/113/109 124/111/109
f 121/110/110 118/126/110 122/112/110
f 126/114/111 127/115/111 131/115/111
f 128/116/112 132/116/112 131/115/112
f 129/117/113 133/117/113 132/116/113
f 129/117/86 126/118/86 130/118/86
f 134/114/114 135/115/114 139/115/114
f 136/116/88 140/116/88 139/115/88
f 137/117/115 141/117/115 140/116/115
f 137/117/116 134/118/116 138/118/116
f 143/119/91 147/119/91 146/120/91
f 144/121/92 148/121/92 147/119/92
f 144/121/93 145/122/93 149/122/93
f 145/122/94 142/123/94 146/123/94
f 150/120/117 151/119/117 155/119/117
f 151/119/96 152/121/96 156/121/96
f 153/122/97 157/122/97 156/121/97
f 150/123/98 154/123/98 157/122/98
usemtl SBX_39
f 106/93/65 107/94/65 109/93/65
f 103/82/66 106/81/66 109/82/66
f 104/101/67 103/82/67 109/101/67
f 107/94/68 108/99/68 109/94/68
f 108/99/69 105/95/69 109/99/69
f 105/95/70 104/96/70 109/95/70
f 106/81/71 108/99/71 107/94/71
f 105/95/72 103/82/72 104/96/72
f 106/81/71 103/82/71 108/99/71
f 105/95/72 108/99/72 103/82/72
