# Blender 5.0.1
# www.blender.org
mtllib house1.mtl
o Cube
v -0.998323 0.000914 0.902954
v -0.998323 1.357804 0.902954
v -0.998323 0.000914 -0.875459
v -0.998323 1.357804 -0.875459
v 1.005909 0.000914 0.902954
v 1.005909 1.357804 0.902954
v 1.005909 0.000914 -0.875459
v 1.005909 1.357804 -0.875459
v -0.048045 1.839224 0.902954
v -0.048045 1.839224 -0.875459
v 0.055631 1.839224 -0.875459
v 0.055631 1.839224 0.902954
v -0.991614 0.012975 0.880440
v -0.987635 1.352668 0.879300
v -0.975800 0.023436 -0.852936
v -0.971885 1.341562 -0.851815
v 0.999629 0.012975 0.880440
v 0.995650 1.352668 0.879300
v 0.983386 0.023436 -0.852936
v 0.979471 1.341562 -0.851815
v -0.041224 1.810665 0.877271
v -0.041224 1.810665 -0.849776
v 0.048809 1.810665 -0.849776
v 0.048809 1.810665 0.877271
v -0.195052 0.822812 0.902954
v 0.195052 0.822812 0.902954
v -0.195052 0.023436 0.902954
v 0.195052 0.023436 0.902954
v -0.195052 0.023436 0.880431
v 0.195052 0.023436 0.880431
v -0.198091 0.825430 0.879749
v 0.198396 0.825430 0.879749
v -0.831939 0.336203 0.902954
v -0.831939 0.726307 0.902954
v -0.441835 0.336203 0.902954
v -0.441835 0.726307 0.902954
v -0.441835 0.336203 0.880165
v -0.845398 0.330860 0.880170
v -0.845398 0.727347 0.879833
v -0.448912 0.727347 0.879833
v 0.399472 0.336203 0.902954
v 0.399472 0.726307 0.902954
v 0.789575 0.726307 0.902954
v 0.789575 0.336203 0.902954
v 0.399472 0.336203 0.880165
v 0.802647 0.727347 0.879833
v 0.802647 0.330860 0.880170
v 0.406160 0.727347 0.879833
vn -1.0000 -0.0000 -0.0000
vn -0.0000 -0.0000 -1.0000
vn 1.0000 -0.0000 -0.0000
vn -0.0000 -0.0000 1.0000
vn -0.0000 -1.0000 -0.0000
vn 0.4519 0.8921 -0.0000
vn -0.0000 1.0000 -0.0000
vn -0.4519 0.8921 -0.0000
vn 1.0000 -0.0030 0.0091
vn -0.0000 -0.0009 1.0000
vn -1.0000 -0.0030 0.0094
vn -0.0000 -0.0009 -1.0000
vn -0.0000 1.0000 0.0060
vn -0.4354 -0.9002 0.0098
vn 0.4356 -0.9001 0.0097
vn -0.0000 -0.0044 -1.0000
vn -0.0000 -0.0043 1.0000
vn 0.9916 0.0036 -0.1294
vn -0.0000 -0.9937 -0.1121
vn 0.8642 -0.0000 -0.5031
vn -0.0129 0.9752 -0.2211
vn -0.0000 -0.9990 -0.0449
vn 0.9607 -0.0162 0.2772
vn -0.8674 -0.0004 -0.4976
vn 0.0129 0.9751 -0.2213
vn -0.4501 -0.8930 -0.0000
vn 0.4501 -0.8930 -0.0000
vn -0.9898 0.0040 -0.1422
vn 0.8610 -0.0004 -0.5085
vn -0.9563 -0.0171 0.2919
vn -0.8705 -0.0000 -0.4922
vt 0.625000 0.000000
vt 0.375000 0.250000
vt 0.375000 0.000000
vt 0.625000 0.250000
vt 0.375000 0.500000
vt 0.625000 0.500000
vt 0.375000 0.750000
vt 0.508650 0.776985
vt 0.625000 0.750000
vt 0.526430 0.851143
vt 0.436775 0.825644
vt 0.508650 0.825645
vt 0.436775 0.930586
vt 0.375000 1.000000
vt 0.379150 0.899803
vt 0.379150 0.851143
vt 0.125000 0.750000
vt 0.125000 0.500000
vt 0.875000 0.500000
vt 0.625000 1.000000
vt 0.526612 0.850533
vt 0.526612 0.900437
vt 0.434320 0.824465
vt 0.434320 0.774645
vt 0.375000 0.850595
vt 0.434320 0.931913
vt 0.375000 0.900373
vt 0.625000 0.005656
vt 0.375000 0.020090
vt 0.625000 0.020526
vt 0.625000 0.744344
vt 0.375000 0.729910
vt 0.375000 0.744344
vt 0.125000 0.744344
vt 0.125000 0.729910
vt 0.875000 0.729474
vt 0.625000 0.729474
vt 0.375000 0.125307
vt 0.625000 0.140124
vt 0.625000 0.125307
vt 0.625000 0.624693
vt 0.375000 0.610089
vt 0.375000 0.624693
vt 0.125000 0.624693
vt 0.125000 0.610089
vt 0.875000 0.624693
vt 0.625000 0.609876
vt 0.375000 0.139911
vt 0.875000 0.609876
vt 0.436775 0.776985
vt 0.508650 0.979246
vt 0.436775 0.979246
vt 0.508650 0.930586
vt 0.526430 0.899803
vt 0.875000 0.750000
vt 0.508309 0.981870
vt 0.434320 0.981736
vt 0.508309 0.774520
vt 0.508309 0.824411
vt 0.508309 0.931981
vt 0.375000 0.005656
vt 0.875000 0.744344
s 0
usemtl SBX_32
f 25/28/18 29/29/18 31/30/18
f 26/31/1 30/32/1 28/33/1
f 27/34/7 30/32/7 29/35/7
f 26/31/19 31/36/19 32/37/19
f 33/38/20 39/39/20 34/40/20
f 36/41/1 37/42/1 35/43/1
f 33/44/21 37/42/21 38/45/21
f 34/46/22 40/47/22 36/41/22
f 42/40/23 45/48/23 48/39/23
f 44/43/24 46/47/24 47/42/24
f 45/45/25 44/43/25 47/42/25
f 43/41/22 48/49/22 46/47/22
f 25/28/3 27/61/3 29/29/3
f 26/31/28 32/37/28 30/32/28
f 27/34/7 28/33/7 30/32/7
f 26/31/19 25/62/19 31/36/19
f 33/38/29 38/48/29 39/39/29
f 36/41/30 40/47/30 37/42/30
f 33/44/7 35/43/7 37/42/7
f 34/46/22 39/49/22 40/47/22
f 42/40/3 41/38/3 45/48/3
f 44/43/31 43/41/31 46/47/31
f 45/45/7 41/44/7 44/43/7
f 43/41/22 42/46/22 48/49/22
usemtl SBX_33
f 7/5/5 1/17/5 3/18/5
f 13/14/12 30/25/12 17/7/12
f 7/5/5 5/7/5 1/17/5
f 13/14/12 29/27/12 30/25/12
usemtl SBX_34
f 2/20/4 12/9/4 9/20/4
f 4/4/2 11/6/2 8/6/2
f 24/9/14 20/6/14 18/9/14
f 24/9/5 22/19/5 23/6/5
f 16/4/15 21/1/15 14/1/15
f 14/20/16 24/9/16 18/9/16
f 20/6/17 22/4/17 16/4/17
f 2/20/4 6/9/4 12/9/4
f 4/4/2 10/4/2 11/6/2
f 24/9/26 23/6/26 20/6/26
f 24/9/5 21/55/5 22/19/5
f 16/4/27 22/4/27 21/1/27
f 14/20/16 21/20/16 24/9/16
f 20/6/17 23/6/17 22/4/17
usemtl SBX_35
f 2/1/1 3/2/1 1/3/1
f 4/4/2 7/5/2 3/2/2
f 8/6/3 5/7/3 7/5/3
f 43/8/4 5/7/4 6/9/4
f 26/10/4 41/11/4 42/12/4
f 35/13/4 1/14/4 27/15/4
f 1/14/4 28/16/4 27/15/4
f 2/1/1 4/4/1 3/2/1
f 4/4/2 8/6/2 7/5/2
f 8/6/3 6/9/3 5/7/3
f 44/50/4 41/11/4 28/16/4
f 2/20/4 1/14/4 34/51/4
f 1/14/4 33/52/4 34/51/4
f 34/51/4 36/53/4 2/20/4
f 36/53/4 25/54/4 2/20/4
f 44/50/4 28/16/4 5/7/4
f 26/10/4 42/12/4 6/9/4
f 42/12/4 43/8/4 6/9/4
f 43/8/4 44/50/4 5/7/4
f 6/9/4 2/20/4 26/10/4
f 2/20/4 25/54/4 26/10/4
f 26/10/4 28/16/4 41/11/4
f 35/13/4 33/52/4 1/14/4
f 27/15/4 25/54/4 35/13/4
f 25/54/4 36/53/4 35/13/4
f 1/14/4 5/7/4 28/16/4
usemtl SBX_37
f 13/17/13 19/5/13 15/18/13
f 13/17/13 17/7/13 19/5/13
usemtl SBX_38
f 8/6/6 12/9/6 6/9/6
f 10/19/7 12/9/7 11/6/7
f 2/1/8 10/4/8 4/4/8
f 8/6/6 11/6/6 12/9/6
f 10/19/7 9/55/7 12/9/7
f 2/1/8 9/1/8 10/4/8
usemtl SBX_47E127
f 13/3/9 16/4/9 14/1/9
f 19/5/10 16/4/10 15/2/10
f 17/7/11 20/6/11 19/5/11
f 32/21/12 31/22/12 14/20/12
f 45/23/12 47/24/12 30/25/12
f 37/26/12 31/22/12 29/27/12
f 13/3/9 15/2/9 16/4/9
f 19/5/10 20/6/10 16/4/10
f 17/7/11 18/9/11 20/6/11
f 39/56/12 38/57/12 13/14/12
f 18/9/12 17/7/12 46/58/12
f 17/7/12 47/24/12 46/58/12
f 46/58/12 48/59/12 18/9/12
f 48/59/12 32/21/12 18/9/12
f 39/56/12 13/14/12 14/20/12
f 31/22/12 40/60/12 14/20/12
f 40/60/12 39/56/12 14/20/12
f 18/9/12 32/21/12 14/20/12
f 47/24/12 17/7/12 30/25/12
f 30/25/12 32/21/12 45/23/12
f 32/21/12 48/59/12 45/23/12
f 37/26/12 40/60/12 31/22/12
f 29/27/12 13/14/12 37/26/12
f 13/14/12 38/57/12 37/26/12
