# Blender 5.0.1
# www.blender.org
mtllib ip_energy.mtl
o Cube
v 1.000000 0.000000 0.500000
v 0.434322 0.164370 0.171584
v -1.000000 0.000000 0.500000
v -0.434322 0.164370 0.171584
v 1.000000 0.000000 -0.500000
v 0.434322 0.164370 -0.171584
v -1.000000 0.000000 -0.500000
v -0.434322 0.164370 -0.171584
v 0.365975 0.308795 0.122656
v -0.365975 0.308795 0.122656
v -0.365975 0.308795 -0.122656
v 0.365975 0.308795 -0.122656
v -0.350550 0.308795 0.122656
v -0.349450 0.308795 -0.122656
v 0.350000 0.308795 0.122656
v 0.350000 0.308795 -0.122656
v -0.742563 1.645874 0.212870
v -0.757987 1.645874 0.212870
v -0.757987 1.645874 -0.212870
v 0.742013 1.645874 -0.212870
v 0.757987 1.645874 -0.212870
v 0.757987 1.645874 0.212870
v -0.741462 1.645874 -0.212870
v 0.742013 1.645874 0.212870
v -0.350550 3.098531 0.016789
v -0.365975 3.098531 0.016789
v -0.365975 3.098531 -0.016789
v 0.350000 3.098531 -0.016789
v 0.365975 3.098531 -0.016789
v 0.365975 3.098531 0.016789
v -0.349450 3.098531 -0.016789
v 0.350000 3.098531 0.016789
vn -0.0000 0.8943 0.4476
vn -0.2790 0.9603 -0.0000
vn -0.0000 0.8943 -0.4476
vn 0.2790 0.9603 -0.0000
vn -0.0000 -1.0000 -0.0000
vn -0.0000 0.3209 0.9471
vn -0.0000 -0.0673 -0.9977
vn 0.9039 0.4278 -0.0000
vn -0.9039 0.4278 -0.0000
vn -0.0000 0.3209 -0.9471
vn -0.0000 0.1338 -0.9910
vn -0.0000 1.0000 -0.0000
vn -0.9596 0.2813 -0.0000
vn -0.0000 0.1338 0.9910
vn -0.0000 -0.0673 0.9977
vn 0.9596 -0.2813 -0.0000
vn -0.9596 -0.2813 -0.0000
vn 0.9596 0.2813 0.0031
vn -0.9655 -0.2605 -0.0000
vn 0.9655 -0.2605 0.0046
vn 0.9655 0.2605 -0.0000
vn -0.9655 0.2605 -0.0000
vt 0.375000 0.000000
vt 0.625000 0.000000
vt 0.625000 0.250000
vt 0.375000 0.250000
vt 0.625000 0.500000
vt 0.375000 0.500000
vt 0.625000 0.750000
vt 0.375000 0.750000
vt 0.625000 1.000000
vt 0.375000 1.000000
vt 0.125000 0.500000
vt 0.125000 0.750000
vt 0.625000 0.004745
vt 0.625000 0.246405
vt 0.625000 0.745255
vt 0.625000 0.503971
vt 0.875000 0.503595
vt 0.875000 0.745255
vt 0.875000 0.500000
vt 0.875000 0.750000
s 0
usemtl SBX_33
f 1/1/1 2/2/1 4/3/1 3/4/1
f 3/4/2 4/3/2 8/5/2 7/6/2
f 7/6/3 8/5/3 6/7/3 5/8/3
f 5/8/4 6/7/4 2/9/4 1/10/4
f 3/11/5 7/6/5 5/8/5 1/12/5
f 4/3/6 2/2/6 9/2/6 15/13/6 13/14/6 10/3/6
f 12/7/7 16/15/7 20/15/7 21/7/7
f 2/9/8 6/7/8 12/7/8 9/9/8
f 8/5/9 4/3/9 10/3/9 11/5/9
f 6/7/10 8/5/10 11/5/10 14/16/10 16/15/10 12/7/10
f 23/16/11 19/5/11 27/5/11 31/16/11
f 16/15/13 15/18/13 24/18/13 20/15/13
f 24/13/14 22/2/14 30/2/14 32/13/14
f 15/13/15 9/2/15 22/2/15 24/13/15
f 10/3/15 13/14/15 17/14/15 18/3/15
f 14/16/7 11/5/7 19/5/7 23/16/7
f 9/9/16 12/7/16 21/7/16 22/9/16
f 11/5/17 10/3/17 18/3/17 19/5/17
f 13/17/18 14/16/18 23/16/18 17/17/18
f 27/5/12 26/19/12 25/17/12 31/16/12
f 28/15/12 32/18/12 30/20/12 29/7/12
f 21/7/11 20/15/11 28/15/11 29/7/11
f 18/3/14 17/14/14 25/14/14 26/3/14
f 20/15/19 24/18/19 32/18/19 28/15/19
f 17/17/20 23/16/20 31/16/20 25/17/20
f 22/9/21 21/7/21 29/7/21 30/9/21
f 19/5/22 18/3/22 26/3/22 27/5/22
usemtl SBX_33E64
f 14/16/12 13/17/12 15/18/12 16/15/12
