# Blender 5.0.1
# www.blender.org
mtllib island.mtl
o Cube.001
v -1.020319 0.158971 -0.171522
v -1.020319 0.158971 -0.285082
v -0.993303 0.158971 -0.171522
v -0.993303 0.158971 -0.285082
v -1.020319 0.158971 -0.409997
v -1.020319 0.158971 -0.523557
v -0.993303 0.158971 -0.409997
v -0.993303 0.158971 -0.523557
v -1.020319 0.158971 -0.648472
v -1.020319 0.158971 -0.762032
v -0.993303 0.158971 -0.648472
v -0.993303 0.158971 -0.762032
v -1.020319 0.158971 -0.886947
v -1.020319 0.158971 -1.000507
v -0.993303 0.158971 -0.886947
v -0.993303 0.158971 -1.000507
v -1.020319 0.158971 -1.125422
v -1.020319 0.158971 -1.238982
v -0.993303 0.158971 -1.125422
v -0.993303 0.158971 -1.238982
v -1.020319 0.158971 -1.363897
v -0.993303 0.158971 -1.363897
v -1.020319 0.158971 -1.602372
v -1.020319 0.158971 -1.715932
v -0.993303 0.158971 -1.602372
v -0.993303 0.158971 -1.715932
v -1.020319 0.158971 -1.840847
v -1.020319 0.158971 -1.954407
v -0.993303 0.158971 -1.840847
v -0.993303 0.158971 -1.954407
v -1.020319 0.158971 -2.079322
v -1.020319 0.158971 -2.192882
v -0.993303 0.158971 -2.079322
v -0.993303 0.158971 -2.192882
v -1.020319 0.158971 -2.317797
v -1.020319 0.158971 -2.431357
v -0.993303 0.158971 -2.317797
v -0.993303 0.158971 -2.431357
v -1.020319 0.158971 -2.556272
v -0.993303 0.158971 -2.556272
v -1.020319 0.158971 -2.794747
v -1.020319 0.158971 -2.908307
v -0.993303 0.158971 -2.794747
v -0.993303 0.158971 -2.908307
v -1.020319 0.158971 -3.033222
v -1.020319 0.158971 -3.146782
v -0.993303 0.158971 -3.033222
v -0.993303 0.158971 -3.146782
v -1.020319 0.158971 -3.271697
v -1.020319 0.158971 -3.385257
v -0.993303 0.158971 -3.271697
v -0.993303 0.158971 -3.385257
v -1.020319 0.158971 -3.510172
v -1.020319 0.158971 -3.623732
v -0.993303 0.158971 -3.510172
v -0.993303 0.158971 -3.623732
v -1.020319 0.158971 -3.748647
v -1.020319 0.158971 -3.862207
v -0.993303 0.158971 -3.748647
v -0.993303 0.158971 -3.862207
v -1.020319 0.158971 -3.987122
v -1.020319 0.158971 -4.100681
v -0.993303 0.158971 -3.987122
v -0.993303 0.158971 -4.100681
v -1.020319 0.158971 -4.225596
v -1.020319 0.158971 -4.339156
v -0.993303 0.158971 -4.225596
v -0.993303 0.158971 -4.339156
v -1.020319 0.158971 -4.464072
v -1.020319 0.158971 -4.577632
v -0.993303 0.158971 -4.464072
v -0.993303 0.158971 -4.577632
v -1.020319 0.158971 -4.702547
v -1.020319 0.158971 -4.816107
v -0.993303 0.158971 -4.702547
v -0.993303 0.158971 -4.816107
v -1.020319 0.158971 -4.941022
v -1.020319 0.158971 -5.054582
v -0.993303 0.158971 -4.941022
v -0.993303 0.158971 -5.054582
v -1.020319 0.158971 -5.179497
v -1.020319 0.158971 -5.293056
v -0.993303 0.158971 -5.179497
v -0.993303 0.158971 -5.293056
v -1.252672 0.158971 -2.110986
v -1.252672 0.158971 -5.578832
v -0.760950 0.158971 -5.578832
v -0.760950 0.158971 -0.097772
v -0.232114 0.158971 -0.097772
v -1.252672 0.158971 -0.097772
v -0.760950 0.158971 -2.110986
v -0.760950 0.158971 -0.509705
v -1.451571 0.158971 -0.509705
v -1.938609 0.158971 -0.097772
v -0.232114 0.158971 -0.509705
v -1.013633 0.158971 -3.987122
v -1.020319 0.158971 -5.417972
v -1.020319 0.158971 -5.531531
v -0.993303 0.158971 -5.417972
v -0.993303 0.158971 -5.531531
v -1.004358 0.158971 -3.862207
v -1.020319 0.158971 -2.110986
v -1.020319 0.158971 -2.669832
v -0.993303 0.158971 -2.110986
v -0.993303 0.158971 -2.669832
v -1.020319 0.158971 -1.477457
v -0.993303 0.158971 -1.477457
v -0.999988 0.158971 -1.000507
v -1.011951 0.158971 -1.125422
v -1.451571 0.158971 -2.110986
v -1.451571 0.158971 -0.097772
v -1.938609 0.158971 -0.509705
v 1.058441 0.000000 -6.833142
v -1.929375 0.000000 -7.396456
v -5.205896 0.000000 -6.245724
v -5.971250 0.000000 -3.273447
v -3.643321 0.000000 -0.671007
v -4.470312 0.000000 2.702186
v -6.260610 0.000000 4.072108
v -5.093517 0.000000 6.176137
v -0.645327 0.000000 6.971783
v 3.742014 0.000000 5.364819
v 6.349198 0.000000 2.814565
v 5.715028 0.000000 0.511626
v 5.739921 0.000000 -2.111097
v 6.708893 0.000000 -3.455994
v 5.436465 0.000000 -4.988181
v 2.869847 0.000000 -5.145047
v -1.841727 0.158971 -6.240822
v 0.532457 0.158971 -5.793200
v -4.270940 0.158971 -5.387669
v -4.738014 0.158971 -3.573774
v -2.415632 0.158971 -0.977536
v -3.476989 0.158971 3.351607
v -4.813095 0.158971 4.373985
v -4.372706 0.158971 5.167914
v -0.746141 0.158971 5.816596
v 3.131197 0.158971 4.396434
v 5.094824 0.158971 2.475684
v 4.594203 0.158971 0.657717
v 4.623957 0.158971 -2.477100
v 5.294203 0.158971 -3.407377
v 4.884746 0.158971 -3.900424
v 2.400577 0.158971 -4.052251
v -0.788016 0.158971 -0.597846
v -1.305423 0.158971 -1.686305
v -1.422246 0.158971 -0.745799
vn -0.0000 1.0000 -0.0000
vn 0.0261 0.9901 -0.1382
vn -0.0466 0.9901 -0.1327
vn -0.1362 0.9901 -0.0351
vn -0.1048 0.9901 0.0937
vn -0.1366 0.9901 -0.0335
vn -0.0854 0.9901 -0.1117
vn -0.1230 0.9901 0.0682
vn -0.0248 0.9901 0.1384
vn 0.0484 0.9901 0.1320
vn 0.0983 0.9901 0.1005
vn 0.1356 0.9901 -0.0373
vn 0.1406 0.9901 0.0013
vn 0.1141 0.9901 0.0822
vn 0.1082 0.9901 -0.0898
vn 0.0086 0.9901 -0.1403
vn 0.0959 0.9901 -0.1029
vt 0.875000 0.500000
vt 0.625000 0.750000
vt 0.625000 0.500000
vt 0.000000 0.000000
vt 0.875000 0.750000
s 0
usemtl SBX_33
f 2/1/1 3/2/1 4/3/1
f 6/1/1 7/2/1 8/3/1
f 10/1/1 11/2/1 12/3/1
f 14/1/1 15/2/1 16/3/1
f 18/1/1 19/2/1 20/3/1
f 106/1/1 22/2/1 107/3/1
f 24/1/1 25/2/1 26/3/1
f 28/1/1 29/2/1 30/3/1
f 32/1/1 33/2/1 34/3/1
f 36/1/1 37/2/1 38/3/1
f 103/1/1 40/2/1 105/3/1
f 42/1/1 43/2/1 44/3/1
f 46/1/1 47/2/1 48/3/1
f 50/1/1 51/2/1 52/3/1
f 54/1/1 55/2/1 56/3/1
f 58/1/1 59/2/1 60/3/1
f 62/1/1 63/2/1 64/3/1
f 66/1/1 67/2/1 68/3/1
f 70/1/1 71/2/1 72/3/1
f 74/1/1 75/2/1 76/3/1
f 78/1/1 79/2/1 80/3/1
f 82/1/1 83/2/1 84/3/1
f 98/1/1 99/2/1 100/3/1
f 2/1/1 1/5/1 3/2/1
f 6/1/1 5/5/1 7/2/1
f 10/1/1 9/5/1 11/2/1
f 14/1/1 13/5/1 15/2/1
f 18/1/1 17/5/1 19/2/1
f 106/1/1 21/5/1 22/2/1
f 24/1/1 23/5/1 25/2/1
f 28/1/1 27/5/1 29/2/1
f 32/1/1 31/5/1 33/2/1
f 36/1/1 35/5/1 37/2/1
f 103/1/1 39/5/1 40/2/1
f 42/1/1 41/5/1 43/2/1
f 46/1/1 45/5/1 47/2/1
f 50/1/1 49/5/1 51/2/1
f 54/1/1 53/5/1 55/2/1
f 58/1/1 57/5/1 59/2/1
f 62/1/1 61/5/1 63/2/1
f 66/1/1 65/5/1 67/2/1
f 70/1/1 69/5/1 71/2/1
f 74/1/1 73/5/1 75/2/1
f 78/1/1 77/5/1 79/2/1
f 82/1/1 81/5/1 83/2/1
f 98/1/1 97/5/1 99/2/1
usemtl SBX_40
f 28/4/1 33/4/1 31/4/1
f 106/4/1 25/4/1 23/4/1
f 24/4/1 29/4/1 27/4/1
f 100/4/1 99/4/1 87/4/1
f 32/4/1 37/4/1 35/4/1
f 36/4/1 40/4/1 39/4/1
f 103/4/1 43/4/1 41/4/1
f 47/4/1 42/4/1 44/4/1
f 51/4/1 46/4/1 48/4/1
f 50/4/1 55/4/1 53/4/1
f 54/4/1 59/4/1 57/4/1
f 58/4/1 96/4/1 61/4/1
f 62/4/1 67/4/1 65/4/1
f 66/4/1 71/4/1 69/4/1
f 70/4/1 75/4/1 73/4/1
f 79/4/1 74/4/1 76/4/1
f 78/4/1 83/4/1 81/4/1
f 99/4/1 82/4/1 84/4/1
f 18/4/1 85/4/1 17/4/1
f 14/4/1 109/4/1 17/4/1
f 90/4/1 3/4/1 1/4/1
f 2/4/1 7/4/1 5/4/1
f 15/4/1 10/4/1 12/4/1
f 11/4/1 6/4/1 8/4/1
f 28/4/1 30/4/1 33/4/1
f 106/4/1 107/4/1 25/4/1
f 24/4/1 26/4/1 29/4/1
f 34/4/1 104/4/1 91/4/1
f 86/4/1 85/4/1 58/4/1
f 85/4/1 102/4/1 32/4/1
f 85/4/1 32/4/1 35/4/1
f 34/4/1 91/4/1 37/4/1
f 91/4/1 87/4/1 60/4/1
f 37/4/1 91/4/1 38/4/1
f 38/4/1 91/4/1 40/4/1
f 85/4/1 35/4/1 36/4/1
f 85/4/1 36/4/1 39/4/1
f 40/4/1 91/4/1 105/4/1
f 105/4/1 91/4/1 43/4/1
f 85/4/1 39/4/1 103/4/1
f 85/4/1 103/4/1 41/4/1
f 43/4/1 91/4/1 44/4/1
f 44/4/1 91/4/1 47/4/1
f 85/4/1 41/4/1 42/4/1
f 85/4/1 42/4/1 45/4/1
f 47/4/1 91/4/1 48/4/1
f 48/4/1 91/4/1 51/4/1
f 85/4/1 45/4/1 46/4/1
f 85/4/1 46/4/1 49/4/1
f 51/4/1 91/4/1 52/4/1
f 52/4/1 91/4/1 55/4/1
f 85/4/1 49/4/1 50/4/1
f 85/4/1 50/4/1 53/4/1
f 55/4/1 91/4/1 56/4/1
f 56/4/1 91/4/1 59/4/1
f 85/4/1 53/4/1 54/4/1
f 85/4/1 54/4/1 57/4/1
f 59/4/1 91/4/1 60/4/1
f 85/4/1 57/4/1 58/4/1
f 96/4/1 101/4/1 63/4/1
f 101/4/1 60/4/1 63/4/1
f 86/4/1 58/4/1 61/4/1
f 86/4/1 61/4/1 62/4/1
f 63/4/1 60/4/1 87/4/1
f 64/4/1 63/4/1 87/4/1
f 86/4/1 62/4/1 65/4/1
f 86/4/1 65/4/1 66/4/1
f 67/4/1 64/4/1 87/4/1
f 68/4/1 67/4/1 87/4/1
f 86/4/1 66/4/1 69/4/1
f 86/4/1 69/4/1 70/4/1
f 71/4/1 68/4/1 87/4/1
f 72/4/1 71/4/1 87/4/1
f 86/4/1 70/4/1 73/4/1
f 86/4/1 73/4/1 74/4/1
f 75/4/1 72/4/1 87/4/1
f 76/4/1 75/4/1 87/4/1
f 86/4/1 74/4/1 77/4/1
f 86/4/1 77/4/1 78/4/1
f 79/4/1 76/4/1 87/4/1
f 80/4/1 79/4/1 87/4/1
f 86/4/1 78/4/1 81/4/1
f 86/4/1 81/4/1 82/4/1
f 83/4/1 80/4/1 87/4/1
f 84/4/1 83/4/1 87/4/1
f 86/4/1 82/4/1 97/4/1
f 86/4/1 97/4/1 98/4/1
f 99/4/1 84/4/1 87/4/1
f 86/4/1 98/4/1 87/4/1
f 98/4/1 100/4/1 87/4/1
f 32/4/1 34/4/1 37/4/1
f 36/4/1 38/4/1 40/4/1
f 103/4/1 105/4/1 43/4/1
f 47/4/1 45/4/1 42/4/1
f 51/4/1 49/4/1 46/4/1
f 50/4/1 52/4/1 55/4/1
f 54/4/1 56/4/1 59/4/1
f 58/4/1 101/4/1 96/4/1
f 62/4/1 64/4/1 67/4/1
f 66/4/1 68/4/1 71/4/1
f 70/4/1 72/4/1 75/4/1
f 79/4/1 77/4/1 74/4/1
f 78/4/1 80/4/1 83/4/1
f 99/4/1 97/4/1 82/4/1
f 19/4/1 109/4/1 108/4/1
f 19/4/1 108/4/1 16/4/1
f 4/4/1 3/4/1 88/4/1
f 88/4/1 89/4/1 95/4/1
f 92/4/1 91/4/1 22/4/1
f 91/4/1 104/4/1 33/4/1
f 88/4/1 95/4/1 92/4/1
f 7/4/1 4/4/1 92/4/1
f 4/4/1 88/4/1 92/4/1
f 8/4/1 7/4/1 92/4/1
f 91/4/1 33/4/1 30/4/1
f 91/4/1 30/4/1 29/4/1
f 11/4/1 8/4/1 92/4/1
f 12/4/1 11/4/1 92/4/1
f 91/4/1 29/4/1 26/4/1
f 91/4/1 26/4/1 25/4/1
f 15/4/1 12/4/1 92/4/1
f 16/4/1 15/4/1 92/4/1
f 91/4/1 25/4/1 107/4/1
f 91/4/1 107/4/1 22/4/1
f 19/4/1 16/4/1 92/4/1
f 20/4/1 19/4/1 92/4/1
f 92/4/1 22/4/1 20/4/1
f 20/4/1 22/4/1 21/4/1
f 18/4/1 20/4/1 21/4/1
f 90/4/1 1/4/1 2/4/1
f 112/4/1 94/4/1 111/4/1
f 111/4/1 90/4/1 93/4/1
f 90/4/1 2/4/1 5/4/1
f 90/4/1 5/4/1 6/4/1
f 93/4/1 112/4/1 111/4/1
f 85/4/1 110/4/1 93/4/1
f 31/4/1 102/4/1 85/4/1
f 28/4/1 31/4/1 85/4/1
f 85/4/1 93/4/1 17/4/1
f 85/4/1 24/4/1 27/4/1
f 90/4/1 6/4/1 9/4/1
f 90/4/1 9/4/1 10/4/1
f 28/4/1 85/4/1 27/4/1
f 24/4/1 85/4/1 23/4/1
f 90/4/1 10/4/1 13/4/1
f 90/4/1 13/4/1 14/4/1
f 23/4/1 85/4/1 106/4/1
f 106/4/1 85/4/1 21/4/1
f 90/4/1 14/4/1 17/4/1
f 93/4/1 90/4/1 17/4/1
f 21/4/1 85/4/1 18/4/1
f 14/4/1 108/4/1 109/4/1
f 90/4/1 88/4/1 3/4/1
f 2/4/1 4/4/1 7/4/1
f 15/4/1 13/4/1 10/4/1
f 11/4/1 9/4/1 6/4/1
usemtl SBX_35
f 91/4/1 95/4/1 130/4/1
f 90/4/1 111/4/1 137/4/1
f 130/4/1 129/4/1 87/4/1
f 129/4/1 131/4/1 133/4/1
f 86/4/1 129/4/1 110/4/1
f 131/4/1 132/4/1 133/4/1
f 133/4/1 94/4/1 112/4/1
f 112/4/1 93/4/1 110/4/1
f 110/4/1 85/4/1 86/4/1
f 112/4/1 110/4/1 133/4/1
f 133/4/1 110/4/1 129/4/1
f 142/4/1 143/4/1 141/4/1
f 143/4/1 144/4/1 141/4/1
f 95/4/1 140/4/1 144/4/1
f 140/4/1 141/4/1 144/4/1
f 129/4/1 86/4/1 87/4/1
f 91/4/1 92/4/1 95/4/1
f 130/4/1 87/4/1 91/4/1
f 95/4/1 144/4/1 130/4/1
f 139/4/1 140/4/1 138/4/1
f 140/4/1 95/4/1 138/4/1
f 95/4/1 89/4/1 138/4/1
f 137/4/1 138/4/1 89/4/1
f 135/4/1 136/4/1 134/4/1
f 136/4/1 137/4/1 134/4/1
f 94/4/1 133/4/1 134/4/1
f 137/4/1 89/4/1 88/4/1
f 94/4/1 134/4/1 137/4/1
f 111/4/1 94/4/1 137/4/1
f 137/4/1 88/4/1 90/4/1
usemtl SBX_37
f 130/4/2 114/4/2 129/4/2
f 131/4/3 114/4/3 115/4/3
f 132/4/4 115/4/4 116/4/4
f 132/4/5 117/4/5 133/4/5
f 134/4/6 117/4/6 118/4/6
f 135/4/7 118/4/7 119/4/7
f 135/4/8 120/4/8 136/4/8
f 136/4/9 121/4/9 137/4/9
f 138/4/10 121/4/10 122/4/10
f 139/4/11 122/4/11 123/4/11
f 139/4/12 124/4/12 140/4/12
f 141/4/13 124/4/13 125/4/13
f 142/4/14 125/4/14 126/4/14
f 142/4/15 127/4/15 143/4/15
f 143/4/16 128/4/16 144/4/16
f 144/4/17 113/4/17 130/4/17
f 130/4/2 113/4/2 114/4/2
f 131/4/3 129/4/3 114/4/3
f 132/4/4 131/4/4 115/4/4
f 132/4/5 116/4/5 117/4/5
f 134/4/6 133/4/6 117/4/6
f 135/4/7 134/4/7 118/4/7
f 135/4/8 119/4/8 120/4/8
f 136/4/9 120/4/9 121/4/9
f 138/4/10 137/4/10 121/4/10
f 139/4/11 138/4/11 122/4/11
f 139/4/12 123/4/12 124/4/12
f 141/4/13 140/4/13 124/4/13
f 142/4/14 141/4/14 125/4/14
f 142/4/15 126/4/15 127/4/15
f 143/4/16 127/4/16 128/4/16
f 144/4/17 128/4/17 113/4/17
