# Blender 5.0.1
# www.blender.org
mtllib recogniser.mtl
o Plane.010
v -0.296586 0.863688 -0.134505
v 0.296587 0.863688 -0.134505
v -0.033695 0.994356 -0.088898
v 0.033695 0.994356 -0.088899
v -0.102171 0.863784 -0.168884
v 0.102220 0.863784 -0.168884
v -0.630537 0.811924 -0.170621
v -0.630537 0.826320 -0.170621
v -0.498095 0.826320 -0.170621
v -0.397446 0.811924 -0.170621
v -0.290917 0.679483 -0.170621
v -0.023033 0.679483 -0.170621
v -0.023033 0.711154 -0.170621
v -0.140821 0.711154 -0.170621
v -0.228589 0.811924 -0.170621
v -0.023033 0.811924 -0.170621
v -0.023033 0.826320 -0.170621
v 0.630537 0.811924 -0.170621
v 0.630537 0.826320 -0.170621
v 0.498095 0.826320 -0.170621
v 0.397446 0.811924 -0.170621
v 0.290917 0.679483 -0.170621
v 0.023033 0.679483 -0.170621
v 0.023033 0.711154 -0.170621
v 0.140821 0.711154 -0.170621
v 0.228589 0.811924 -0.170621
v 0.023033 0.811924 -0.170621
v 0.023033 0.826320 -0.170621
v -0.127312 0.739945 -0.170621
v 0.127312 0.739945 -0.170621
v -0.166126 0.786012 -0.170621
v 0.166126 0.786012 -0.170621
v -0.098386 0.552800 -0.170621
v 0.098386 0.552800 -0.170621
v -0.118540 0.572954 -0.170621
v 0.118540 0.572954 -0.170621
v -0.587349 0.593108 -0.170621
v 0.587349 0.593108 -0.170621
v -0.587349 0.619814 -0.170621
v 0.587349 0.619814 -0.170621
v -0.126683 0.639174 -0.170621
v 0.126683 0.639174 -0.170621
v -0.126683 0.659329 -0.170621
v 0.126683 0.659329 -0.170621
v -0.587349 0.659329 -0.170621
v -0.498095 0.659329 -0.170621
v -0.587349 0.774495 -0.170621
v -0.498095 0.774495 -0.170621
v -0.463545 0.702516 -0.170621
v -0.388687 0.702516 -0.170621
v -0.463545 0.734187 -0.170621
v -0.388687 0.734187 -0.170621
v -0.498095 0.094564 -0.170621
v -0.590229 0.552800 -0.170621
v -0.498095 0.552800 -0.170621
v -0.343992 0.005758 -0.170621
v -0.590229 0.005758 -0.170621
v -0.590229 0.097892 -0.170621
v 0.587349 0.659329 -0.170621
v 0.498095 0.659329 -0.170621
v 0.587349 0.774495 -0.170621
v 0.498095 0.774495 -0.170621
v 0.463545 0.702516 -0.170621
v 0.388687 0.702516 -0.170621
v 0.463545 0.734187 -0.170621
v 0.388687 0.734187 -0.170621
v 0.498095 0.094564 -0.170621
v 0.590229 0.552800 -0.170621
v 0.498095 0.552800 -0.170621
v 0.343992 0.005758 -0.170621
v 0.590229 0.005758 -0.170621
v 0.590229 0.097892 -0.170621
v -0.498095 0.826320 0.170560
v -0.630537 0.826320 0.170560
v -0.630537 0.811924 0.170560
v -0.397446 0.811924 0.170560
v -0.290917 0.679483 0.170560
v -0.023033 0.679483 0.170560
v -0.023033 0.711154 0.170560
v -0.140821 0.711154 0.170560
v -0.228589 0.811924 0.170560
v -0.023033 0.811924 0.170560
v -0.023033 0.826320 0.170560
v 0.498095 0.826320 0.170560
v 0.630537 0.826320 0.170560
v 0.630537 0.811924 0.170560
v 0.397446 0.811924 0.170560
v 0.290917 0.679483 0.170560
v 0.023033 0.679483 0.170560
v 0.023033 0.711154 0.170560
v 0.140821 0.711154 0.170560
v 0.228589 0.811924 0.170560
v 0.023033 0.811924 0.170560
v 0.023033 0.826320 0.170560
v -0.166126 0.786012 0.170560
v -0.127312 0.739945 0.170560
v 0.127312 0.739945 0.170560
v 0.166126 0.786012 0.170560
v -0.118540 0.572954 0.170560
v -0.098386 0.552800 0.170560
v 0.098386 0.552800 0.170560
v 0.118540 0.572954 0.170560
v -0.587349 0.619814 0.170560
v -0.587349 0.593108 0.170560
v 0.587349 0.593108 0.170560
v 0.587349 0.619814 0.170560
v -0.126683 0.659329 0.170560
v -0.126683 0.639174 0.170560
v 0.126683 0.639174 0.170560
v 0.126683 0.659329 0.170560
v -0.587349 0.774495 0.170560
v -0.587349 0.659329 0.170560
v -0.498095 0.659329 0.170560
v -0.498095 0.774495 0.170560
v -0.463545 0.734187 0.170560
v -0.463545 0.702516 0.170560
v -0.388687 0.702516 0.170560
v -0.388687 0.734187 0.170560
v -0.498095 0.094564 0.170560
v -0.498095 0.552799 0.170560
v -0.590229 0.552799 0.170560
v -0.343992 0.005758 0.170560
v -0.590229 0.005758 0.170560
v -0.590229 0.097892 0.170560
v 0.587349 0.774495 0.170560
v 0.587349 0.659329 0.170560
v 0.498095 0.659329 0.170560
v 0.498095 0.774495 0.170560
v 0.463545 0.734187 0.170560
v 0.463545 0.702516 0.170560
v 0.388687 0.702516 0.170560
v 0.388687 0.734187 0.170560
v 0.498095 0.094564 0.170560
v 0.498095 0.552799 0.170560
v 0.590229 0.552799 0.170560
v 0.343992 0.005758 0.170560
v 0.590229 0.005758 0.170560
v 0.590229 0.097892 0.170560
v -0.033695 0.994356 0.088506
v -0.296586 0.863688 0.134112
v 0.102220 0.863784 0.168491
v 0.296587 0.863688 0.134112
v 0.033695 0.994356 0.088506
v -0.102171 0.863784 0.168491
v -0.040203 0.996505 -0.080637
v -0.310950 0.858951 -0.129452
v 0.102001 0.858951 -0.166259
v 0.310950 0.858951 -0.129452
v 0.040203 0.996505 -0.080637
v -0.101953 0.858951 -0.166259
v -0.498095 0.832078 -0.170621
v -0.636295 0.826320 -0.164863
v -0.630537 0.806166 -0.164863
v -0.405962 0.806166 -0.164863
v -0.287916 0.673724 -0.164863
v -0.023033 0.673724 -0.164863
v -0.023033 0.716912 -0.164863
v -0.138200 0.716912 -0.164863
v -0.215937 0.806166 -0.164863
v -0.023033 0.806166 -0.164863
v -0.017275 0.826320 -0.164863
v 0.498095 0.832078 -0.170621
v 0.636295 0.826320 -0.164863
v 0.630537 0.806166 -0.164863
v 0.405962 0.806166 -0.164863
v 0.287916 0.673724 -0.164863
v 0.023033 0.673724 -0.164863
v 0.023033 0.716912 -0.164863
v 0.138200 0.716912 -0.164863
v 0.215937 0.806166 -0.164863
v 0.023033 0.806166 -0.164863
v 0.017275 0.826320 -0.164863
v -0.172750 0.791770 -0.164863
v -0.124231 0.734187 -0.164863
v 0.124231 0.734187 -0.164863
v 0.172750 0.791770 -0.164863
v -0.126683 0.578712 -0.164863
v -0.095012 0.547041 -0.164863
v 0.095012 0.547041 -0.164863
v 0.126683 0.578712 -0.164863
v -0.587349 0.625573 -0.164863
v -0.587349 0.587349 -0.164863
v 0.587349 0.587349 -0.164863
v 0.587349 0.625573 -0.164863
v -0.126683 0.665087 -0.164863
v -0.126683 0.633416 -0.164863
v 0.126683 0.633416 -0.164863
v 0.126683 0.665087 -0.164863
v -0.587349 0.780254 -0.164863
v -0.587349 0.653570 -0.164863
v -0.498095 0.653570 -0.164863
v -0.498095 0.780254 -0.164863
v -0.463545 0.739945 -0.164863
v -0.463545 0.696758 -0.164863
v -0.388687 0.696758 -0.164863
v -0.388687 0.739945 -0.164863
v -0.487348 0.095017 -0.164863
v -0.498095 0.558558 -0.164863
v -0.590229 0.558558 -0.164863
v -0.322466 0.000000 -0.164863
v -0.590229 0.000000 -0.164863
v -0.595987 0.097892 -0.170621
v 0.587349 0.780254 -0.164863
v 0.587349 0.653570 -0.164863
v 0.498095 0.653570 -0.164863
v 0.498095 0.780254 -0.164863
v 0.463545 0.739945 -0.164863
v 0.463545 0.696758 -0.164863
v 0.388687 0.696758 -0.164863
v 0.388687 0.739945 -0.164863
v 0.487348 0.095017 -0.164863
v 0.498095 0.558558 -0.164863
v 0.590229 0.558558 -0.164863
v 0.322466 0.000000 -0.164863
v 0.590229 0.000000 -0.164863
v 0.595987 0.097892 -0.170621
v -0.498095 0.832078 0.170560
v -0.636295 0.826320 0.164802
v -0.630537 0.806166 0.164802
v -0.405962 0.806166 0.164802
v -0.287916 0.673724 0.164802
v -0.023033 0.673724 0.164802
v -0.023033 0.716912 0.164802
v -0.138200 0.716912 0.164802
v -0.215937 0.806166 0.164802
v -0.023033 0.806166 0.164802
v -0.017275 0.826320 0.164802
v 0.498095 0.832078 0.170560
v 0.636295 0.826320 0.164802
v 0.630537 0.806166 0.164802
v 0.405962 0.806166 0.164802
v 0.287916 0.673724 0.164802
v 0.023033 0.673724 0.164802
v 0.023033 0.716912 0.164802
v 0.138200 0.716912 0.164802
v 0.215937 0.806166 0.164802
v 0.023033 0.806166 0.164802
v 0.017275 0.826320 0.164802
v -0.172750 0.791770 0.164802
v -0.124231 0.734187 0.164802
v 0.124231 0.734187 0.164802
v 0.172750 0.791770 0.164802
v -0.126683 0.578712 0.164802
v -0.095012 0.547041 0.164802
v 0.095012 0.547041 0.164802
v 0.126683 0.578712 0.164802
v -0.587349 0.625573 0.164802
v -0.587349 0.587349 0.164802
v 0.587349 0.587349 0.164802
v 0.587349 0.625573 0.164802
v -0.126683 0.665087 0.164802
v -0.126683 0.633416 0.164802
v 0.126683 0.633416 0.164802
v 0.126683 0.665087 0.164802
v -0.587349 0.780254 0.164802
v -0.587349 0.653570 0.164802
v -0.498095 0.653570 0.164802
v -0.498095 0.780254 0.164802
v -0.463545 0.739945 0.164802
v -0.463545 0.696758 0.164802
v -0.388687 0.696758 0.164802
v -0.388687 0.739945 0.164802
v -0.487348 0.095017 0.164802
v -0.498095 0.558558 0.164802
v -0.590229 0.558558 0.164802
v -0.322466 0.000000 0.164802
v -0.590229 0.000000 0.164802
v -0.595987 0.097892 0.170560
v 0.587349 0.780254 0.164802
v 0.587349 0.653570 0.164802
v 0.498095 0.653570 0.164802
v 0.498095 0.780254 0.164802
v 0.463545 0.739945 0.164802
v 0.463545 0.696758 0.164802
v 0.388687 0.696758 0.164802
v 0.388687 0.739945 0.164802
v 0.487348 0.095017 0.164802
v 0.498095 0.558558 0.164802
v 0.590229 0.558558 0.164802
v 0.322466 0.000000 0.164802
v 0.590229 0.000000 0.164802
v 0.595987 0.097892 0.170560
v -0.040203 0.996505 0.080244
v -0.310950 0.858951 0.129059
v 0.102001 0.858951 0.165866
v 0.310950 0.858951 0.129060
v 0.040203 0.996505 0.080244
v -0.101953 0.858951 0.165866
v 0.102504 0.858951 -0.172017
v 0.311552 0.861515 -0.127566
v -0.311552 0.861515 -0.127566
v -0.102456 0.858951 -0.172017
v -0.636295 0.811924 -0.164863
v -0.396595 0.801679 -0.164863
v -0.297284 0.678211 -0.164863
v -0.017275 0.679483 -0.164863
v -0.017275 0.711154 -0.164863
v -0.138200 0.716912 -0.170621
v -0.215937 0.806166 -0.170621
v -0.017275 0.811924 -0.164863
v 0.636295 0.811924 -0.164863
v 0.396595 0.801679 -0.164863
v 0.297284 0.678211 -0.164863
v 0.017275 0.679483 -0.164863
v 0.017275 0.711154 -0.164863
v 0.138200 0.716912 -0.170621
v 0.215937 0.806166 -0.170621
v 0.017275 0.811924 -0.164863
v -0.133700 0.738590 -0.164863
v 0.133700 0.738590 -0.164863
v 0.174798 0.787367 -0.164863
v -0.174798 0.787367 -0.164863
v -0.104843 0.551113 -0.164863
v 0.104843 0.551113 -0.164863
v 0.128370 0.574640 -0.164863
v -0.128370 0.574640 -0.164863
v -0.593108 0.593108 -0.164863
v 0.593108 0.593108 -0.164863
v 0.593108 0.619814 -0.164863
v -0.593108 0.619814 -0.164863
v -0.132442 0.639174 -0.164863
v 0.132442 0.639174 -0.164863
v 0.132442 0.659329 -0.164863
v -0.132442 0.659329 -0.164863
v -0.593108 0.659329 -0.164863
v -0.492337 0.659329 -0.164863
v -0.492337 0.774495 -0.164863
v -0.593108 0.774495 -0.164863
v -0.469304 0.702516 -0.164863
v -0.382929 0.702516 -0.164863
v -0.382929 0.734187 -0.164863
v -0.469304 0.734187 -0.164863
v -0.492337 0.552800 -0.164863
v -0.595987 0.558558 -0.170621
v -0.492337 0.103650 -0.164863
v -0.322466 0.000000 -0.170621
v -0.595987 0.000000 -0.170621
v 0.593108 0.659329 -0.164863
v 0.492337 0.659329 -0.164863
v 0.492337 0.774495 -0.164863
v 0.593108 0.774495 -0.164863
v 0.469304 0.702516 -0.164863
v 0.382929 0.702516 -0.164863
v 0.382929 0.734187 -0.164863
v 0.469304 0.734187 -0.164863
v 0.492337 0.552800 -0.164863
v 0.595987 0.558558 -0.170621
v 0.492337 0.103650 -0.164863
v 0.322466 0.000000 -0.170621
v 0.595987 0.000000 -0.170621
v -0.636295 0.811924 0.164802
v -0.396595 0.801679 0.164802
v -0.297284 0.678211 0.164802
v -0.017275 0.679483 0.164802
v -0.017275 0.711154 0.164802
v -0.138200 0.716912 0.170560
v -0.215937 0.806166 0.170560
v -0.017275 0.811924 0.164802
v 0.636295 0.811924 0.164802
v 0.396595 0.801679 0.164802
v 0.297284 0.678211 0.164802
v 0.017275 0.679483 0.164802
v 0.017275 0.711154 0.164802
v 0.138200 0.716912 0.170560
v 0.215937 0.806166 0.170560
v 0.017275 0.811924 0.164802
v -0.133700 0.738590 0.164802
v 0.133700 0.738590 0.164802
v 0.174798 0.787367 0.164802
v -0.174798 0.787367 0.164802
v -0.104843 0.551113 0.164802
v 0.104843 0.551113 0.164802
v 0.128370 0.574640 0.164802
v -0.128370 0.574640 0.164802
v -0.593108 0.593108 0.164802
v 0.593108 0.593108 0.164802
v 0.593108 0.619814 0.164802
v -0.593108 0.619814 0.164802
v -0.132442 0.639174 0.164802
v 0.132442 0.639174 0.164802
v 0.132442 0.659329 0.164802
v -0.132442 0.659329 0.164802
v -0.593108 0.659329 0.164802
v -0.492337 0.659329 0.164802
v -0.492337 0.774495 0.164802
v -0.593108 0.774495 0.164802
v -0.469304 0.702516 0.164802
v -0.382929 0.702516 0.164802
v -0.382929 0.734187 0.164802
v -0.469304 0.734187 0.164802
v -0.492337 0.552799 0.164802
v -0.595987 0.558558 0.170560
v -0.492337 0.103650 0.164802
v -0.322466 0.000000 0.170560
v -0.595987 0.000000 0.170560
v 0.593108 0.659329 0.164802
v 0.492337 0.659329 0.164802
v 0.492337 0.774495 0.164802
v 0.593108 0.774495 0.164802
v 0.469304 0.702516 0.164802
v 0.382929 0.702516 0.164802
v 0.382929 0.734187 0.164802
v 0.469304 0.734187 0.164802
v 0.492337 0.552799 0.164802
v 0.595987 0.558558 0.170560
v 0.492337 0.103650 0.164802
v 0.322466 0.000000 0.170560
v 0.595987 0.000000 0.170560
v 0.102504 0.858951 0.171624
v -0.023033 0.832078 0.164802
v -0.023033 0.832078 -0.164863
v -0.630537 0.832078 -0.164863
v -0.630537 0.832078 0.164802
v 0.630537 0.832078 0.164802
v 0.630537 0.832078 -0.164863
v 0.023033 0.832078 0.164802
v 0.023033 0.832078 -0.164863
v 0.311552 0.861515 0.127174
v -0.311552 0.861515 0.127174
v -0.102456 0.858951 0.171624
v -0.400204 0.806166 -0.170621
v -0.293675 0.673724 -0.170621
v 0.400204 0.806166 -0.170621
v 0.293675 0.673724 -0.170621
v -0.178508 0.791770 -0.170621
v -0.129990 0.734187 -0.170621
v 0.129990 0.734187 -0.170621
v 0.178508 0.791770 -0.170621
v -0.132442 0.578712 -0.170621
v -0.100771 0.547041 -0.170621
v 0.100771 0.547041 -0.170621
v 0.132442 0.578712 -0.170621
v -0.400204 0.806166 0.170560
v -0.293675 0.673724 0.170560
v 0.400204 0.806166 0.170560
v 0.293675 0.673724 0.170560
v -0.178508 0.791770 0.170560
v -0.129990 0.734187 0.170560
v 0.129990 0.734187 0.170560
v 0.178508 0.791770 0.170560
v -0.132442 0.578712 0.170560
v -0.100771 0.547041 0.170560
v 0.100771 0.547041 0.170560
v 0.132442 0.578712 0.170560
v 0.595987 0.552800 -0.164863
v 0.595987 0.552799 0.164802
v 0.595987 0.005758 0.164802
v 0.595987 0.005758 -0.164863
v -0.595987 0.552800 -0.164863
v -0.595987 0.552799 0.164802
v -0.595987 0.005758 0.164802
v -0.595987 0.005758 -0.164863
v 0.017275 0.673724 -0.170621
v 0.017275 0.716912 -0.170621
v -0.593108 0.625573 -0.170621
v -0.593108 0.587349 -0.170621
v 0.593108 0.587349 -0.170621
v 0.593108 0.625573 -0.170621
v 0.132442 0.633416 -0.170621
v 0.132442 0.665087 -0.170621
v -0.593108 0.780254 -0.170621
v -0.593108 0.653570 -0.170621
v -0.492337 0.653570 -0.170621
v -0.492337 0.780254 -0.170621
v -0.469304 0.739945 -0.170621
v -0.469304 0.696758 -0.170621
v -0.382929 0.696758 -0.170621
v -0.382929 0.739945 -0.170621
v 0.593108 0.780254 -0.170621
v 0.593108 0.653570 -0.170621
v 0.492337 0.653570 -0.170621
v 0.492337 0.780254 -0.170621
v 0.469304 0.739945 -0.170621
v 0.469304 0.696758 -0.170621
v 0.382929 0.696758 -0.170621
v 0.382929 0.739945 -0.170621
v 0.017275 0.673724 0.170560
v 0.017275 0.716912 0.170560
v -0.593108 0.625573 0.170560
v -0.593108 0.587349 0.170560
v 0.593108 0.587349 0.170560
v 0.593108 0.625573 0.170560
v 0.132442 0.633416 0.170560
v 0.132442 0.665087 0.170560
v -0.593108 0.780254 0.170560
v -0.593108 0.653570 0.170560
v -0.492337 0.653570 0.170560
v -0.492337 0.780254 0.170560
v -0.469304 0.739945 0.170560
v -0.469304 0.696758 0.170560
v -0.382929 0.696758 0.170560
v -0.382929 0.739945 0.170560
v 0.593108 0.780254 0.170560
v 0.593108 0.653570 0.170560
v 0.492337 0.653570 0.170560
v 0.492337 0.780254 0.170560
v 0.469304 0.739945 0.170560
v 0.469304 0.696758 0.170560
v 0.382929 0.696758 0.170560
v 0.382929 0.739945 0.170560
v -0.029289 0.999070 -0.079814
v -0.316708 0.858951 -0.134285
v 0.316708 0.858951 -0.134285
v 0.029289 0.999070 -0.079814
v -0.636295 0.806166 -0.170621
v -0.636295 0.832078 -0.170621
v 0.636295 0.806166 -0.170621
v 0.636295 0.832078 -0.170621
v -0.636295 0.806166 0.170560
v -0.636295 0.832078 0.170560
v 0.636295 0.806166 0.170560
v 0.636295 0.832078 0.170560
v -0.029289 0.999070 0.079421
v -0.316708 0.858951 0.133892
v 0.316708 0.858951 0.133892
v 0.029289 0.999070 0.079421
v -0.492337 0.097892 -0.170621
v -0.492337 0.558558 -0.170621
v 0.492337 0.097892 -0.170621
v 0.492337 0.558558 -0.170621
v -0.492337 0.097892 0.170560
v -0.492337 0.558558 0.170560
v 0.492337 0.097892 0.170560
v 0.492337 0.558558 0.170560
v 0.035048 0.999070 -0.085572
v -0.035048 0.999070 -0.085572
v 0.035048 0.999070 0.085180
v -0.035048 0.999070 0.085180
v -0.017275 0.673724 -0.170621
v -0.017275 0.716912 -0.170621
v -0.017275 0.806166 -0.170621
v 0.017275 0.806166 -0.170621
v -0.017275 0.832078 -0.170621
v -0.017275 0.673724 0.170560
v 0.017275 0.832078 -0.170621
v -0.017275 0.716912 0.170560
v -0.017275 0.806166 0.170560
v 0.017275 0.806166 0.170560
v -0.017275 0.832078 0.170560
v 0.017275 0.832078 0.170560
v -0.132442 0.665087 -0.170621
v -0.132442 0.633416 -0.170621
v -0.132442 0.665087 0.170560
v -0.132442 0.633416 0.170560
vn -0.1433 0.5705 -0.8087
vn -0.0000 0.5224 -0.8527
vn 0.1433 0.5706 -0.8086
vn -0.0000 -0.0000 -1.0000
vn -0.0000 -0.0000 1.0000
vn -0.0000 1.0000 -0.0000
vn -0.7792 -0.6268 -0.0000
vn 1.0000 -0.0000 -0.0000
vn -1.0000 -0.0000 -0.0000
vn -0.0000 -1.0000 -0.0000
vn 0.7541 0.6568 -0.0000
vn -0.4993 0.8664 -0.0000
vn 0.7792 -0.6268 -0.0000
vn -0.7541 0.6568 -0.0000
vn 0.4993 0.8664 -0.0000
vn -0.7647 -0.6443 -0.0000
vn 0.7647 -0.6443 -0.0000
vn -0.7071 -0.7071 -0.0000
vn 0.7071 -0.7071 -0.0000
vn -0.1433 0.5705 0.8087
vn -0.0000 0.5224 0.8527
vn 0.1433 0.5706 0.8086
vn 0.4454 0.8953 -0.0000
vn -0.4454 0.8953 -0.0000
vn -0.1283 0.5469 -0.8273
vn 0.1464 0.5442 -0.8261
vn 0.1427 0.5685 -0.8102
vn -0.0000 0.5765 -0.8171
vn -0.1427 0.5685 -0.8102
vn -0.0000 0.5439 -0.8391
vn -0.1427 0.5685 0.8102
vn 0.1427 0.5685 0.8102
vn 0.1283 0.5469 0.8273
vn -0.0000 0.5765 0.8171
vn -0.1464 0.5441 0.8261
vn -0.0000 0.5440 0.8391
vn -0.7647 -0.6444 -0.0000
vn 0.7647 -0.6444 -0.0000
vn 0.1283 0.5469 -0.8273
vn -0.1464 0.5441 -0.8261
vn -0.0000 0.5440 -0.8391
vn -0.1283 0.5469 0.8273
vn 0.1464 0.5441 0.8261
vn -0.0000 0.5439 0.8391
vt 0.016734 0.033809
vt 0.046119 0.965025
vt 0.319896 0.034975
vt 0.953871 0.965025
vt 0.983267 0.033808
vt 0.680182 0.034975
vt 0.000000 0.000000
vt 0.021781 0.900000
vt 0.975649 0.100000
vt 0.024351 0.100000
vt 0.031576 0.818182
vt 0.965926 0.181818
vt 0.034074 0.181818
vt 0.004854 0.849350
vt 0.995146 0.150650
vt 0.004854 0.150650
vt 0.021739 0.818182
vt 0.978261 0.181818
vt 0.021739 0.181818
vt 0.057143 0.954545
vt 0.942857 0.045454
vt 0.057143 0.045454
vt 0.066667 0.866667
vt 0.933334 0.133333
vt 0.066667 0.133333
vt 0.066667 0.866667
vt 0.066667 0.133333
vt 0.933333 0.133333
vt 0.021781 0.900000
vt 0.031576 0.818182
vt 0.066667 0.866667
vt 0.057143 1.000000
vt 0.942857 1.000000
vt 0.021739 1.000000
vt 0.978261 1.000000
vt 0.000000 0.133333
vt 0.000000 0.866667
vt 0.000000 0.150650
vt 0.000000 0.849350
vt 0.933333 0.000000
vt 0.066667 0.000000
vt 0.995146 0.000000
vt 0.004854 0.000000
vt 1.000000 0.866667
vt 1.000000 0.133333
vt 1.000000 0.133333
vt 1.000000 0.150650
vt 1.000000 0.849350
vt 1.000000 0.150650
vt 0.066667 1.000000
vt 0.933333 1.000000
vt 0.933333 1.000000
vt 0.004854 1.000000
vt 0.995146 1.000000
vt 0.000000 0.181818
vt 0.000000 0.818182
vt 0.978261 0.000000
vt 0.021739 0.000000
vt 1.000000 0.818182
vt 1.000000 0.181818
vt 1.000000 0.181818
vt 0.000000 0.045454
vt 0.000000 0.954545
vt 0.942857 0.000000
vt 0.057143 0.000000
vt 1.000000 0.954545
vt 1.000000 0.045454
vt 0.066667 0.000000
vt 0.066667 1.000000
vt 0.933333 1.000000
vt 0.933333 1.000000
vt 0.000000 0.076474
vt 0.000000 0.923527
vt 0.000000 0.923527
vt 0.977851 0.000000
vt 0.022149 0.000000
vt 1.000000 0.923527
vt 1.000000 0.076474
vt 1.000000 0.076474
vt 0.016129 1.000000
vt 0.983871 1.000000
vt 0.000000 0.128565
vt 0.000000 0.871435
vt 0.971429 0.000000
vt 0.028571 0.000000
vt 1.000000 0.871435
vt 1.000000 0.128565
vt 0.016734 0.033809
vt 0.319896 0.034975
vt 0.680182 0.034976
vt 0.983267 0.033808
vt 0.661033 0.000000
vt 0.339043 0.000000
vt 0.009091 0.000000
vt 1.000000 0.981696
vt 1.000000 0.018304
vt 0.000000 0.018304
vt 0.000000 0.981696
vt 0.082150 1.000000
vt 0.917850 1.000000
vt 0.917850 1.000000
vt 0.990909 0.000000
vt 0.661033 0.000000
vt 0.000000 1.000000
vt 0.661828 0.000000
vt 1.000000 1.000000
vt 1.000000 0.000000
vt 0.338249 0.000000
vt 0.978219 0.900000
vt 0.968424 0.818182
vt 0.995146 0.849350
vt 0.978261 0.818182
vt 0.942857 0.954546
vt 0.933333 0.866667
vt 0.933333 0.866667
vt 0.977851 0.000000
vt 0.066667 1.000000
vt 0.933333 0.000000
vt 0.066667 1.000000
vt 1.000000 0.923527
vt 1.000000 0.849350
vt 1.000000 0.818182
vt 0.000000 0.150650
vt 1.000000 0.866667
s 0
usemtl SBX_100
f 1/1/1 3/2/1 5/3/1
f 4/4/2 5/3/2 3/2/2
f 4/4/3 2/5/3 6/6/3
f 11/7/4 14/7/4 12/7/4
f 22/7/4 23/7/4 25/7/4
f 31/8/4 30/9/4 29/10/4
f 35/11/4 34/12/4 33/13/4
f 39/14/4 38/15/4 37/16/4
f 43/17/4 42/18/4 41/19/4
f 47/20/4 46/21/4 45/22/4
f 51/23/4 50/24/4 49/25/4
f 53/7/4 57/7/4 58/7/4
f 61/20/4 59/22/4 60/21/4
f 65/26/4 63/27/4 64/28/4
f 67/7/4 72/7/4 71/7/4
f 81/7/5 77/7/5 80/7/5
f 92/7/5 91/7/5 88/7/5
f 97/9/5 95/29/5 96/10/5
f 101/12/5 99/30/5 100/13/5
f 105/15/5 103/14/5 104/16/5
f 109/18/5 107/17/5 108/19/5
f 113/21/5 111/20/5 112/22/5
f 117/24/5 115/31/5 116/25/5
f 123/7/5 122/7/5 119/7/5
f 127/21/5 126/22/5 125/20/5
f 131/28/5 130/27/5 129/26/5
f 137/7/5 133/7/5 136/7/5
f 203/32/6 206/33/6 272/33/6
f 177/34/6 246/35/6 180/35/6
f 294/7/7 295/7/7 353/7/7
f 342/36/8 345/37/8 403/37/8
f 317/38/9 378/39/9 320/39/9
f 155/7/10 156/7/10 222/7/10
f 209/40/10 208/41/10 274/41/10
f 183/42/10 248/43/10 182/43/10
f 296/7/8 297/7/8 355/7/8
f 344/44/9 343/45/9 401/46/9
f 318/47/8 377/48/8 376/49/8
f 157/7/6 158/7/6 224/7/6
f 207/50/6 210/51/6 276/52/6
f 181/53/6 250/54/6 184/54/6
f 158/7/11 159/7/11 225/7/11
f 348/7/9 406/7/9 404/7/9
f 321/55/9 382/56/9 324/56/9
f 159/7/10 160/7/10 226/7/10
f 213/7/6 212/7/6 278/7/6
f 187/57/10 252/58/10 186/58/10
f 300/7/8 161/7/8 227/7/8
f 211/7/12 214/7/12 280/7/12
f 323/59/8 380/60/8 322/61/8
f 214/7/10 215/7/10 281/7/10
f 185/34/6 254/35/6 188/35/6
f 448/7/8 445/7/8 446/7/8
f 325/62/9 386/63/9 328/63/9
f 164/7/10 231/7/10 165/7/10
f 452/7/9 450/7/9 449/7/9
f 191/64/10 256/65/10 190/65/10
f 163/7/8 359/7/8 301/7/8
f 327/66/8 384/67/8 326/67/8
f 302/7/13 361/7/13 303/7/13
f 189/32/6 258/33/6 192/33/6
f 166/7/10 233/7/10 167/7/10
f 329/36/9 390/37/9 332/37/9
f 304/7/9 363/7/9 305/7/9
f 195/40/10 260/68/10 194/68/10
f 168/7/6 235/7/6 169/7/6
f 331/44/8 388/46/8 330/45/8
f 169/7/14 236/7/14 170/7/14
f 193/69/6 262/70/6 196/71/6
f 170/7/10 237/7/10 171/7/10
f 335/7/8 391/7/8 393/7/8
f 308/7/9 238/7/9 172/7/9
f 199/7/6 264/7/6 198/7/6
f 417/7/6 414/7/6 415/7/6
f 197/7/15 266/7/15 200/7/15
f 309/72/16 370/73/16 312/74/16
f 200/7/10 267/7/10 201/7/10
f 175/75/10 240/76/10 174/76/10
f 311/77/17 368/78/17 310/79/17
f 173/80/6 242/81/6 176/81/6
f 338/62/8 341/63/8 399/63/8
f 313/82/18 374/83/18 316/83/18
f 410/7/6 411/7/6 412/7/6
f 205/64/10 204/65/10 270/65/10
f 179/84/10 244/85/10 178/85/10
f 153/7/10 154/7/10 220/7/10
f 340/66/9 339/67/9 397/67/9
f 315/86/19 372/87/19 314/87/19
f 152/7/9 293/7/9 351/7/9
f 140/88/20 144/89/20 139/2/20
f 144/89/21 143/4/21 139/2/21
f 143/4/22 141/90/22 142/91/22
f 147/92/10 288/93/10 150/93/10
f 146/94/10 288/93/10 284/94/10
f 149/95/23 418/96/23 290/96/23
f 291/97/24 283/98/24 145/98/24
f 501/99/6 516/100/6 504/101/6
f 148/102/10 285/103/10 147/92/10
f 4/4/2 6/6/2 5/3/2
f 9/7/4 7/7/4 8/7/4
f 9/7/4 10/7/4 7/7/4
f 16/7/4 15/7/4 17/7/4
f 17/7/4 15/7/4 9/7/4
f 15/7/4 10/7/4 9/7/4
f 12/7/4 14/7/4 13/7/4
f 14/7/4 11/7/4 15/7/4
f 15/7/4 11/7/4 10/7/4
f 20/7/4 19/7/4 18/7/4
f 20/7/4 18/7/4 21/7/4
f 27/7/4 28/7/4 26/7/4
f 28/7/4 20/7/4 26/7/4
f 26/7/4 20/7/4 21/7/4
f 23/7/4 24/7/4 25/7/4
f 25/7/4 26/7/4 22/7/4
f 26/7/4 21/7/4 22/7/4
f 31/8/4 32/109/4 30/9/4
f 35/11/4 36/110/4 34/12/4
f 39/14/4 40/111/4 38/15/4
f 43/17/4 44/112/4 42/18/4
f 47/20/4 48/113/4 46/21/4
f 51/23/4 52/114/4 50/24/4
f 54/7/4 55/7/4 58/7/4
f 55/7/4 53/7/4 58/7/4
f 53/7/4 56/7/4 57/7/4
f 61/20/4 60/21/4 62/113/4
f 65/26/4 64/28/4 66/115/4
f 68/7/4 72/7/4 69/7/4
f 69/7/4 72/7/4 67/7/4
f 67/7/4 71/7/4 70/7/4
f 73/7/5 81/7/5 83/7/5
f 83/7/5 81/7/5 82/7/5
f 75/7/5 73/7/5 74/7/5
f 76/7/5 73/7/5 75/7/5
f 80/7/5 78/7/5 79/7/5
f 76/7/5 81/7/5 73/7/5
f 80/7/5 77/7/5 78/7/5
f 76/7/5 77/7/5 81/7/5
f 84/7/5 94/7/5 92/7/5
f 94/7/5 93/7/5 92/7/5
f 86/7/5 85/7/5 84/7/5
f 87/7/5 86/7/5 84/7/5
f 91/7/5 90/7/5 89/7/5
f 87/7/5 84/7/5 92/7/5
f 91/7/5 89/7/5 88/7/5
f 87/7/5 92/7/5 88/7/5
f 97/9/5 98/109/5 95/29/5
f 101/12/5 102/110/5 99/30/5
f 105/15/5 106/111/5 103/14/5
f 109/18/5 110/112/5 107/17/5
f 113/21/5 114/113/5 111/20/5
f 117/24/5 118/114/5 115/31/5
f 119/7/5 120/7/5 124/7/5
f 120/7/5 121/7/5 124/7/5
f 124/7/5 123/7/5 119/7/5
f 127/21/5 125/20/5 128/113/5
f 131/28/5 129/26/5 132/115/5
f 133/7/5 138/7/5 134/7/5
f 134/7/5 138/7/5 135/7/5
f 138/7/5 133/7/5 137/7/5
f 203/32/6 272/33/6 269/32/6
f 177/34/6 243/34/6 246/35/6
f 294/7/7 353/7/7 352/7/7
f 342/36/8 403/37/8 400/36/8
f 317/38/9 375/123/9 378/39/9
f 155/7/10 222/7/10 221/7/10
f 209/40/10 274/41/10 275/118/10
f 183/42/10 249/42/10 248/43/10
f 296/7/8 355/7/8 354/7/8
f 344/44/9 401/46/9 402/124/9
f 318/47/8 319/121/8 377/48/8
f 157/7/6 224/7/6 223/7/6
f 207/50/6 276/52/6 273/119/6
f 181/53/6 247/53/6 250/54/6
f 158/7/11 225/7/11 224/7/11
f 348/7/9 404/7/9 346/7/9
f 321/55/9 379/55/9 382/56/9
f 159/7/10 226/7/10 225/7/10
f 213/7/6 278/7/6 279/7/6
f 187/57/10 253/57/10 252/58/10
f 300/7/8 227/7/8 358/7/8
f 211/7/12 280/7/12 277/7/12
f 323/59/8 381/122/8 380/60/8
f 214/7/10 281/7/10 280/7/10
f 185/34/6 251/34/6 254/35/6
f 448/7/8 446/7/8 447/7/8
f 325/62/9 383/62/9 386/63/9
f 164/7/10 230/7/10 231/7/10
f 452/7/9 451/7/9 450/7/9
f 191/64/10 257/64/10 256/65/10
f 163/7/8 229/7/8 359/7/8
f 327/66/8 385/66/8 384/67/8
f 302/7/13 360/7/13 361/7/13
f 189/32/6 255/32/6 258/33/6
f 166/7/10 232/7/10 233/7/10
f 329/36/9 387/36/9 390/37/9
f 304/7/9 362/7/9 363/7/9
f 195/40/10 261/40/10 260/68/10
f 168/7/6 234/7/6 235/7/6
f 331/44/8 389/124/8 388/46/8
f 169/7/14 235/7/14 236/7/14
f 193/69/6 259/117/6 262/70/6
f 170/7/10 236/7/10 237/7/10
f 335/7/8 333/7/8 391/7/8
f 308/7/9 366/7/9 238/7/9
f 199/7/6 265/7/6 264/7/6
f 417/7/6 416/7/6 414/7/6
f 197/7/15 263/7/15 266/7/15
f 309/72/16 367/72/16 370/73/16
f 200/7/10 266/7/10 267/7/10
f 175/75/10 241/116/10 240/76/10
f 311/77/17 369/120/17 368/78/17
f 173/80/6 239/80/6 242/81/6
f 338/62/8 399/63/8 396/62/8
f 313/82/18 371/82/18 374/83/18
f 410/7/6 412/7/6 413/7/6
f 205/64/10 270/65/10 271/64/10
f 179/84/10 245/84/10 244/85/10
f 153/7/10 220/7/10 219/7/10
f 340/66/9 397/67/9 398/66/9
f 315/86/19 373/86/19 372/87/19
f 152/7/9 351/7/9 218/7/9
f 144/89/21 141/90/21 143/4/21
f 147/92/10 285/103/10 288/93/10
f 146/94/10 150/93/10 288/93/10
f 149/95/23 287/95/23 418/96/23
f 291/97/24 419/97/24 283/98/24
f 501/99/6 513/99/6 516/100/6
f 148/102/10 286/102/10 285/103/10
usemtl SBX_43E
f 1/1/25 526/104/25 3/2/25
f 2/5/26 289/105/26 6/6/26
f 2/5/27 525/106/27 503/107/27
f 3/2/28 525/106/28 4/4/28
f 1/1/29 292/108/29 502/7/29
f 6/6/30 292/108/30 5/3/30
f 8/7/4 506/7/4 151/7/4
f 7/7/4 10/7/4 421/7/4
f 8/7/4 7/7/4 505/7/4
f 11/7/4 422/7/4 421/7/4
f 12/7/4 529/7/4 422/7/4
f 12/7/4 13/7/4 530/7/4
f 13/7/4 14/7/4 298/7/4
f 14/7/4 15/7/4 299/7/4
f 16/7/4 531/7/4 299/7/4
f 16/7/4 17/7/4 533/7/4
f 17/7/4 9/7/4 151/7/4
f 19/7/4 162/7/4 508/7/4
f 18/7/4 423/7/4 21/7/4
f 19/7/4 507/7/4 18/7/4
f 22/7/4 423/7/4 424/7/4
f 23/7/4 424/7/4 453/7/4
f 23/7/4 454/7/4 24/7/4
f 24/7/4 306/7/4 25/7/4
f 25/7/4 307/7/4 26/7/4
f 27/7/4 307/7/4 532/7/4
f 27/7/4 535/7/4 28/7/4
f 28/7/4 162/7/4 20/7/4
f 31/8/4 426/7/4 425/104/4
f 30/9/4 426/7/4 29/10/4
f 32/109/4 427/107/4 30/9/4
f 31/8/4 428/106/4 32/109/4
f 35/11/4 430/7/4 429/104/4
f 34/12/4 430/7/4 33/13/4
f 36/110/4 431/107/4 34/12/4
f 35/11/4 432/106/4 36/110/4
f 37/16/4 455/104/4 39/14/4
f 38/15/4 456/7/4 37/16/4
f 40/111/4 457/107/4 38/15/4
f 39/14/4 458/106/4 40/111/4
f 41/19/4 541/104/4 43/17/4
f 42/18/4 542/7/4 41/19/4
f 44/112/4 459/107/4 42/18/4
f 43/17/4 460/106/4 44/112/4
f 47/20/4 462/7/4 461/104/4
f 46/21/4 462/7/4 45/22/4
f 48/113/4 463/107/4 46/21/4
f 47/20/4 464/106/4 48/113/4
f 49/25/4 465/104/4 51/23/4
f 50/24/4 466/7/4 49/25/4
f 50/24/4 468/106/4 467/107/4
f 51/23/4 468/106/4 52/114/4
f 55/7/4 517/7/4 53/7/4
f 55/7/4 334/7/4 518/7/4
f 56/7/4 517/7/4 336/7/4
f 56/7/4 337/7/4 57/7/4
f 57/7/4 202/7/4 58/7/4
f 54/7/4 202/7/4 334/7/4
f 61/20/4 469/104/4 470/7/4
f 60/21/4 59/22/4 470/7/4
f 62/113/4 60/21/4 471/107/4
f 61/20/4 62/113/4 472/106/4
f 63/27/4 65/26/4 473/104/4
f 64/28/4 63/27/4 474/7/4
f 64/28/4 475/107/4 476/106/4
f 66/115/4 476/106/4 473/104/4
f 69/7/4 67/7/4 519/7/4
f 68/7/4 69/7/4 520/7/4
f 70/7/4 349/7/4 519/7/4
f 70/7/4 71/7/4 350/7/4
f 71/7/4 72/7/4 216/7/4
f 68/7/4 347/7/4 216/7/4
f 74/7/5 73/7/5 217/7/5
f 75/7/5 509/7/5 433/7/5
f 75/7/5 74/7/5 510/7/5
f 77/7/5 76/7/5 433/7/5
f 78/7/5 77/7/5 434/7/5
f 79/7/5 78/7/5 534/7/5
f 79/7/5 536/7/5 356/7/5
f 80/7/5 356/7/5 357/7/5
f 82/7/5 81/7/5 357/7/5
f 83/7/5 82/7/5 537/7/5
f 83/7/5 539/7/5 217/7/5
f 85/7/5 228/7/5 84/7/5
f 86/7/5 435/7/5 511/7/5
f 86/7/5 512/7/5 85/7/5
f 88/7/5 435/7/5 87/7/5
f 89/7/5 436/7/5 88/7/5
f 90/7/5 477/7/5 89/7/5
f 90/7/5 364/7/5 478/7/5
f 91/7/5 365/7/5 364/7/5
f 93/7/5 365/7/5 92/7/5
f 94/7/5 538/7/5 93/7/5
f 94/7/5 228/7/5 540/7/5
f 95/29/5 438/7/5 96/10/5
f 96/10/5 439/107/5 97/9/5
f 98/109/5 439/107/5 440/106/5
f 98/109/5 437/104/5 95/29/5
f 99/30/5 442/7/5 100/13/5
f 100/13/5 443/107/5 101/12/5
f 102/110/5 443/107/5 444/106/5
f 102/110/5 441/104/5 99/30/5
f 103/14/5 480/7/5 104/16/5
f 104/16/5 481/107/5 105/15/5
f 105/15/5 482/106/5 106/111/5
f 106/111/5 479/104/5 103/14/5
f 107/17/5 544/7/5 108/19/5
f 108/19/5 483/107/5 109/18/5
f 109/18/5 484/106/5 110/112/5
f 110/112/5 543/104/5 107/17/5
f 111/20/5 486/7/5 112/22/5
f 112/22/5 487/107/5 113/21/5
f 114/113/5 487/107/5 488/106/5
f 114/113/5 485/104/5 111/20/5
f 116/25/5 489/104/5 490/7/5
f 116/25/5 491/107/5 117/24/5
f 117/24/5 492/106/5 118/114/5
f 118/114/5 489/104/5 115/31/5
f 120/7/5 521/7/5 522/7/5
f 120/7/5 392/7/5 121/7/5
f 122/7/5 521/7/5 119/7/5
f 122/7/5 395/7/5 394/7/5
f 123/7/5 268/7/5 395/7/5
f 121/7/5 268/7/5 124/7/5
f 125/20/5 126/22/5 494/7/5
f 126/22/5 127/21/5 495/107/5
f 128/113/5 496/106/5 495/107/5
f 128/113/5 125/20/5 493/104/5
f 130/27/5 498/7/5 497/104/5
f 131/28/5 499/107/5 498/7/5
f 131/28/5 132/115/5 500/106/5
f 132/115/5 129/26/5 497/104/5
f 134/7/5 524/7/5 523/7/5
f 134/7/5 135/7/5 405/7/5
f 136/7/5 133/7/5 523/7/5
f 136/7/5 407/7/5 408/7/5
f 137/7/5 408/7/5 282/7/5
f 135/7/5 138/7/5 282/7/5
f 140/88/31 528/104/31 514/7/31
f 142/91/32 409/105/32 515/107/32
f 142/91/33 527/106/33 143/4/33
f 139/2/34 527/106/34 528/104/34
f 140/88/35 420/108/35 144/89/35
f 141/90/36 420/108/36 409/105/36
f 148/102/10 289/105/10 503/107/10
f 146/94/10 292/108/10 150/93/10
f 147/92/10 292/108/10 289/105/10
f 153/7/10 505/7/10 421/7/10
f 156/7/10 155/7/10 422/7/10
f 157/7/6 530/7/6 298/7/6
f 159/7/11 158/7/11 298/7/11
f 160/7/10 159/7/10 299/7/10
f 164/7/10 423/7/10 507/7/10
f 167/7/10 424/7/10 166/7/10
f 168/7/6 306/7/6 454/7/6
f 170/7/14 306/7/14 169/7/14
f 171/7/10 307/7/10 170/7/10
f 174/76/10 427/107/10 175/75/10
f 176/81/6 425/104/6 173/80/6
f 178/85/10 431/107/10 179/84/10
f 180/35/6 429/104/6 177/34/6
f 182/43/10 457/107/10 183/42/10
f 184/54/6 455/104/6 181/53/6
f 186/58/10 459/107/10 187/57/10
f 188/35/6 541/104/6 185/34/6
f 190/65/10 463/107/10 191/64/10
f 192/33/6 461/104/6 189/32/6
f 194/68/10 467/107/10 195/40/10
f 196/71/6 465/104/6 193/69/6
f 198/7/6 334/7/6 199/7/6
f 197/7/15 336/7/15 517/7/15
f 201/7/10 336/7/10 200/7/10
f 204/65/10 205/64/10 471/107/10
f 206/33/6 203/32/6 469/104/6
f 209/40/10 475/107/10 474/7/10
f 210/51/6 207/50/6 473/104/6
f 212/7/6 213/7/6 347/7/6
f 211/7/12 519/7/12 349/7/12
f 215/7/10 214/7/10 349/7/10
f 219/7/10 220/7/10 433/7/10
f 221/7/10 222/7/10 534/7/10
f 223/7/6 224/7/6 356/7/6
f 224/7/11 225/7/11 357/7/11
f 226/7/10 537/7/10 357/7/10
f 230/7/10 435/7/10 231/7/10
f 232/7/10 477/7/10 233/7/10
f 234/7/6 364/7/6 235/7/6
f 235/7/14 365/7/14 236/7/14
f 237/7/10 365/7/10 538/7/10
f 241/116/10 438/7/10 240/76/10
f 239/80/6 440/106/6 242/81/6
f 245/84/10 442/7/10 244/85/10
f 243/34/6 444/106/6 246/35/6
f 249/42/10 480/7/10 248/43/10
f 247/53/6 482/106/6 250/54/6
f 253/57/10 544/7/10 252/58/10
f 251/34/6 484/106/6 254/35/6
f 257/64/10 486/7/10 256/65/10
f 255/32/6 488/106/6 258/33/6
f 261/40/10 490/7/10 260/68/10
f 259/117/6 492/106/6 262/70/6
f 264/7/6 392/7/6 522/7/6
f 263/7/15 394/7/15 266/7/15
f 267/7/10 394/7/10 395/7/10
f 271/64/10 270/65/10 494/7/10
f 269/32/6 272/33/6 496/106/6
f 275/118/10 274/41/10 498/7/10
f 276/52/6 500/106/6 497/104/6
f 279/7/6 278/7/6 524/7/6
f 277/7/12 280/7/12 407/7/12
f 281/7/10 408/7/10 407/7/10
f 203/32/6 269/32/6 493/104/6
f 272/33/6 206/33/6 472/106/6
f 177/34/6 441/104/6 243/34/6
f 246/35/6 432/106/6 180/35/6
f 220/7/10 154/7/10 421/7/10
f 155/7/10 221/7/10 434/7/10
f 274/41/10 208/41/10 474/7/10
f 207/50/6 273/119/6 497/104/6
f 248/43/10 456/7/10 182/43/10
f 181/53/6 479/104/6 247/53/6
f 222/7/10 156/7/10 529/7/10
f 209/40/10 275/118/10 499/107/10
f 183/42/10 481/107/10 249/42/10
f 157/7/6 223/7/6 536/7/6
f 276/52/6 210/51/6 476/106/6
f 250/54/6 458/106/6 184/54/6
f 278/7/6 212/7/6 520/7/6
f 211/7/12 277/7/12 523/7/12
f 252/58/10 542/7/10 186/58/10
f 185/34/6 543/104/6 251/34/6
f 226/7/10 160/7/10 531/7/10
f 213/7/6 279/7/6 405/7/6
f 187/57/10 483/107/10 253/57/10
f 411/7/6 410/7/6 539/7/6
f 254/35/6 460/106/6 188/35/6
f 412/7/6 411/7/6 533/7/6
f 281/7/10 215/7/10 350/7/10
f 410/7/6 413/7/6 510/7/6
f 414/7/6 508/7/6 415/7/6
f 256/65/10 462/7/10 190/65/10
f 189/32/6 485/104/6 255/32/6
f 164/7/10 511/7/10 230/7/10
f 231/7/10 423/7/10 165/7/10
f 191/64/10 487/107/10 257/64/10
f 258/33/6 464/106/6 192/33/6
f 166/7/10 436/7/10 232/7/10
f 233/7/10 453/7/10 167/7/10
f 260/68/10 466/7/10 194/68/10
f 193/69/6 489/104/6 259/117/6
f 168/7/6 478/7/6 234/7/6
f 195/40/10 491/107/10 261/40/10
f 262/70/6 468/106/6 196/71/6
f 237/7/10 532/7/10 171/7/10
f 264/7/6 518/7/6 198/7/6
f 197/7/15 521/7/15 263/7/15
f 417/7/6 540/7/6 416/7/6
f 199/7/6 392/7/6 265/7/6
f 240/76/10 426/7/10 174/76/10
f 173/80/6 437/104/6 239/80/6
f 267/7/10 337/7/10 201/7/10
f 175/75/10 439/107/10 241/116/10
f 242/81/6 428/106/6 176/81/6
f 270/65/10 204/65/10 470/7/10
f 244/85/10 430/7/10 178/85/10
f 413/7/6 412/7/6 506/7/6
f 205/64/10 271/64/10 495/107/10
f 179/84/10 443/107/10 245/84/10
f 153/7/10 219/7/10 509/7/10
f 286/102/10 409/105/10 285/103/10
f 284/94/10 420/108/10 514/7/10
f 285/103/10 420/108/10 288/93/10
f 284/94/10 502/7/10 146/94/10
f 148/102/10 515/107/10 286/102/10
f 416/7/6 512/7/6 414/7/6
f 415/7/6 535/7/6 417/7/6
f 295/7/7 294/7/7 421/7/7
f 303/7/13 423/7/13 302/7/13
f 309/72/16 425/104/16 426/7/16
f 311/77/17 427/107/17 428/106/17
f 313/82/18 429/104/18 430/7/18
f 314/87/19 432/106/19 315/86/19
f 353/7/7 434/7/7 433/7/7
f 361/7/13 435/7/13 436/7/13
f 370/73/16 438/7/16 437/104/16
f 368/78/17 440/106/17 439/107/17
f 374/83/18 442/7/18 441/104/18
f 372/87/19 444/106/19 443/107/19
f 374/83/18 429/104/18 316/83/18
f 315/86/19 444/106/19 373/86/19
f 294/7/7 352/7/7 433/7/7
f 353/7/7 295/7/7 422/7/7
f 302/7/13 435/7/13 360/7/13
f 361/7/13 424/7/13 303/7/13
f 309/72/37 438/7/37 367/72/37
f 370/73/16 425/104/16 312/74/16
f 368/78/38 427/107/38 310/79/38
f 311/77/17 440/106/17 369/120/17
f 371/82/18 430/7/18 442/7/18
f 372/87/19 431/107/19 314/87/19
f 445/7/8 347/7/8 405/7/8
f 448/7/8 447/7/8 408/7/8
f 445/7/8 448/7/8 350/7/8
f 449/7/9 392/7/9 334/7/9
f 452/7/9 395/7/9 451/7/9
f 447/7/8 446/7/8 405/7/8
f 449/7/9 337/7/9 452/7/9
f 451/7/9 392/7/9 450/7/9
f 305/7/9 453/7/9 304/7/9
f 317/38/9 455/104/9 456/7/9
f 318/47/8 458/106/8 319/121/8
f 322/61/8 460/106/8 323/59/8
f 328/63/9 462/7/9 325/62/9
f 327/66/8 463/107/8 464/106/8
f 329/36/9 465/104/9 466/7/9
f 330/45/8 468/106/8 331/44/8
f 341/63/8 338/62/8 470/7/8
f 340/66/9 472/106/9 471/107/9
f 342/36/8 474/7/8 473/104/8
f 343/45/9 344/44/9 476/106/9
f 362/7/9 478/7/9 363/7/9
f 378/39/9 480/7/9 479/104/9
f 377/48/8 481/107/8 376/49/8
f 381/122/8 483/107/8 380/60/8
f 386/63/9 486/7/9 485/104/9
f 385/66/8 487/107/8 384/67/8
f 387/36/9 489/104/9 390/37/9
f 388/46/8 492/106/8 491/107/8
f 399/63/8 493/104/8 494/7/8
f 398/66/9 397/67/9 495/107/9
f 400/36/8 403/37/8 497/104/8
f 401/46/9 499/107/9 500/106/9
f 399/63/8 341/63/8 469/104/8
f 340/66/9 398/66/9 496/106/9
f 342/36/8 400/36/8 498/7/8
f 403/37/8 345/37/8 473/104/8
f 317/38/9 480/7/9 375/123/9
f 378/39/9 455/104/9 320/39/9
f 401/46/9 343/45/9 475/107/9
f 376/49/8 457/107/8 318/47/8
f 344/44/9 402/124/9 500/106/9
f 319/121/8 482/106/8 377/48/8
f 380/60/8 459/107/8 322/61/8
f 323/59/8 484/106/8 381/122/8
f 325/62/9 486/7/9 383/62/9
f 386/63/9 461/104/9 328/63/9
f 384/67/8 463/107/8 326/67/8
f 327/66/8 488/106/8 385/66/8
f 304/7/9 477/7/9 362/7/9
f 329/36/9 490/7/9 387/36/9
f 390/37/9 465/104/9 332/37/9
f 363/7/9 454/7/9 305/7/9
f 388/46/8 467/107/8 330/45/8
f 331/44/8 492/106/8 389/124/8
f 338/62/8 396/62/8 494/7/8
f 397/67/9 339/67/9 471/107/9
f 291/97/24 526/104/24 502/7/24
f 290/96/23 525/106/23 149/95/23
f 293/7/9 152/7/9 506/7/9
f 301/7/8 508/7/8 163/7/8
f 218/7/9 351/7/9 509/7/9
f 229/7/8 511/7/8 359/7/8
f 163/7/8 512/7/8 229/7/8
f 359/7/8 507/7/8 301/7/8
f 152/7/9 218/7/9 510/7/9
f 351/7/9 293/7/9 505/7/9
f 419/97/24 528/104/24 283/98/24
f 418/96/23 527/106/23 515/107/23
f 291/97/24 514/7/24 419/97/24
f 149/95/23 527/106/23 287/95/23
f 418/96/23 503/107/23 290/96/23
f 283/98/24 526/104/24 145/98/24
f 335/7/8 518/7/8 333/7/8
f 348/7/9 346/7/9 520/7/9
f 391/7/8 521/7/8 393/7/8
f 404/7/9 406/7/9 523/7/9
f 346/7/9 404/7/9 524/7/9
f 406/7/9 348/7/9 519/7/9
f 333/7/8 522/7/8 391/7/8
f 393/7/8 517/7/8 335/7/8
f 504/101/6 526/104/6 501/99/6
f 513/99/6 527/106/6 516/100/6
f 516/100/6 525/106/6 504/101/6
f 501/99/6 528/104/6 513/99/6
f 297/7/8 296/7/8 529/7/8
f 161/7/8 300/7/8 531/7/8
f 172/7/9 532/7/9 308/7/9
f 354/7/8 355/7/8 536/7/8
f 358/7/8 227/7/8 539/7/8
f 366/7/9 540/7/9 238/7/9
f 296/7/8 354/7/8 534/7/8
f 355/7/8 297/7/8 530/7/8
f 300/7/8 358/7/8 537/7/8
f 227/7/8 161/7/8 533/7/8
f 308/7/9 538/7/9 366/7/9
f 238/7/9 535/7/9 172/7/9
f 324/56/9 542/7/9 321/55/9
f 379/55/9 543/104/9 382/56/9
f 321/55/9 544/7/9 379/55/9
f 382/56/9 541/104/9 324/56/9
f 1/1/29 502/7/29 526/104/29
f 2/5/27 503/107/27 289/105/27
f 2/5/39 4/4/39 525/106/39
f 3/2/28 526/104/28 525/106/28
f 1/1/40 5/3/40 292/108/40
f 6/6/41 289/105/41 292/108/41
f 8/7/4 151/7/4 9/7/4
f 7/7/4 421/7/4 505/7/4
f 8/7/4 505/7/4 506/7/4
f 11/7/4 421/7/4 10/7/4
f 12/7/4 422/7/4 11/7/4
f 12/7/4 530/7/4 529/7/4
f 13/7/4 298/7/4 530/7/4
f 14/7/4 299/7/4 298/7/4
f 16/7/4 299/7/4 15/7/4
f 16/7/4 533/7/4 531/7/4
f 17/7/4 151/7/4 533/7/4
f 19/7/4 20/7/4 162/7/4
f 18/7/4 507/7/4 423/7/4
f 19/7/4 508/7/4 507/7/4
f 22/7/4 21/7/4 423/7/4
f 23/7/4 22/7/4 424/7/4
f 23/7/4 453/7/4 454/7/4
f 24/7/4 454/7/4 306/7/4
f 25/7/4 306/7/4 307/7/4
f 27/7/4 26/7/4 307/7/4
f 27/7/4 532/7/4 535/7/4
f 28/7/4 535/7/4 162/7/4
f 31/8/4 29/10/4 426/7/4
f 30/9/4 427/107/4 426/7/4
f 32/109/4 428/106/4 427/107/4
f 31/8/4 425/104/4 428/106/4
f 35/11/4 33/13/4 430/7/4
f 34/12/4 431/107/4 430/7/4
f 36/110/4 432/106/4 431/107/4
f 35/11/4 429/104/4 432/106/4
f 37/16/4 456/7/4 455/104/4
f 38/15/4 457/107/4 456/7/4
f 40/111/4 458/106/4 457/107/4
f 39/14/4 455/104/4 458/106/4
f 41/19/4 542/7/4 541/104/4
f 42/18/4 459/107/4 542/7/4
f 44/112/4 460/106/4 459/107/4
f 43/17/4 541/104/4 460/106/4
f 47/20/4 45/22/4 462/7/4
f 46/21/4 463/107/4 462/7/4
f 48/113/4 464/106/4 463/107/4
f 47/20/4 461/104/4 464/106/4
f 49/25/4 466/7/4 465/104/4
f 50/24/4 467/107/4 466/7/4
f 50/24/4 52/114/4 468/106/4
f 51/23/4 465/104/4 468/106/4
f 55/7/4 518/7/4 517/7/4
f 55/7/4 54/7/4 334/7/4
f 56/7/4 53/7/4 517/7/4
f 56/7/4 336/7/4 337/7/4
f 57/7/4 337/7/4 202/7/4
f 54/7/4 58/7/4 202/7/4
f 61/20/4 470/7/4 59/22/4
f 60/21/4 470/7/4 471/107/4
f 62/113/4 471/107/4 472/106/4
f 61/20/4 472/106/4 469/104/4
f 63/27/4 473/104/4 474/7/4
f 64/28/4 474/7/4 475/107/4
f 64/28/4 476/106/4 66/115/4
f 66/115/4 473/104/4 65/26/4
f 69/7/4 519/7/4 520/7/4
f 68/7/4 520/7/4 347/7/4
f 70/7/4 519/7/4 67/7/4
f 70/7/4 350/7/4 349/7/4
f 71/7/4 216/7/4 350/7/4
f 68/7/4 216/7/4 72/7/4
f 74/7/5 217/7/5 510/7/5
f 75/7/5 433/7/5 76/7/5
f 75/7/5 510/7/5 509/7/5
f 77/7/5 433/7/5 434/7/5
f 78/7/5 434/7/5 534/7/5
f 79/7/5 534/7/5 536/7/5
f 79/7/5 356/7/5 80/7/5
f 80/7/5 357/7/5 81/7/5
f 82/7/5 357/7/5 537/7/5
f 83/7/5 537/7/5 539/7/5
f 83/7/5 217/7/5 73/7/5
f 85/7/5 512/7/5 228/7/5
f 86/7/5 87/7/5 435/7/5
f 86/7/5 511/7/5 512/7/5
f 88/7/5 436/7/5 435/7/5
f 89/7/5 477/7/5 436/7/5
f 90/7/5 478/7/5 477/7/5
f 90/7/5 91/7/5 364/7/5
f 91/7/5 92/7/5 365/7/5
f 93/7/5 538/7/5 365/7/5
f 94/7/5 540/7/5 538/7/5
f 94/7/5 84/7/5 228/7/5
f 95/29/5 437/104/5 438/7/5
f 96/10/5 438/7/5 439/107/5
f 98/109/5 97/9/5 439/107/5
f 98/109/5 440/106/5 437/104/5
f 99/30/5 441/104/5 442/7/5
f 100/13/5 442/7/5 443/107/5
f 102/110/5 101/12/5 443/107/5
f 102/110/5 444/106/5 441/104/5
f 103/14/5 479/104/5 480/7/5
f 104/16/5 480/7/5 481/107/5
f 105/15/5 481/107/5 482/106/5
f 106/111/5 482/106/5 479/104/5
f 107/17/5 543/104/5 544/7/5
f 108/19/5 544/7/5 483/107/5
f 109/18/5 483/107/5 484/106/5
f 110/112/5 484/106/5 543/104/5
f 111/20/5 485/104/5 486/7/5
f 112/22/5 486/7/5 487/107/5
f 114/113/5 113/21/5 487/107/5
f 114/113/5 488/106/5 485/104/5
f 116/25/5 115/31/5 489/104/5
f 116/25/5 490/7/5 491/107/5
f 117/24/5 491/107/5 492/106/5
f 118/114/5 492/106/5 489/104/5
f 120/7/5 119/7/5 521/7/5
f 120/7/5 522/7/5 392/7/5
f 122/7/5 394/7/5 521/7/5
f 122/7/5 123/7/5 395/7/5
f 123/7/5 124/7/5 268/7/5
f 121/7/5 392/7/5 268/7/5
f 125/20/5 494/7/5 493/104/5
f 126/22/5 495/107/5 494/7/5
f 128/113/5 495/107/5 127/21/5
f 128/113/5 493/104/5 496/106/5
f 130/27/5 497/104/5 129/26/5
f 131/28/5 498/7/5 130/27/5
f 131/28/5 500/106/5 499/107/5
f 132/115/5 497/104/5 500/106/5
f 134/7/5 523/7/5 133/7/5
f 134/7/5 405/7/5 524/7/5
f 136/7/5 523/7/5 407/7/5
f 136/7/5 408/7/5 137/7/5
f 137/7/5 282/7/5 138/7/5
f 135/7/5 282/7/5 405/7/5
f 140/88/42 139/2/42 528/104/42
f 142/91/43 141/90/43 409/105/43
f 142/91/32 515/107/32 527/106/32
f 139/2/34 143/4/34 527/106/34
f 140/88/31 514/7/31 420/108/31
f 141/90/44 144/89/44 420/108/44
f 148/102/10 147/92/10 289/105/10
f 146/94/10 502/7/10 292/108/10
f 147/92/10 150/93/10 292/108/10
f 153/7/10 421/7/10 154/7/10
f 156/7/10 422/7/10 529/7/10
f 157/7/6 298/7/6 158/7/6
f 159/7/11 298/7/11 299/7/11
f 160/7/10 299/7/10 531/7/10
f 164/7/10 165/7/10 423/7/10
f 167/7/10 453/7/10 424/7/10
f 168/7/6 169/7/6 306/7/6
f 170/7/14 307/7/14 306/7/14
f 171/7/10 532/7/10 307/7/10
f 174/76/10 426/7/10 427/107/10
f 176/81/6 428/106/6 425/104/6
f 178/85/10 430/7/10 431/107/10
f 180/35/6 432/106/6 429/104/6
f 182/43/10 456/7/10 457/107/10
f 184/54/6 458/106/6 455/104/6
f 186/58/10 542/7/10 459/107/10
f 188/35/6 460/106/6 541/104/6
f 190/65/10 462/7/10 463/107/10
f 192/33/6 464/106/6 461/104/6
f 194/68/10 466/7/10 467/107/10
f 196/71/6 468/106/6 465/104/6
f 198/7/6 518/7/6 334/7/6
f 197/7/15 200/7/15 336/7/15
f 201/7/10 337/7/10 336/7/10
f 204/65/10 471/107/10 470/7/10
f 206/33/6 469/104/6 472/106/6
f 209/40/10 474/7/10 208/41/10
f 210/51/6 473/104/6 476/106/6
f 212/7/6 347/7/6 520/7/6
f 211/7/12 349/7/12 214/7/12
f 215/7/10 349/7/10 350/7/10
f 219/7/10 433/7/10 509/7/10
f 221/7/10 534/7/10 434/7/10
f 223/7/6 356/7/6 536/7/6
f 224/7/11 357/7/11 356/7/11
f 226/7/10 357/7/10 225/7/10
f 230/7/10 511/7/10 435/7/10
f 232/7/10 436/7/10 477/7/10
f 234/7/6 478/7/6 364/7/6
f 235/7/14 364/7/14 365/7/14
f 237/7/10 236/7/10 365/7/10
f 241/116/10 439/107/10 438/7/10
f 239/80/6 437/104/6 440/106/6
f 245/84/10 443/107/10 442/7/10
f 243/34/6 441/104/6 444/106/6
f 249/42/10 481/107/10 480/7/10
f 247/53/6 479/104/6 482/106/6
f 253/57/10 483/107/10 544/7/10
f 251/34/6 543/104/6 484/106/6
f 257/64/10 487/107/10 486/7/10
f 255/32/6 485/104/6 488/106/6
f 261/40/10 491/107/10 490/7/10
f 259/117/6 489/104/6 492/106/6
f 264/7/6 265/7/6 392/7/6
f 263/7/15 521/7/15 394/7/15
f 267/7/10 266/7/10 394/7/10
f 271/64/10 494/7/10 495/107/10
f 269/32/6 496/106/6 493/104/6
f 275/118/10 498/7/10 499/107/10
f 276/52/6 497/104/6 273/119/6
f 279/7/6 524/7/6 405/7/6
f 277/7/12 407/7/12 523/7/12
f 281/7/10 407/7/10 280/7/10
f 203/32/6 493/104/6 469/104/6
f 272/33/6 472/106/6 496/106/6
f 177/34/6 429/104/6 441/104/6
f 246/35/6 444/106/6 432/106/6
f 220/7/10 421/7/10 433/7/10
f 155/7/10 434/7/10 422/7/10
f 274/41/10 474/7/10 498/7/10
f 207/50/6 497/104/6 473/104/6
f 248/43/10 480/7/10 456/7/10
f 181/53/6 455/104/6 479/104/6
f 222/7/10 529/7/10 534/7/10
f 209/40/10 499/107/10 475/107/10
f 183/42/10 457/107/10 481/107/10
f 157/7/6 536/7/6 530/7/6
f 276/52/6 476/106/6 500/106/6
f 250/54/6 482/106/6 458/106/6
f 278/7/6 520/7/6 524/7/6
f 211/7/12 523/7/12 519/7/12
f 252/58/10 544/7/10 542/7/10
f 185/34/6 541/104/6 543/104/6
f 226/7/10 531/7/10 537/7/10
f 213/7/6 405/7/6 347/7/6
f 187/57/10 459/107/10 483/107/10
f 411/7/6 539/7/6 533/7/6
f 254/35/6 484/106/6 460/106/6
f 412/7/6 533/7/6 506/7/6
f 281/7/10 350/7/10 408/7/10
f 410/7/6 510/7/6 539/7/6
f 414/7/6 512/7/6 508/7/6
f 256/65/10 486/7/10 462/7/10
f 189/32/6 461/104/6 485/104/6
f 164/7/10 507/7/10 511/7/10
f 231/7/10 435/7/10 423/7/10
f 191/64/10 463/107/10 487/107/10
f 258/33/6 488/106/6 464/106/6
f 166/7/10 424/7/10 436/7/10
f 233/7/10 477/7/10 453/7/10
f 260/68/10 490/7/10 466/7/10
f 193/69/6 465/104/6 489/104/6
f 168/7/6 454/7/6 478/7/6
f 195/40/10 467/107/10 491/107/10
f 262/70/6 492/106/6 468/106/6
f 237/7/10 538/7/10 532/7/10
f 264/7/6 522/7/6 518/7/6
f 197/7/15 517/7/15 521/7/15
f 417/7/6 535/7/6 540/7/6
f 199/7/6 334/7/6 392/7/6
f 240/76/10 438/7/10 426/7/10
f 173/80/6 425/104/6 437/104/6
f 267/7/10 395/7/10 337/7/10
f 175/75/10 427/107/10 439/107/10
f 242/81/6 440/106/6 428/106/6
f 270/65/10 470/7/10 494/7/10
f 244/85/10 442/7/10 430/7/10
f 413/7/6 506/7/6 510/7/6
f 205/64/10 495/107/10 471/107/10
f 179/84/10 431/107/10 443/107/10
f 153/7/10 509/7/10 505/7/10
f 286/102/10 515/107/10 409/105/10
f 284/94/10 288/93/10 420/108/10
f 285/103/10 409/105/10 420/108/10
f 284/94/10 514/7/10 502/7/10
f 148/102/10 503/107/10 515/107/10
f 416/7/6 540/7/6 512/7/6
f 415/7/6 508/7/6 535/7/6
f 295/7/7 421/7/7 422/7/7
f 303/7/13 424/7/13 423/7/13
f 309/72/16 312/74/16 425/104/16
f 311/77/17 310/79/17 427/107/17
f 313/82/18 316/83/18 429/104/18
f 314/87/19 431/107/19 432/106/19
f 353/7/7 433/7/7 352/7/7
f 361/7/13 360/7/13 435/7/13
f 370/73/37 367/72/37 438/7/37
f 368/78/38 369/120/38 440/106/38
f 374/83/18 371/82/18 442/7/18
f 372/87/19 373/86/19 444/106/19
f 374/83/18 441/104/18 429/104/18
f 315/86/19 432/106/19 444/106/19
f 294/7/7 433/7/7 421/7/7
f 353/7/7 422/7/7 434/7/7
f 302/7/13 423/7/13 435/7/13
f 361/7/13 436/7/13 424/7/13
f 309/72/37 426/7/37 438/7/37
f 370/73/16 437/104/16 425/104/16
f 368/78/38 439/107/38 427/107/38
f 311/77/17 428/106/17 440/106/17
f 371/82/18 313/82/18 430/7/18
f 372/87/19 443/107/19 431/107/19
f 445/7/8 405/7/8 446/7/8
f 448/7/8 408/7/8 350/7/8
f 445/7/8 350/7/8 347/7/8
f 449/7/9 450/7/9 392/7/9
f 452/7/9 337/7/9 395/7/9
f 447/7/8 405/7/8 408/7/8
f 449/7/9 334/7/9 337/7/9
f 451/7/9 395/7/9 392/7/9
f 305/7/9 454/7/9 453/7/9
f 317/38/9 320/39/9 455/104/9
f 318/47/8 457/107/8 458/106/8
f 322/61/8 459/107/8 460/106/8
f 328/63/9 461/104/9 462/7/9
f 327/66/8 326/67/8 463/107/8
f 329/36/9 332/37/9 465/104/9
f 330/45/8 467/107/8 468/106/8
f 341/63/8 470/7/8 469/104/8
f 340/66/9 471/107/9 339/67/9
f 342/36/8 473/104/8 345/37/8
f 343/45/9 476/106/9 475/107/9
f 362/7/9 477/7/9 478/7/9
f 378/39/9 375/123/9 480/7/9
f 377/48/8 482/106/8 481/107/8
f 381/122/8 484/106/8 483/107/8
f 386/63/9 383/62/9 486/7/9
f 385/66/8 488/106/8 487/107/8
f 387/36/9 490/7/9 489/104/9
f 388/46/8 389/124/8 492/106/8
f 399/63/8 494/7/8 396/62/8
f 398/66/9 495/107/9 496/106/9
f 400/36/8 497/104/8 498/7/8
f 401/46/9 500/106/9 402/124/9
f 399/63/8 469/104/8 493/104/8
f 340/66/9 496/106/9 472/106/9
f 342/36/8 498/7/8 474/7/8
f 403/37/8 473/104/8 497/104/8
f 317/38/9 456/7/9 480/7/9
f 378/39/9 479/104/9 455/104/9
f 401/46/9 475/107/9 499/107/9
f 376/49/8 481/107/8 457/107/8
f 344/44/9 500/106/9 476/106/9
f 319/121/8 458/106/8 482/106/8
f 380/60/8 483/107/8 459/107/8
f 323/59/8 460/106/8 484/106/8
f 325/62/9 462/7/9 486/7/9
f 386/63/9 485/104/9 461/104/9
f 384/67/8 487/107/8 463/107/8
f 327/66/8 464/106/8 488/106/8
f 304/7/9 453/7/9 477/7/9
f 329/36/9 466/7/9 490/7/9
f 390/37/9 489/104/9 465/104/9
f 363/7/9 478/7/9 454/7/9
f 388/46/8 491/107/8 467/107/8
f 331/44/8 468/106/8 492/106/8
f 338/62/8 494/7/8 470/7/8
f 397/67/9 471/107/9 495/107/9
f 291/97/24 145/98/24 526/104/24
f 290/96/23 503/107/23 525/106/23
f 293/7/9 506/7/9 505/7/9
f 301/7/8 507/7/8 508/7/8
f 218/7/9 509/7/9 510/7/9
f 229/7/8 512/7/8 511/7/8
f 163/7/8 508/7/8 512/7/8
f 359/7/8 511/7/8 507/7/8
f 152/7/9 510/7/9 506/7/9
f 351/7/9 505/7/9 509/7/9
f 419/97/24 514/7/24 528/104/24
f 418/96/23 287/95/23 527/106/23
f 291/97/24 502/7/24 514/7/24
f 149/95/23 525/106/23 527/106/23
f 418/96/23 515/107/23 503/107/23
f 283/98/24 528/104/24 526/104/24
f 335/7/8 517/7/8 518/7/8
f 348/7/9 520/7/9 519/7/9
f 391/7/8 522/7/8 521/7/8
f 404/7/9 523/7/9 524/7/9
f 346/7/9 524/7/9 520/7/9
f 406/7/9 519/7/9 523/7/9
f 333/7/8 518/7/8 522/7/8
f 393/7/8 521/7/8 517/7/8
f 504/101/6 525/106/6 526/104/6
f 513/99/6 528/104/6 527/106/6
f 516/100/6 527/106/6 525/106/6
f 501/99/6 526/104/6 528/104/6
f 297/7/8 529/7/8 530/7/8
f 161/7/8 531/7/8 533/7/8
f 172/7/9 535/7/9 532/7/9
f 354/7/8 536/7/8 534/7/8
f 358/7/8 539/7/8 537/7/8
f 366/7/9 538/7/9 540/7/9
f 296/7/8 534/7/8 529/7/8
f 355/7/8 530/7/8 536/7/8
f 300/7/8 537/7/8 531/7/8
f 227/7/8 533/7/8 539/7/8
f 308/7/9 532/7/9 538/7/9
f 238/7/9 540/7/9 535/7/9
f 324/56/9 541/104/9 542/7/9
f 379/55/9 544/7/9 543/104/9
f 321/55/9 542/7/9 544/7/9
f 382/56/9 543/104/9 541/104/9
