# Blender 5.0.1
# www.blender.org
mtllib shipv1.mtl
o Cube
v -0.520454 0.525413 2.185679
v -1.000000 -0.525413 2.185679
v 0.520454 0.525413 2.185679
v 1.000000 -0.525413 2.185679
v -0.375176 0.152769 2.892035
v -0.375176 -0.152769 2.892035
v 0.375176 0.152769 2.892035
v 0.375176 -0.152769 2.892035
v -0.520454 0.525413 -1.624947
v -1.000000 -0.525413 -1.624947
v 0.520454 0.525413 -1.624947
v 1.000000 -0.525413 -1.624947
v -0.268876 0.141271 -4.829942
v -0.268876 -0.141271 -4.829942
v 0.268875 0.141271 -4.829942
v 0.268875 -0.141271 -4.829942
v 3.152915 -0.195280 1.359008
v 3.545282 -0.790177 0.590154
v 3.152915 -0.195280 -0.798276
v 3.545282 -0.790177 -0.313394
v -3.133501 -0.195280 1.359008
v -3.545242 -0.790177 0.590155
v -3.133501 -0.195280 -0.798276
v -3.545242 -0.790177 -0.313394
v 0.728174 0.837354 1.663605
v 0.728173 0.837354 -1.102873
v -0.723807 0.837354 -1.102873
v -0.723807 0.837354 1.663605
v 2.291169 0.314137 1.063449
v 2.291169 0.314137 -0.502718
v -2.272709 0.314137 -0.502718
v -2.272709 0.314137 1.063450
v -0.487671 -0.211876 2.892035
v 0.487672 -0.211876 2.892035
v 0.487672 0.211876 2.892035
v -0.487671 0.211876 2.892035
v -0.285078 -0.116082 2.532499
v 0.285079 -0.116082 2.532499
v 0.285079 0.116082 2.532499
v -0.285078 0.116082 2.532499
v 3.325283 -0.456620 -0.585266
v 3.021203 -0.735662 -0.583446
v -3.320473 -0.465424 -0.578090
v -3.071110 -0.740856 -0.557712
v 3.322691 -0.461840 -2.764988
v 3.542690 -0.795397 -2.493116
v -3.323065 -0.470644 -2.757812
v -3.547834 -0.795397 -2.493115
v 3.018611 -0.740882 -2.763167
v -3.073702 -0.746077 -2.737434
vn -0.0000 0.9140 0.4057
vn 0.8095 -0.0000 0.5871
vn 0.9700 -0.0000 0.2431
vn -0.0000 -0.9140 0.4057
vn -0.0000 -1.0000 -0.0000
vn -0.8095 -0.0000 0.5871
vn -0.0000 0.9929 -0.1190
vn -0.0000 1.0000 -0.0000
vn 0.3807 -0.4203 -0.8237
vn -0.3629 -0.6328 0.6840
vn -0.0000 -0.0000 -1.0000
vn -0.8986 0.4101 -0.1558
vn -0.0000 -0.9929 -0.1190
vn 0.9969 -0.0000 -0.0783
vn 0.8348 0.5506 -0.0000
vn -0.3596 0.8415 0.4031
vn -0.1035 -0.9946 -0.0000
vn 0.3338 0.1523 0.9302
vn -0.8223 0.5691 -0.0000
vn 0.1035 -0.9946 -0.0000
vn -0.3363 0.1535 -0.9292
vn 0.5089 0.8608 -0.0000
vn 0.3174 0.9483 -0.0000
vn -0.3200 0.9474 -0.0000
vn -0.8323 0.5543 -0.0000
vn 0.4503 0.6762 0.5832
vn -0.4534 0.6762 -0.5806
vn 0.3578 0.8408 -0.4062
vn 0.8377 0.5461 -0.0000
vn -0.5093 0.8606 -0.0000
vn -0.0000 -0.0000 1.0000
vn -0.0000 0.9948 0.1015
vn -0.0000 -0.9948 0.1015
vn -0.9700 -0.0000 0.2431
vn 0.8873 0.4049 0.2209
vn -0.8873 0.4049 0.2209
vn 0.3338 0.1523 -0.9302
vn -0.3363 0.1535 0.9292
vn -0.9969 -0.0000 -0.0783
vn 0.8986 0.4101 -0.1558
vn -0.4534 0.6762 0.5806
vn 0.3589 -0.6406 0.6788
vn -0.3840 -0.4089 -0.8278
vn 0.3578 0.8408 0.4062
vn -0.3596 0.8415 -0.4031
vn 0.4503 0.6762 -0.5832
vn -0.6761 0.7368 -0.0010
vn 0.1046 -0.9945 0.0023
vn -0.8224 0.5689 -0.0004
vn 0.7414 0.6711 -0.0025
vn 0.8356 0.5493 -0.0023
vn -0.1047 -0.9945 0.0025
vt 0.875000 0.500000
vt 0.625000 0.750000
vt 0.625000 0.500000
vt 0.375000 0.750000
vt 0.625000 1.000000
vt 0.375000 1.000000
vt 0.409871 0.221165
vt 0.590129 0.221165
vt 0.375000 0.500000
vt 0.125000 0.750000
vt 0.125000 0.500000
vt 0.625000 0.250000
vt 0.375000 0.250000
vt 0.515174 0.750000
vt 0.375000 0.500000
vt 0.375000 0.000000
vt 0.409871 0.028835
vt 0.625000 0.000000
vt 0.590129 0.028835
vt 0.875000 0.750000
vt 0.511475 0.500000
s 0
usemtl SBX_32
f 3/2/8 9/3/8 1/3/8
f 25/2/23 30/2/23 26/2/23
f 27/3/24 32/3/24 28/3/24
f 3/2/25 26/2/25 11/2/25
f 3/2/26 29/2/26 25/2/26
f 9/3/27 31/3/27 27/3/27
f 9/3/29 28/3/29 1/3/29
f 3/2/8 11/2/8 9/3/8
f 1/3/41 28/3/41 32/3/41
f 25/2/23 29/2/23 30/2/23
f 27/3/24 31/3/24 32/3/24
f 3/2/25 25/2/25 26/2/25
f 11/2/46 26/2/46 30/2/46
f 9/3/29 27/3/29 28/3/29
usemtl SBX_33
f 36/1/1 3/2/1 1/3/1
f 4/4/2 35/5/2 34/6/2
f 6/7/3 40/8/3 5/8/3
f 2/9/4 34/10/4 33/11/4
f 2/9/5 12/4/5 4/4/5
f 36/12/6 2/9/6 33/13/6
f 9/3/7 15/2/7 13/3/7
f 12/4/9 19/2/9 41/14/9 42/4/9
f 2/9/10 21/3/10 22/9/10
f 13/3/11 16/4/11 14/9/11
f 11/2/14 16/4/14 15/2/14
f 18/4/15 19/2/15 17/2/15
f 12/4/17 18/4/17 4/4/17
f 21/3/19 24/9/19 22/9/19
f 2/9/20 24/9/20 44/15/20 10/9/20
f 6/7/31 34/16/31 8/17/31
f 8/17/31 35/18/31 7/19/31
f 5/8/31 33/13/31 6/7/31
f 7/19/31 36/12/31 5/8/31
f 6/7/32 38/17/32 37/7/32
f 7/19/33 40/8/33 39/19/33
f 7/19/34 38/17/34 8/17/34
f 36/1/1 35/20/1 3/2/1
f 4/4/35 3/2/35 35/5/35
f 6/7/3 37/7/3 40/8/3
f 2/9/4 4/4/4 34/10/4
f 2/9/5 10/9/5 12/4/5
f 36/12/36 1/3/36 2/9/36
f 9/3/7 11/2/7 15/2/7
f 13/3/11 15/2/11 16/4/11
f 9/3/39 13/3/39 14/9/39
f 18/4/15 20/4/15 41/14/15 19/2/15
f 12/4/17 42/4/17 20/4/17 18/4/17
f 4/4/42 18/4/42 17/2/42
f 21/3/19 23/3/19 43/21/19 24/9/19
f 2/9/20 22/9/20 24/9/20
f 10/9/43 44/15/43 43/21/43 23/3/43
f 6/7/31 33/13/31 34/16/31
f 8/17/31 34/16/31 35/18/31
f 5/8/31 36/12/31 33/13/31
f 7/19/31 35/18/31 36/12/31
f 6/7/32 8/17/32 38/17/32
f 7/19/33 5/8/33 40/8/33
f 7/19/34 39/19/34 38/17/34
usemtl SBX_34
f 9/3/12 14/9/12 10/9/12
f 10/9/13 16/4/13 12/4/13
f 10/9/13 14/9/13 16/4/13
f 11/2/40 12/4/40 16/4/40
usemtl SBX_35
f 1/3/16 32/3/16 21/3/16
f 4/4/18 17/2/18 3/2/18
f 10/9/21 23/3/21 9/3/21
f 19/2/22 29/2/22 17/2/22
f 11/2/28 30/2/28 19/2/28
f 21/3/30 31/3/30 23/3/30
f 12/4/37 11/2/37 19/2/37
f 2/9/38 1/3/38 21/3/38
f 19/2/22 30/2/22 29/2/22
f 3/2/44 17/2/44 29/2/44
f 9/3/45 23/3/45 31/3/45
f 21/3/30 32/3/30 31/3/30
usemtl SBX_41
f 42/4/47 41/14/47 45/14/47 49/4/47
f 44/15/48 24/9/48 48/9/48 50/15/48
f 24/9/49 43/21/49 47/21/49 48/9/49
f 43/21/50 44/15/50 50/15/50 47/21/50
f 41/14/51 20/4/51 46/4/51 45/14/51
f 20/4/52 42/4/52 49/4/52 46/4/52
usemtl SBX_37E
f 49/4/9 45/14/9 46/4/9
f 47/21/43 50/15/43 48/9/43
usemtl SBX_34E
f 39/19/31 37/7/31 38/17/31
f 39/19/31 40/8/31 37/7/31
