# Blender 5.0.1
# www.blender.org
mtllib text.mtl
o Text
v 6.017012 -0.338629 -0.111263
v 5.899960 -0.338629 -0.111263
v 5.899960 -0.165984 -0.111263
v 6.017012 -0.165984 -0.111263
v 6.017012 -0.049466 -0.111263
v 5.899960 -0.049466 -0.111263
v 5.899960 0.707190 -0.111263
v 6.017012 0.707190 -0.111263
v 5.474623 -0.338629 -0.111263
v 4.882619 -0.338629 -0.111263
v 4.882619 -0.629924 -0.111263
v 4.765567 -0.629924 -0.111263
v 4.765567 0.270959 -0.111263
v 5.474623 0.270959 -0.111263
v 5.356126 -0.165984 -0.111263
v 5.356126 0.096182 -0.111263
v 4.882619 0.096182 -0.111263
v 4.882619 -0.165984 -0.111263
v 4.734739 -0.338629 -0.111263
v 4.025683 -0.338629 -0.111263
v 4.025683 0.707190 -0.111263
v 4.142735 0.707190 -0.111263
v 4.142735 -0.165984 -0.111263
v 4.616242 -0.165984 -0.111263
v 4.616242 0.707190 -0.111263
v 4.734739 0.707190 -0.111263
v 3.600346 -0.338629 -0.111263
v 2.891290 -0.338629 -0.111263
v 2.891290 -0.165984 -0.111263
v 3.481849 -0.165984 -0.111263
v 3.481849 -0.121934 -0.111263
v 2.891290 -0.121934 -0.111263
v 2.891290 0.270959 -0.111263
v 3.600346 0.270959 -0.111263
v 3.600346 0.096182 -0.111263
v 3.008342 0.096182 -0.111263
v 3.008342 0.052132 -0.111263
v 3.600346 0.052132 -0.111263
v 2.860462 -0.338629 -0.111263
v 2.743410 -0.338629 -0.111263
v 2.743410 0.707190 -0.111263
v 2.860462 0.707190 -0.111263
v 2.712581 -0.338629 -0.111263
v 2.595529 -0.338629 -0.111263
v 2.595529 0.707190 -0.111263
v 2.712581 0.707190 -0.111263
v 2.564701 -0.338629 -0.111263
v 1.855645 -0.338629 -0.111263
v 1.855645 0.052132 -0.111263
v 2.446204 0.052132 -0.111263
v 2.446204 0.096182 -0.111263
v 1.855645 0.096182 -0.111263
v 1.855645 0.270959 -0.111263
v 2.564701 0.270959 -0.111263
v 2.446204 -0.165984 -0.111263
v 2.446204 -0.121934 -0.111263
v 1.972697 -0.121934 -0.111263
v 1.972697 -0.165984 -0.111263
v 1.824817 -0.338629 -0.111263
v 1.115761 -0.338629 -0.111263
v 1.115761 0.707190 -0.111263
v 1.726069 0.707190 -0.111263
v 1.726069 0.270959 -0.111263
v 1.824817 0.270959 -0.111263
v 1.608054 0.270959 -0.111263
v 1.608054 0.532413 -0.111263
v 1.232812 0.532413 -0.111263
v 1.232812 0.270959 -0.111263
v 1.706319 -0.165984 -0.111263
v 1.706319 0.096182 -0.111263
v 1.232812 0.096182 -0.111263
v 1.232812 -0.165984 -0.111263
v 0.690423 0.096182 -0.111263
v 0.178863 0.096182 -0.111263
v 0.178863 0.270959 -0.111263
v 0.690423 0.270959 -0.111263
v -0.323377 -0.338629 -0.111263
v -0.955531 -0.338629 -0.111263
v -0.955531 0.707190 -0.111263
v -0.323377 0.707190 -0.111263
v -0.372129 -0.165984 -0.111263
v -0.372129 0.532413 -0.111263
v -0.838479 0.532413 -0.111263
v -0.838479 -0.165984 -0.111263
v -0.986359 -0.338629 -0.111263
v -1.695415 -0.338629 -0.111263
v -1.695415 -0.165984 -0.111263
v -1.104856 -0.165984 -0.111263
v -1.104856 0.096182 -0.111263
v -1.695415 0.096182 -0.111263
v -1.695415 0.270959 -0.111263
v -1.104856 0.270959 -0.111263
v -1.104856 0.532413 -0.111263
v -1.695415 0.532413 -0.111263
v -1.695415 0.707190 -0.111263
v -0.986359 0.707190 -0.111263
v -2.100039 0.270959 -0.111263
v -2.385203 -0.034546 -0.111263
v -2.100039 -0.338629 -0.111263
v -2.281639 -0.338629 -0.111263
v -2.475762 -0.132591 -0.111263
v -2.670367 -0.338629 -0.111263
v -2.850521 -0.338629 -0.111263
v -2.566803 -0.034546 -0.111263
v -2.850521 0.270959 -0.111263
v -2.670367 0.270959 -0.111263
v -2.475762 0.062789 -0.111263
v -2.281639 0.270959 -0.111263
v -2.860637 -0.338629 -0.111263
v -3.569693 -0.338629 -0.111263
v -3.569693 0.270959 -0.111263
v -2.860637 0.270959 -0.111263
v -2.979134 -0.165984 -0.111263
v -2.979134 0.096182 -0.111263
v -3.452641 0.096182 -0.111263
v -3.452641 -0.165984 -0.111263
v -3.600521 -0.338629 -0.111263
v -4.309577 -0.338629 -0.111263
v -4.309577 0.707190 -0.111263
v -4.192525 0.707190 -0.111263
v -4.192525 0.270959 -0.111263
v -3.600521 0.270959 -0.111263
v -3.719018 -0.165984 -0.111263
v -3.719018 0.096182 -0.111263
v -4.192525 0.096182 -0.111263
v -4.192525 -0.165984 -0.111263
v -4.340405 -0.338629 -0.111263
v -5.049461 -0.338629 -0.111263
v -5.049461 0.270959 -0.111263
v -4.458903 0.270959 -0.111263
v -4.458903 0.707190 -0.111263
v -4.340405 0.707190 -0.111263
v -4.458903 -0.165984 -0.111263
v -4.458903 0.096182 -0.111263
v -4.932409 0.096182 -0.111263
v -4.932409 -0.165984 -0.111263
v -5.080290 -0.338629 -0.111263
v -5.197342 -0.338629 -0.111263
v -5.197342 0.270959 -0.111263
v -5.080290 0.270959 -0.111263
v -5.080290 0.387476 -0.111263
v -5.197342 0.387476 -0.111263
v -5.197342 0.561543 -0.111263
v -5.080290 0.561543 -0.111263
v -5.228170 -0.338629 -0.111263
v -5.937226 -0.338629 -0.111263
v -5.937226 -0.165984 -0.111263
v -5.346668 -0.165984 -0.111263
v -5.346668 0.096182 -0.111263
v -5.937226 0.096182 -0.111263
v -5.937226 0.707190 -0.111263
v -5.228170 0.707190 -0.111263
v -5.228170 0.532413 -0.111263
v -5.820175 0.532413 -0.111263
v -5.820175 0.270959 -0.111263
v -5.228170 0.270959 -0.111263
v 5.899960 -0.049466 0.108689
v 5.899960 0.707190 0.108689
v 6.017012 0.707190 0.108689
v 6.017012 -0.049466 0.108689
v 5.899960 -0.338629 0.108689
v 5.899960 -0.165984 0.108689
v 6.017012 -0.165984 0.108689
v 6.017012 -0.338629 0.108689
v 4.765567 -0.629924 0.108689
v 4.765567 0.270959 0.108689
v 4.882619 0.096182 0.108689
v 5.474623 0.270959 0.108689
v 5.356126 0.096182 0.108689
v 5.474623 -0.338629 0.108689
v 4.882619 -0.165984 0.108689
v 5.356126 -0.165984 0.108689
v 4.882619 -0.338629 0.108689
v 4.882619 -0.629924 0.108689
v 4.025683 -0.338629 0.108689
v 4.025683 0.707190 0.108689
v 4.142735 0.707190 0.108689
v 4.142735 -0.165984 0.108689
v 4.616242 -0.165984 0.108689
v 4.616242 0.707190 0.108689
v 4.734739 0.707190 0.108689
v 4.734739 -0.338629 0.108689
v 2.891290 -0.121934 0.108689
v 2.891290 0.270959 0.108689
v 3.008342 0.096182 0.108689
v 3.600346 0.270959 0.108689
v 3.600346 0.096182 0.108689
v 3.008342 0.052132 0.108689
v 3.600346 0.052132 0.108689
v 3.481849 -0.121934 0.108689
v 3.600346 -0.338629 0.108689
v 3.481849 -0.165984 0.108689
v 2.891290 -0.338629 0.108689
v 2.891290 -0.165984 0.108689
v 2.743410 -0.338629 0.108689
v 2.743410 0.707190 0.108689
v 2.860462 0.707190 0.108689
v 2.860462 -0.338629 0.108689
v 2.595529 -0.338629 0.108689
v 2.595529 0.707190 0.108689
v 2.712581 0.707190 0.108689
v 2.712581 -0.338629 0.108689
v 1.855645 0.096182 0.108689
v 1.855645 0.270959 0.108689
v 2.564701 0.270959 0.108689
v 2.446204 0.096182 0.108689
v 2.564701 -0.338629 0.108689
v 2.446204 0.052132 0.108689
v 1.855645 -0.338629 0.108689
v 1.855645 0.052132 0.108689
v 1.972697 -0.121934 0.108689
v 2.446204 -0.121934 0.108689
v 1.972697 -0.165984 0.108689
v 2.446204 -0.165984 0.108689
v 1.115761 -0.338629 0.108689
v 1.115761 0.707190 0.108689
v 1.232812 0.532413 0.108689
v 1.726069 0.707190 0.108689
v 1.608054 0.532413 0.108689
v 1.726069 0.270959 0.108689
v 1.232812 0.270959 0.108689
v 1.608054 0.270959 0.108689
v 1.232812 0.096182 0.108689
v 1.824817 0.270959 0.108689
v 1.706319 0.096182 0.108689
v 1.824817 -0.338629 0.108689
v 1.232812 -0.165984 0.108689
v 1.706319 -0.165984 0.108689
v 0.178863 0.096182 0.108689
v 0.178863 0.270959 0.108689
v 0.690423 0.270959 0.108689
v 0.690423 0.096182 0.108689
v -0.955531 -0.338629 0.108689
v -0.955531 0.707190 0.108689
v -0.838479 0.532413 0.108689
v -0.323377 0.707190 0.108689
v -0.372129 0.532413 0.108689
v -0.323377 -0.338629 0.108689
v -0.838479 -0.165984 0.108689
v -0.372129 -0.165984 0.108689
v -1.695415 0.532413 0.108689
v -1.695415 0.707190 0.108689
v -0.986359 0.707190 0.108689
v -1.104856 0.532413 0.108689
v -0.986359 -0.338629 0.108689
v -1.104856 0.270959 0.108689
v -1.695415 0.096182 0.108689
v -1.695415 0.270959 0.108689
v -1.104856 0.096182 0.108689
v -1.104856 -0.165984 0.108689
v -1.695415 -0.338629 0.108689
v -1.695415 -0.165984 0.108689
v -2.566803 -0.034546 0.108689
v -2.850521 0.270959 0.108689
v -2.670367 0.270959 0.108689
v -2.475762 0.062789 0.108689
v -2.281639 0.270959 0.108689
v -2.100039 0.270959 0.108689
v -2.385203 -0.034546 0.108689
v -2.850521 -0.338629 0.108689
v -2.475762 -0.132592 0.108689
v -2.100039 -0.338629 0.108689
v -2.670367 -0.338629 0.108689
v -2.281639 -0.338629 0.108689
v -3.569693 -0.338629 0.108689
v -3.569693 0.270959 0.108689
v -3.452641 0.096182 0.108689
v -2.860637 0.270959 0.108689
v -2.979134 0.096182 0.108689
v -2.860637 -0.338629 0.108689
v -3.452641 -0.165984 0.108689
v -2.979134 -0.165984 0.108689
v -4.309577 -0.338629 0.108689
v -4.309577 0.707190 0.108689
v -4.192525 0.707190 0.108689
v -4.192525 0.270959 0.108689
v -4.192525 0.096182 0.108689
v -3.600521 0.270959 0.108689
v -3.719018 0.096182 0.108689
v -3.600521 -0.338629 0.108689
v -4.192525 -0.165984 0.108689
v -3.719018 -0.165984 0.108689
v -4.458903 0.270959 0.108689
v -4.458903 0.707190 0.108689
v -4.340405 0.707190 0.108689
v -4.340405 -0.338629 0.108689
v -5.049461 -0.338629 0.108689
v -5.049461 0.270959 0.108689
v -4.932409 0.096182 0.108689
v -4.458903 0.096182 0.108689
v -4.932409 -0.165984 0.108689
v -4.458903 -0.165984 0.108689
v -5.197342 0.387476 0.108689
v -5.197342 0.561543 0.108689
v -5.080290 0.561543 0.108689
v -5.080290 0.387476 0.108689
v -5.197342 -0.338629 0.108689
v -5.197342 0.270959 0.108689
v -5.080290 0.270959 0.108689
v -5.080290 -0.338629 0.108689
v -5.937226 0.096182 0.108689
v -5.937226 0.707190 0.108689
v -5.820175 0.532413 0.108689
v -5.228170 0.707190 0.108689
v -5.228170 0.532413 0.108689
v -5.820175 0.270959 0.108689
v -5.228170 0.270959 0.108689
v -5.346668 0.096182 0.108689
v -5.228170 -0.338629 0.108689
v -5.346668 -0.165984 0.108689
v -5.937226 -0.338629 0.108689
v -5.937226 -0.165984 0.108689
v -0.239313 -0.238572 -0.111263
v -0.239313 0.607133 -0.111263
v -0.239313 -0.238572 0.108689
v -0.239313 0.607133 0.108689
vn -0.0000 -0.0000 -1.0000
vn -0.0000 -0.0000 1.0000
vn -0.0000 -1.0000 -0.0000
vn 1.0000 -0.0000 -0.0000
vn 0.7270 -0.6866 -0.0000
vn -1.0000 -0.0000 -0.0000
vn -0.0000 1.0000 -0.0000
vn -0.7278 -0.6857 -0.0000
vn 0.7656 -0.6433 -0.0000
vn -0.7328 -0.6805 -0.0000
vn 0.7305 0.6829 -0.0000
vn -0.7313 0.6820 -0.0000
vn 0.7310 -0.6824 -0.0000
vn -0.7312 0.6822 -0.0000
vn 0.7294 0.6841 -0.0000
vn 0.7656 0.6433 -0.0000
vt 0.714286 0.000000
vt 0.857143 0.000000
vt 1.000000 0.000000
vt 0.571429 0.000000
vt 0.142857 0.000000
vt 0.285714 0.000000
vt 0.428571 0.000000
vt 0.000000 0.000000
vt 0.333333 0.000000
vt 0.444444 0.000000
vt 0.888889 0.000000
vt 0.555556 0.000000
vt 0.777778 0.000000
vt 0.666667 0.000000
vt 0.111111 0.000000
vt 0.222222 0.000000
vt 0.454545 0.000000
vt 0.545455 0.000000
vt 0.818182 0.000000
vt 0.636364 0.000000
vt 0.727273 0.000000
vt 0.909091 0.000000
vt 0.363636 0.000000
vt 0.272727 0.000000
vt 0.090909 0.000000
vt 0.181818 0.000000
vt 0.076923 0.000000
vt 0.153846 0.000000
vt 0.615385 0.000000
vt 0.230769 0.000000
vt 0.538462 0.000000
vt 0.307692 0.000000
vt 0.692308 0.000000
vt 0.461538 0.000000
vt 0.923077 0.000000
vt 0.384615 0.000000
vt 0.846154 0.000000
vt 0.769231 0.000000
s 0
usemtl SBX_39
f 6/1/1 7/2/1 8/3/1
f 6/1/1 8/3/1 5/4/1
f 2/5/1 3/6/1 4/7/1
f 2/5/1 4/7/1 1/8/1
f 12/9/1 13/10/1 17/11/1
f 17/11/1 13/10/1 14/12/1
f 17/11/1 14/12/1 16/13/1
f 16/13/1 14/12/1 9/8/1
f 12/9/1 17/11/1 18/3/1
f 15/14/1 16/13/1 9/8/1
f 12/9/1 18/3/1 10/15/1
f 10/15/1 18/3/1 15/14/1
f 10/15/1 15/14/1 9/8/1
f 12/9/1 10/15/1 11/16/1
f 20/5/1 21/6/1 22/7/1
f 20/5/1 22/7/1 23/4/1
f 24/1/1 25/2/1 26/3/1
f 24/1/1 26/3/1 19/8/1
f 20/5/1 23/4/1 24/1/1
f 20/5/1 24/1/1 19/8/1
f 32/17/1 33/18/1 36/19/1
f 36/19/1 33/18/1 34/20/1
f 36/19/1 34/20/1 35/21/1
f 32/17/1 36/19/1 37/22/1
f 32/17/1 37/22/1 38/3/1
f 32/17/1 38/3/1 31/23/1
f 31/23/1 38/3/1 27/8/1
f 30/24/1 31/23/1 27/8/1
f 28/25/1 29/26/1 30/24/1
f 28/25/1 30/24/1 27/8/1
f 40/9/1 41/14/1 42/3/1
f 40/9/1 42/3/1 39/8/1
f 44/9/1 45/14/1 46/3/1
f 44/9/1 46/3/1 43/8/1
f 52/17/1 53/18/1 54/20/1
f 52/17/1 54/20/1 51/23/1
f 51/23/1 54/20/1 47/8/1
f 50/24/1 51/23/1 47/8/1
f 48/25/1 49/26/1 57/22/1
f 57/22/1 49/26/1 50/24/1
f 57/22/1 50/24/1 56/19/1
f 56/19/1 50/24/1 47/8/1
f 48/25/1 57/22/1 58/3/1
f 55/21/1 56/19/1 47/8/1
f 48/25/1 58/3/1 55/21/1
f 48/25/1 55/21/1 47/8/1
f 60/27/1 61/28/1 67/29/1
f 67/29/1 61/28/1 62/30/1
f 67/29/1 62/30/1 66/31/1
f 66/31/1 62/30/1 63/32/1
f 60/27/1 67/29/1 68/33/1
f 65/34/1 66/31/1 63/32/1
f 60/27/1 68/33/1 71/35/1
f 71/35/1 68/33/1 65/34/1
f 71/35/1 65/34/1 63/32/1
f 71/35/1 63/32/1 64/36/1
f 71/35/1 64/36/1 70/37/1
f 70/37/1 64/36/1 59/8/1
f 60/27/1 71/35/1 72/3/1
f 69/38/1 70/37/1 59/8/1
f 60/27/1 72/3/1 69/38/1
f 60/27/1 69/38/1 59/8/1
f 74/9/1 75/14/1 76/3/1
f 74/9/1 76/3/1 73/8/1
f 104/20/1 105/21/1 106/19/1
f 104/20/1 106/19/1 107/22/1
f 107/22/1 108/3/1 97/8/1
f 107/22/1 97/8/1 98/25/1
f 104/20/1 107/22/1 98/25/1
f 103/18/1 104/20/1 98/25/1
f 103/18/1 98/25/1 101/23/1
f 101/23/1 98/25/1 99/26/1
f 103/18/1 101/23/1 102/17/1
f 100/24/1 101/23/1 99/26/1
f 110/5/1 111/6/1 115/2/1
f 115/2/1 111/6/1 112/7/1
f 115/2/1 112/7/1 114/1/1
f 114/1/1 112/7/1 109/8/1
f 110/5/1 115/2/1 116/3/1
f 113/4/1 114/1/1 109/8/1
f 110/5/1 116/3/1 113/4/1
f 110/5/1 113/4/1 109/8/1
f 118/15/1 119/16/1 120/9/1
f 118/15/1 120/9/1 121/10/1
f 118/15/1 121/10/1 125/11/1
f 125/11/1 121/10/1 122/12/1
f 125/11/1 122/12/1 124/13/1
f 124/13/1 122/12/1 117/8/1
f 118/15/1 125/11/1 126/3/1
f 123/14/1 124/13/1 117/8/1
f 118/15/1 126/3/1 123/14/1
f 118/15/1 123/14/1 117/8/1
f 130/9/1 131/10/1 132/12/1
f 130/9/1 132/12/1 127/8/1
f 128/15/1 129/16/1 135/11/1
f 135/11/1 129/16/1 130/9/1
f 135/11/1 130/9/1 134/13/1
f 134/13/1 130/9/1 127/8/1
f 128/15/1 135/11/1 136/3/1
f 133/14/1 134/13/1 127/8/1
f 128/15/1 136/3/1 133/14/1
f 128/15/1 133/14/1 127/8/1
f 142/1/1 143/2/1 144/3/1
f 142/1/1 144/3/1 141/4/1
f 138/5/1 139/6/1 140/7/1
f 138/5/1 140/7/1 137/8/1
f 150/17/1 151/18/1 154/19/1
f 154/19/1 151/18/1 152/20/1
f 154/19/1 152/20/1 153/21/1
f 150/17/1 154/19/1 155/22/1
f 150/17/1 155/22/1 156/3/1
f 150/17/1 156/3/1 149/23/1
f 149/23/1 156/3/1 145/8/1
f 148/24/1 149/23/1 145/8/1
f 146/25/1 147/26/1 148/24/1
f 146/25/1 148/24/1 145/8/1
f 157/1/2 159/3/2 158/2/2
f 157/1/2 160/4/2 159/3/2
f 161/5/2 163/7/2 162/6/2
f 161/5/2 164/8/2 163/7/2
f 165/9/2 167/11/2 166/10/2
f 167/11/2 168/12/2 166/10/2
f 167/11/2 169/13/2 168/12/2
f 169/13/2 170/8/2 168/12/2
f 165/9/2 171/3/2 167/11/2
f 172/14/2 170/8/2 169/13/2
f 165/9/2 173/15/2 171/3/2
f 173/15/2 172/14/2 171/3/2
f 173/15/2 170/8/2 172/14/2
f 165/9/2 174/16/2 173/15/2
f 175/5/2 177/7/2 176/6/2
f 175/5/2 178/4/2 177/7/2
f 179/1/2 181/3/2 180/2/2
f 179/1/2 182/8/2 181/3/2
f 175/5/2 179/1/2 178/4/2
f 175/5/2 182/8/2 179/1/2
f 183/17/2 185/19/2 184/18/2
f 185/19/2 186/20/2 184/18/2
f 185/19/2 187/21/2 186/20/2
f 183/17/2 188/22/2 185/19/2
f 183/17/2 189/3/2 188/22/2
f 183/17/2 190/23/2 189/3/2
f 190/23/2 191/8/2 189/3/2
f 192/24/2 191/8/2 190/23/2
f 193/25/2 192/24/2 194/26/2
f 193/25/2 191/8/2 192/24/2
f 195/9/2 197/3/2 196/14/2
f 195/9/2 198/8/2 197/3/2
f 199/9/2 201/3/2 200/14/2
f 199/9/2 202/8/2 201/3/2
f 203/17/2 205/20/2 204/18/2
f 203/17/2 206/23/2 205/20/2
f 206/23/2 207/8/2 205/20/2
f 208/24/2 207/8/2 206/23/2
f 209/25/2 211/22/2 210/26/2
f 211/22/2 208/24/2 210/26/2
f 211/22/2 212/19/2 208/24/2
f 212/19/2 207/8/2 208/24/2
f 209/25/2 213/3/2 211/22/2
f 214/21/2 207/8/2 212/19/2
f 209/25/2 214/21/2 213/3/2
f 209/25/2 207/8/2 214/21/2
f 215/27/2 217/29/2 216/28/2
f 217/29/2 218/30/2 216/28/2
f 217/29/2 219/31/2 218/30/2
f 219/31/2 220/32/2 218/30/2
f 215/27/2 221/33/2 217/29/2
f 222/34/2 220/32/2 219/31/2
f 215/27/2 223/35/2 221/33/2
f 223/35/2 222/34/2 221/33/2
f 223/35/2 220/32/2 222/34/2
f 223/35/2 224/36/2 220/32/2
f 223/35/2 225/37/2 224/36/2
f 225/37/2 226/8/2 224/36/2
f 215/27/2 227/3/2 223/35/2
f 228/38/2 226/8/2 225/37/2
f 215/27/2 228/38/2 227/3/2
f 215/27/2 226/8/2 228/38/2
f 229/9/2 231/3/2 230/14/2
f 229/9/2 232/8/2 231/3/2
f 253/20/2 255/19/2 254/21/2
f 253/20/2 256/22/2 255/19/2
f 256/22/2 258/8/2 257/3/2
f 256/22/2 259/25/2 258/8/2
f 253/20/2 259/25/2 256/22/2
f 260/18/2 259/25/2 253/20/2
f 260/18/2 261/23/2 259/25/2
f 261/23/2 262/26/2 259/25/2
f 260/18/2 263/17/2 261/23/2
f 264/24/2 262/26/2 261/23/2
f 265/5/2 267/2/2 266/6/2
f 267/2/2 268/7/2 266/6/2
f 267/2/2 269/1/2 268/7/2
f 269/1/2 270/8/2 268/7/2
f 265/5/2 271/3/2 267/2/2
f 272/4/2 270/8/2 269/1/2
f 265/5/2 272/4/2 271/3/2
f 265/5/2 270/8/2 272/4/2
f 273/15/2 275/9/2 274/16/2
f 273/15/2 276/10/2 275/9/2
f 273/15/2 277/11/2 276/10/2
f 277/11/2 278/12/2 276/10/2
f 277/11/2 279/13/2 278/12/2
f 279/13/2 280/8/2 278/12/2
f 273/15/2 281/3/2 277/11/2
f 282/14/2 280/8/2 279/13/2
f 273/15/2 282/14/2 281/3/2
f 273/15/2 280/8/2 282/14/2
f 283/9/2 285/12/2 284/10/2
f 283/9/2 286/8/2 285/12/2
f 287/15/2 289/11/2 288/16/2
f 289/11/2 283/9/2 288/16/2
f 289/11/2 290/13/2 283/9/2
f 290/13/2 286/8/2 283/9/2
f 287/15/2 291/3/2 289/11/2
f 292/14/2 286/8/2 290/13/2
f 287/15/2 292/14/2 291/3/2
f 287/15/2 286/8/2 292/14/2
f 293/1/2 295/3/2 294/2/2
f 293/1/2 296/4/2 295/3/2
f 297/5/2 299/7/2 298/6/2
f 297/5/2 300/8/2 299/7/2
f 301/17/2 303/19/2 302/18/2
f 303/19/2 304/20/2 302/18/2
f 303/19/2 305/21/2 304/20/2
f 301/17/2 306/22/2 303/19/2
f 301/17/2 307/3/2 306/22/2
f 301/17/2 308/23/2 307/3/2
f 308/23/2 309/8/2 307/3/2
f 310/24/2 309/8/2 308/23/2
f 311/25/2 310/24/2 312/26/2
f 311/25/2 309/8/2 310/24/2
f 102/17/3 260/18/3 103/18/3
f 22/7/4 178/4/4 23/4/4
f 101/23/5 263/17/5 102/17/5
f 24/1/6 180/2/6 25/2/6
f 49/26/7 208/24/7 50/24/7
f 100/24/8 261/23/8 101/23/8
f 135/11/4 291/3/4 136/3/4
f 56/19/3 211/22/3 57/22/3
f 99/26/3 264/24/3 100/24/3
f 25/2/7 181/3/7 26/3/7
f 133/14/6 290/13/6 134/13/6
f 110/5/6 266/6/6 111/6/6
f 26/3/4 182/8/4 19/8/4
f 136/3/7 292/14/7 133/14/7
f 57/22/4 213/3/4 58/3/4
f 23/4/7 179/1/7 24/1/7
f 127/8/3 287/15/3 128/15/3
f 55/21/6 212/19/6 56/19/6
f 111/6/7 268/7/7 112/7/7
f 19/8/3 175/5/3 20/5/3
f 142/1/6 294/2/6 143/2/6
f 114/1/3 267/2/3 115/2/3
f 32/17/6 184/18/6 33/18/6
f 143/2/7 295/3/7 144/3/7
f 58/3/7 214/21/7 55/21/7
f 141/4/3 293/1/3 142/1/3
f 47/8/3 209/25/3 48/25/3
f 112/7/4 270/8/4 109/8/4
f 144/3/4 296/4/4 141/4/4
f 60/27/6 216/28/6 61/28/6
f 33/18/7 186/20/7 34/20/7
f 138/5/6 298/6/6 139/6/6
f 115/2/4 271/3/4 116/3/4
f 35/21/3 185/19/3 36/19/3
f 113/4/6 269/1/6 114/1/6
f 34/20/4 187/21/4 35/21/4
f 139/6/7 299/7/7 140/7/7
f 137/8/3 297/5/3 138/5/3
f 61/28/7 218/30/7 62/30/7
f 36/19/4 188/22/4 37/22/4
f 140/7/4 300/8/4 137/8/4
f 6/1/6 158/2/6 7/2/6
f 66/31/3 217/29/3 67/29/3
f 116/3/7 272/4/7 113/4/7
f 150/17/6 302/18/6 151/18/6
f 109/8/3 265/5/3 110/5/3
f 37/22/7 189/3/7 38/3/7
f 7/2/7 159/3/7 8/3/7
f 118/15/6 274/16/6 119/16/6
f 31/23/3 183/17/3 32/17/3
f 5/4/3 157/1/3 6/1/3
f 62/30/4 220/32/4 63/32/4
f 8/3/4 160/4/4 5/4/4
f 119/16/7 275/9/7 120/9/7
f 151/18/7 304/20/7 152/20/7
f 2/5/6 162/6/6 3/6/6
f 67/29/4 221/33/4 68/33/4
f 38/3/4 191/8/4 27/8/4
f 153/21/3 303/19/3 154/19/3
f 65/34/6 219/31/6 66/31/6
f 120/9/4 276/10/4 121/10/4
f 30/24/6 190/23/6 31/23/6
f 152/20/4 305/21/4 153/21/4
f 3/6/7 163/7/7 4/7/7
f 1/8/3 161/5/3 2/5/3
f 28/25/6 194/26/6 29/26/6
f 154/19/4 306/22/4 155/22/4
f 4/7/4 164/8/4 1/8/4
f 12/9/6 166/10/6 13/10/6
f 121/10/7 278/12/7 122/12/7
f 29/26/7 192/24/7 30/24/7
f 155/22/7 307/3/7 156/3/7
f 68/33/7 222/34/7 65/34/7
f 124/13/3 277/11/3 125/11/3
f 27/8/3 193/25/3 28/25/3
f 149/23/3 301/17/3 150/17/3
f 40/9/6 196/14/6 41/14/6
f 13/10/7 168/12/7 14/12/7
f 63/32/7 224/36/7 64/36/7
f 122/12/4 280/8/4 117/8/4
f 41/14/7 197/3/7 42/3/7
f 156/3/4 309/8/4 145/8/4
f 16/13/3 167/11/3 17/11/3
f 70/37/3 223/35/3 71/35/3
f 39/8/3 195/9/3 40/9/3
f 148/24/6 308/23/6 149/23/6
f 125/11/4 281/3/4 126/3/4
f 42/3/4 198/8/4 39/8/4
f 104/20/10 254/21/10 105/21/10
f 123/14/6 279/13/6 124/13/6
f 44/9/6 200/14/6 45/14/6
f 146/25/6 312/26/6 147/26/6
f 14/12/4 170/8/4 9/8/4
f 64/36/4 226/8/4 59/8/4
f 105/21/7 255/19/7 106/19/7
f 45/14/7 201/3/7 46/3/7
f 147/26/7 310/24/7 148/24/7
f 17/11/4 171/3/4 18/3/4
f 71/35/4 227/3/4 72/3/4
f 126/3/7 282/14/7 123/14/7
f 43/8/3 199/9/3 44/9/3
f 106/19/11 256/22/11 107/22/11
f 145/8/3 311/25/3 146/25/3
f 15/14/6 169/13/6 16/13/6
f 69/38/6 225/37/6 70/37/6
f 117/8/3 273/15/3 118/15/3
f 46/3/4 202/8/4 43/8/4
f 107/22/12 257/3/12 108/3/12
f 130/9/6 284/10/6 131/10/6
f 52/17/6 204/18/6 53/18/6
f 108/3/7 258/8/7 97/8/7
f 72/3/7 228/38/7 69/38/7
f 131/10/7 285/12/7 132/12/7
f 53/18/7 205/20/7 54/20/7
f 59/8/3 215/27/3 60/27/3
f 51/23/3 203/17/3 52/17/3
f 97/8/13 259/25/13 98/25/13
f 18/3/7 172/14/7 15/14/7
f 74/9/6 230/14/6 75/14/6
f 132/12/4 286/8/4 127/8/4
f 9/8/3 173/15/3 10/15/3
f 128/15/6 288/16/6 129/16/6
f 103/18/14 253/20/14 104/20/14
f 11/16/3 165/9/3 12/9/3
f 75/14/7 231/3/7 76/3/7
f 54/20/4 207/8/4 47/8/4
f 10/15/4 174/16/4 11/16/4
f 73/8/3 229/9/3 74/9/3
f 50/24/6 206/23/6 51/23/6
f 20/5/6 176/6/6 21/6/6
f 76/3/4 232/8/4 73/8/4
f 129/16/7 283/9/7 130/9/7
f 48/25/6 210/26/6 49/26/6
f 21/6/7 177/7/7 22/7/7
f 134/13/3 289/11/3 135/11/3
f 98/25/15 262/26/15 99/26/15
f 102/17/3 263/17/3 260/18/3
f 22/7/4 177/7/4 178/4/4
f 101/23/5 261/23/5 263/17/5
f 24/1/6 179/1/6 180/2/6
f 49/26/7 210/26/7 208/24/7
f 100/24/8 264/24/8 261/23/8
f 135/11/4 289/11/4 291/3/4
f 56/19/3 212/19/3 211/22/3
f 99/26/3 262/26/3 264/24/3
f 25/2/7 180/2/7 181/3/7
f 133/14/6 292/14/6 290/13/6
f 110/5/6 265/5/6 266/6/6
f 26/3/4 181/3/4 182/8/4
f 136/3/7 291/3/7 292/14/7
f 57/22/4 211/22/4 213/3/4
f 23/4/7 178/4/7 179/1/7
f 127/8/3 286/8/3 287/15/3
f 55/21/6 214/21/6 212/19/6
f 111/6/7 266/6/7 268/7/7
f 19/8/3 182/8/3 175/5/3
f 142/1/6 293/1/6 294/2/6
f 114/1/3 269/1/3 267/2/3
f 32/17/6 183/17/6 184/18/6
f 143/2/7 294/2/7 295/3/7
f 58/3/7 213/3/7 214/21/7
f 141/4/3 296/4/3 293/1/3
f 47/8/3 207/8/3 209/25/3
f 112/7/4 268/7/4 270/8/4
f 144/3/4 295/3/4 296/4/4
f 60/27/6 215/27/6 216/28/6
f 33/18/7 184/18/7 186/20/7
f 138/5/6 297/5/6 298/6/6
f 115/2/4 267/2/4 271/3/4
f 35/21/3 187/21/3 185/19/3
f 113/4/6 272/4/6 269/1/6
f 34/20/4 186/20/4 187/21/4
f 139/6/7 298/6/7 299/7/7
f 137/8/3 300/8/3 297/5/3
f 61/28/7 216/28/7 218/30/7
f 36/19/4 185/19/4 188/22/4
f 140/7/4 299/7/4 300/8/4
f 6/1/6 157/1/6 158/2/6
f 66/31/3 219/31/3 217/29/3
f 116/3/7 271/3/7 272/4/7
f 150/17/6 301/17/6 302/18/6
f 109/8/3 270/8/3 265/5/3
f 37/22/7 188/22/7 189/3/7
f 7/2/7 158/2/7 159/3/7
f 118/15/6 273/15/6 274/16/6
f 31/23/3 190/23/3 183/17/3
f 5/4/3 160/4/3 157/1/3
f 62/30/4 218/30/4 220/32/4
f 8/3/4 159/3/4 160/4/4
f 119/16/7 274/16/7 275/9/7
f 151/18/7 302/18/7 304/20/7
f 2/5/6 161/5/6 162/6/6
f 67/29/4 217/29/4 221/33/4
f 38/3/4 189/3/4 191/8/4
f 153/21/3 305/21/3 303/19/3
f 65/34/6 222/34/6 219/31/6
f 120/9/4 275/9/4 276/10/4
f 30/24/6 192/24/6 190/23/6
f 152/20/4 304/20/4 305/21/4
f 3/6/7 162/6/7 163/7/7
f 1/8/3 164/8/3 161/5/3
f 28/25/6 193/25/6 194/26/6
f 154/19/4 303/19/4 306/22/4
f 4/7/4 163/7/4 164/8/4
f 12/9/6 165/9/6 166/10/6
f 121/10/7 276/10/7 278/12/7
f 29/26/7 194/26/7 192/24/7
f 155/22/7 306/22/7 307/3/7
f 68/33/7 221/33/7 222/34/7
f 124/13/3 279/13/3 277/11/3
f 27/8/3 191/8/3 193/25/3
f 149/23/3 308/23/3 301/17/3
f 40/9/6 195/9/6 196/14/6
f 13/10/7 166/10/7 168/12/7
f 63/32/7 220/32/7 224/36/7
f 122/12/4 278/12/4 280/8/4
f 41/14/7 196/14/7 197/3/7
f 156/3/4 307/3/4 309/8/4
f 16/13/3 169/13/3 167/11/3
f 70/37/3 225/37/3 223/35/3
f 39/8/3 198/8/3 195/9/3
f 148/24/6 310/24/6 308/23/6
f 125/11/4 277/11/4 281/3/4
f 42/3/4 197/3/4 198/8/4
f 104/20/10 253/20/10 254/21/10
f 123/14/6 282/14/6 279/13/6
f 44/9/6 199/9/6 200/14/6
f 146/25/6 311/25/6 312/26/6
f 14/12/4 168/12/4 170/8/4
f 64/36/4 224/36/4 226/8/4
f 105/21/7 254/21/7 255/19/7
f 45/14/7 200/14/7 201/3/7
f 147/26/7 312/26/7 310/24/7
f 17/11/4 167/11/4 171/3/4
f 71/35/4 223/35/4 227/3/4
f 126/3/7 281/3/7 282/14/7
f 43/8/3 202/8/3 199/9/3
f 106/19/11 255/19/11 256/22/11
f 145/8/3 309/8/3 311/25/3
f 15/14/6 172/14/6 169/13/6
f 69/38/6 228/38/6 225/37/6
f 117/8/3 280/8/3 273/15/3
f 46/3/4 201/3/4 202/8/4
f 107/22/12 256/22/12 257/3/12
f 130/9/6 283/9/6 284/10/6
f 52/17/6 203/17/6 204/18/6
f 108/3/7 257/3/7 258/8/7
f 72/3/7 227/3/7 228/38/7
f 131/10/7 284/10/7 285/12/7
f 53/18/7 204/18/7 205/20/7
f 59/8/3 226/8/3 215/27/3
f 51/23/3 206/23/3 203/17/3
f 97/8/13 258/8/13 259/25/13
f 18/3/7 171/3/7 172/14/7
f 74/9/6 229/9/6 230/14/6
f 132/12/4 285/12/4 286/8/4
f 9/8/3 170/8/3 173/15/3
f 128/15/6 287/15/6 288/16/6
f 103/18/14 260/18/14 253/20/14
f 11/16/3 174/16/3 165/9/3
f 75/14/7 230/14/7 231/3/7
f 54/20/4 205/20/4 207/8/4
f 10/15/4 173/15/4 174/16/4
f 73/8/3 232/8/3 229/9/3
f 50/24/6 208/24/6 206/23/6
f 20/5/6 175/5/6 176/6/6
f 76/3/4 231/3/4 232/8/4
f 129/16/7 288/16/7 283/9/7
f 48/25/6 209/25/6 210/26/6
f 21/6/7 176/6/7 177/7/7
f 134/13/3 290/13/3 289/11/3
f 98/25/15 259/25/15 262/26/15
usemtl SBX_37
f 78/5/1 79/6/1 83/2/1
f 83/2/1 79/6/1 80/7/1
f 83/2/1 80/7/1 82/1/1
f 82/1/1 80/7/1 77/8/1
f 78/5/1 83/2/1 84/3/1
f 81/4/1 82/1/1 77/8/1
f 78/5/1 84/3/1 81/4/1
f 78/5/1 81/4/1 77/8/1
f 94/19/1 95/22/1 96/3/1
f 94/19/1 96/3/1 93/21/1
f 93/21/1 96/3/1 85/8/1
f 92/20/1 93/21/1 85/8/1
f 90/17/1 91/18/1 92/20/1
f 90/17/1 92/20/1 89/23/1
f 89/23/1 92/20/1 85/8/1
f 88/24/1 89/23/1 85/8/1
f 86/25/1 87/26/1 88/24/1
f 86/25/1 88/24/1 85/8/1
f 233/5/2 235/2/2 234/6/2
f 235/2/2 236/7/2 234/6/2
f 235/2/2 237/1/2 236/7/2
f 237/1/2 238/8/2 236/7/2
f 233/5/2 239/3/2 235/2/2
f 240/4/2 238/8/2 237/1/2
f 233/5/2 240/4/2 239/3/2
f 233/5/2 238/8/2 240/4/2
f 241/19/2 243/3/2 242/22/2
f 241/19/2 244/21/2 243/3/2
f 244/21/2 245/8/2 243/3/2
f 246/20/2 245/8/2 244/21/2
f 247/17/2 246/20/2 248/18/2
f 247/17/2 249/23/2 246/20/2
f 249/23/2 245/8/2 246/20/2
f 250/24/2 245/8/2 249/23/2
f 251/25/2 250/24/2 252/26/2
f 251/25/2 245/8/2 250/24/2
f 79/6/7 236/7/7 80/7/7
f 82/1/3 235/2/3 83/2/3
f 77/8/9 315/8/9 238/8/9
f 83/2/4 239/3/4 84/3/4
f 81/4/6 237/1/6 82/1/6
f 84/3/7 240/4/7 81/4/7
f 77/8/3 233/5/3 78/5/3
f 94/19/6 242/22/6 95/22/6
f 95/22/7 243/3/7 96/3/7
f 93/21/3 241/19/3 94/19/3
f 96/3/4 245/8/4 85/8/4
f 92/20/6 244/21/6 93/21/6
f 90/17/6 248/18/6 91/18/6
f 91/18/7 246/20/7 92/20/7
f 89/23/3 247/17/3 90/17/3
f 88/24/6 249/23/6 89/23/6
f 86/25/6 252/26/6 87/26/6
f 87/26/7 250/24/7 88/24/7
f 85/8/3 251/25/3 86/25/3
f 78/5/6 234/6/6 79/6/6
f 314/7/4 315/8/4 313/8/4
f 236/7/16 314/7/16 80/7/16
f 238/8/2 316/7/2 236/7/2
f 80/7/1 313/8/1 77/8/1
f 79/6/7 234/6/7 236/7/7
f 82/1/3 237/1/3 235/2/3
f 77/8/9 313/8/9 315/8/9
f 83/2/4 235/2/4 239/3/4
f 81/4/6 240/4/6 237/1/6
f 84/3/7 239/3/7 240/4/7
f 77/8/3 238/8/3 233/5/3
f 94/19/6 241/19/6 242/22/6
f 95/22/7 242/22/7 243/3/7
f 93/21/3 244/21/3 241/19/3
f 96/3/4 243/3/4 245/8/4
f 92/20/6 246/20/6 244/21/6
f 90/17/6 247/17/6 248/18/6
f 91/18/7 248/18/7 246/20/7
f 89/23/3 249/23/3 247/17/3
f 88/24/6 250/24/6 249/23/6
f 86/25/6 251/25/6 252/26/6
f 87/26/7 252/26/7 250/24/7
f 85/8/3 245/8/3 251/25/3
f 78/5/6 233/5/6 234/6/6
f 314/7/4 316/7/4 315/8/4
f 236/7/16 316/7/16 314/7/16
f 238/8/2 315/8/2 316/7/2
f 80/7/1 314/7/1 313/8/1
