# Blender 5.0.1
# www.blender.org
mtllib turret1.mtl
o Cube
v 0.322866 -0.000000 -1.000000
v 0.548577 -0.000000 -1.200000
v 1.000000 -0.000000 -0.333333
v 1.000000 -0.000000 0.333333
v 1.200000 -0.000000 0.548435
v -1.000000 -0.000000 0.333333
v -1.000000 -0.000000 -0.333333
v -1.200000 -0.000000 -0.555556
v -1.000000 0.281206 -0.333333
v -1.000000 0.281206 0.333333
v -0.613833 1.385693 0.203545
v -0.613833 1.385693 -0.204466
v 1.000000 0.281206 0.333333
v 1.000000 0.281206 -0.333333
v 0.610199 1.385693 -0.204466
v 0.610199 1.385693 0.203545
v 0.322866 0.281206 -1.000000
v -0.343801 0.281206 -1.000000
v -0.212229 1.385693 -0.612477
v 0.195782 1.385693 -0.612477
v -0.343801 0.281206 1.000000
v 0.322866 0.281206 1.000000
v 0.195782 1.385693 0.611556
v -0.212229 1.385693 0.611556
v -1.200000 0.281206 0.548435
v -1.200000 0.281206 0.770657
v 0.732603 1.524928 0.335190
v 0.732603 1.524928 0.471194
v -0.736237 1.524928 0.471194
v -0.736237 1.524928 0.335190
v 1.200000 0.281206 0.770657
v 1.200000 0.281206 0.548435
v -0.736237 1.524928 -0.340470
v -0.736237 1.524928 -0.476473
v 1.200000 0.281206 -0.555556
v 1.200000 0.281206 -0.777778
v -1.200000 0.281206 -0.777778
v -1.200000 0.281206 -0.555556
v 0.732603 1.524928 -0.476473
v 0.732603 1.524928 -0.340470
v 0.333921 1.524928 -0.734880
v 0.472060 1.524928 -0.734880
v 0.548577 0.281206 1.200000
v 0.774289 0.281206 1.200000
v 0.774289 0.281206 -1.200000
v 0.548577 0.281206 -1.200000
v 0.472060 1.524928 0.733959
v 0.333921 1.524928 0.733959
v -0.569698 0.281206 -1.200000
v -0.788431 0.281206 -1.200000
v -0.350481 1.524928 0.733959
v -0.484349 1.524928 0.733959
v -0.484349 1.524928 -0.734880
v -0.350481 1.524928 -0.734880
v -0.788431 0.281206 1.200000
v -0.569698 0.281206 1.200000
v -0.788431 -0.000000 -1.200000
v -0.569698 -0.000000 -1.200000
v -0.788431 -0.000000 1.200000
v 0.548577 -0.000000 1.200000
v -1.200000 -0.000000 -0.777778
v 0.774289 -0.000000 1.200000
v 1.200000 -0.000000 -0.555556
v 1.200000 -0.000000 0.770657
v 0.774289 -0.000000 -1.200000
v 1.200000 -0.000000 -0.777778
v -1.200000 -0.000000 0.770657
v -1.200000 -0.000000 0.548435
v 0.322866 -0.000000 1.000000
v -0.343801 -0.000000 1.000000
v -0.569698 -0.000000 1.200000
v -0.343801 -0.000000 -1.000000
vn 0.7323 -0.0000 -0.6809
vn -0.0000 -0.0000 1.0000
vn -0.4241 0.7977 0.4287
vn 0.7335 0.1615 0.6602
vn 0.9430 0.3328 -0.0000
vn -0.7236 0.1545 -0.6728
vn -0.9440 0.3300 -0.0000
vn -0.6542 0.1638 0.7383
vn -0.0000 0.3318 0.9434
vn 0.6542 0.1610 -0.7389
vn -0.0000 0.3311 -0.9436
vn 0.6454 0.4002 -0.6507
vn -0.9370 0.3494 -0.0000
vn 0.7233 0.1565 -0.6725
vn 0.9361 0.3518 -0.0000
vn 0.6508 0.4000 0.6453
vn -0.7338 0.1594 0.6604
vn -0.6618 0.3995 0.6344
vn -0.0000 0.3509 0.9364
vn -0.6543 0.1632 -0.7384
vn -0.0000 0.3503 -0.9366
vn -0.7323 -0.0000 -0.6809
vn -1.0000 -0.0000 -0.0000
vn 1.0000 -0.0000 -0.0000
vn -0.6632 -0.0000 0.7484
vn 0.7101 -0.0000 0.7041
vn -0.0000 -0.0000 -1.0000
vn -0.7219 -0.0000 0.6920
vn -0.6564 0.3998 -0.6398
vn -0.6632 -0.0000 -0.7484
vn 0.7433 -0.0000 0.6690
vn 0.7042 -0.0000 -0.7100
vn -0.7433 -0.0000 0.6690
vn -0.7161 -0.0000 -0.6980
vn 0.6629 -0.0000 -0.7487
vn 0.6629 -0.0000 0.7487
vn 0.6542 0.1616 0.7389
vn 0.4295 0.7980 0.4227
vn -0.0000 1.0000 -0.0000
vn 0.4335 0.7952 0.4240
vn 0.4367 0.7903 -0.4298
vn 0.4330 0.7982 -0.4189
vn -0.4231 0.7976 -0.4298
vn -0.4332 0.7904 -0.4331
vn 0.6567 0.1454 0.7400
vn -0.6479 0.1385 -0.7490
vn -0.7353 0.1480 0.6614
vn 0.7339 0.1454 -0.6635
vn 0.6468 0.1402 -0.7497
vn -0.6579 0.1438 0.7393
vn -0.7351 0.1476 -0.6617
vn 0.7341 0.1458 0.6632
vn -0.0000 -1.0000 -0.0000
vn -0.7510 0.6603 -0.0000
vn -0.4251 0.7955 0.4318
vt 0.375000 0.693554
vt 0.375000 0.666667
vt 0.375000 0.806428
vt 0.375000 0.778214
vt 0.625000 0.443572
vt 0.625000 0.415358
vt 0.625000 0.555556
vt 0.375000 0.583333
vt 0.375000 0.555556
vt 0.625000 0.666667
vt 0.625000 0.056446
vt 0.375000 0.083333
vt 0.375000 0.056446
vt 0.625000 0.083333
vt 0.375000 0.166667
vt 0.625000 0.806428
vt 0.375000 0.834642
vt 0.625000 0.917975
vt 0.375000 0.917975
vt 0.625000 0.303788
vt 0.375000 0.332025
vt 0.375000 0.303788
vt 0.625000 0.332025
vt 0.375000 0.415358
vt 0.375000 0.471786
vt 0.625000 0.527778
vt 0.375000 0.527778
vt 0.625000 0.028668
vt 0.375000 0.028668
vt 0.625000 0.693554
vt 0.625000 0.721332
vt 0.375000 0.721332
vt 0.625000 0.778214
vt 0.625000 0.194444
vt 0.375000 0.194444
vt 0.625000 0.222222
vt 0.375000 0.222222
vt 0.625000 0.973554
vt 0.375000 0.443572
vt 0.625000 0.471786
vt 0.375000 0.973554
vt 0.375000 0.946212
vt 0.625000 0.276446
vt 0.375000 0.276446
vt 0.625000 0.946212
vt 0.625000 0.166667
vt 0.625000 0.834642
vt 0.625000 0.583333
s 0
usemtl SBX_49
f 32/1/1 4/2/1 13/2/1
f 43/3/2 62/4/2 44/4/2
f 41/5/3 20/6/3 40/7/3
f 40/7/4 14/8/4 35/9/4
f 30/11/6 10/12/6 25/13/6
f 48/16/8 22/17/8 43/3/8
f 54/20/10 18/21/10 49/22/10
f 45/25/12 39/26/12 36/27/12
f 29/28/13 25/13/13 26/29/13
f 13/2/14 27/30/14 32/1/14
f 32/1/15 28/31/15 31/32/15
f 31/32/16 47/33/16 44/4/16
f 39/26/15 35/9/15 36/27/15
f 9/15/17 33/34/17 38/35/17
f 38/35/13 34/36/13 37/37/13
f 26/29/18 52/38/18 29/28/18
f 47/33/19 43/3/19 44/4/19
f 17/24/20 41/5/20 46/39/20
f 46/39/21 42/40/21 45/25/21
f 10/12/22 68/13/22 25/13/22
f 37/37/23 8/35/23 38/35/23
f 31/32/24 5/1/24 32/1/24
f 22/17/25 60/3/25 43/3/25
f 44/4/26 64/32/26 31/32/26
f 45/25/27 2/39/27 46/39/27
f 55/41/2 71/42/2 56/42/2
f 35/9/24 66/27/24 36/27/24
f 26/29/28 59/41/28 55/41/28
f 37/37/29 53/43/29 50/44/29
f 53/43/21 49/22/21 50/44/21
f 46/39/30 1/24/30 17/24/30
f 14/8/31 63/9/31 35/9/31
f 36/27/32 65/25/32 45/25/32
f 38/35/33 7/15/33 9/15/33
f 49/22/27 57/44/27 50/44/27
f 50/44/34 61/37/34 37/37/34
f 18/21/35 58/22/35 49/22/35
f 56/42/36 70/19/36 21/19/36
f 25/13/23 67/29/23 26/29/23
f 21/19/37 51/45/37 56/42/37
f 56/42/19 52/38/19 55/41/19
f 54/20/38 12/46/38 19/23/38
f 20/6/39 19/23/39 12/46/39
f 33/34/40 12/46/40 54/20/40
f 30/11/41 24/18/41 11/14/41
f 32/1/1 5/1/1 4/2/1
f 43/3/2 60/3/2 62/4/2
f 51/45/42 24/18/42 30/11/42
f 48/16/43 16/10/43 23/47/43
f 27/30/44 16/10/44 48/16/44
f 40/7/45 15/48/45 14/8/45
f 30/11/46 11/14/46 10/12/46
f 48/16/47 23/47/47 22/17/47
f 54/20/48 19/23/48 18/21/48
f 45/25/12 42/40/12 39/26/12
f 29/28/13 30/11/13 25/13/13
f 13/2/49 16/10/49 27/30/49
f 32/1/15 27/30/15 28/31/15
f 31/32/16 28/31/16 47/33/16
f 39/26/15 40/7/15 35/9/15
f 9/15/50 12/46/50 33/34/50
f 38/35/13 33/34/13 34/36/13
f 26/29/18 55/41/18 52/38/18
f 47/33/19 48/16/19 43/3/19
f 17/24/51 20/6/51 41/5/51
f 46/39/21 41/5/21 42/40/21
f 10/12/22 6/12/22 68/13/22
f 37/37/23 61/37/23 8/35/23
f 31/32/24 64/32/24 5/1/24
f 22/17/25 69/17/25 60/3/25
f 44/4/26 62/4/26 64/32/26
f 45/25/27 65/25/27 2/39/27
f 55/41/2 59/41/2 71/42/2
f 35/9/24 63/9/24 66/27/24
f 26/29/28 67/29/28 59/41/28
f 37/37/29 34/36/29 53/43/29
f 53/43/21 54/20/21 49/22/21
f 46/39/30 2/39/30 1/24/30
f 14/8/31 3/8/31 63/9/31
f 36/27/32 66/27/32 65/25/32
f 38/35/33 8/35/33 7/15/33
f 49/22/27 58/22/27 57/44/27
f 50/44/34 57/44/34 61/37/34
f 18/21/35 72/21/35 58/22/35
f 56/42/36 71/42/36 70/19/36
f 25/13/23 68/13/23 67/29/23
f 21/19/52 24/18/52 51/45/52
f 56/42/19 51/45/19 52/38/19
f 47/33/39 27/30/39 48/16/39
f 28/31/39 27/30/39 47/33/39
f 40/7/53 41/5/53 39/26/53
f 12/46/39 11/14/39 23/47/39
f 11/14/39 24/18/39 23/47/39
f 23/47/39 16/10/39 20/6/39
f 12/46/39 23/47/39 20/6/39
f 16/10/39 15/48/39 20/6/39
f 42/40/39 41/5/39 39/26/39
f 53/43/39 33/34/39 54/20/39
f 15/48/54 40/7/54 39/26/54
f 52/38/39 51/45/39 29/28/39
f 34/36/39 33/34/39 53/43/39
f 30/11/39 29/28/39 51/45/39
f 20/6/55 15/48/55 40/7/55
usemtl SBX_40
f 14/8/5 16/10/5 13/2/5
f 11/14/7 9/15/7 10/12/7
f 22/17/9 24/18/9 21/19/9
f 19/23/11 17/24/11 18/21/11
f 17/24/27 72/21/27 18/21/27
f 9/15/23 6/12/23 10/12/23
f 21/19/2 69/17/2 22/17/2
f 13/2/24 3/8/24 14/8/24
f 14/8/5 15/48/5 16/10/5
f 11/14/7 12/46/7 9/15/7
f 22/17/9 23/47/9 24/18/9
f 19/23/11 20/6/11 17/24/11
f 17/24/27 1/24/27 72/21/27
f 9/15/23 7/15/23 6/12/23
f 21/19/2 70/19/2 69/17/2
f 13/2/24 4/2/24 3/8/24
o Icosphere
v 0.604504 1.906597 0.439193
v -0.230896 1.906597 0.710636
v -0.747207 1.906600 0.000000
v -0.230896 1.906597 -0.710636
v 0.604504 1.906597 -0.439193
v 0.230896 2.653815 0.710636
v -0.604504 2.653815 0.439193
v -0.604504 2.653815 -0.439193
v 0.230896 2.653815 -0.710636
v 0.747207 2.653812 0.000000
v 0.000000 3.115610 0.000000
v -0.135716 1.569566 0.417698
v 0.355316 1.569566 0.258149
v 0.219602 1.841003 0.675851
v 0.710635 1.841004 0.000000
v 0.355316 1.569566 -0.258149
v -0.439197 1.569568 0.000000
v -0.574916 1.841004 0.417699
v -0.135716 1.569566 -0.417698
v -0.574916 1.841004 -0.417699
v 0.219602 1.841003 -0.675851
v 0.794517 2.280206 0.258150
v 0.794517 2.280206 -0.258150
v 0.000000 2.280206 0.835404
v 0.491038 2.280206 0.675856
v -0.794517 2.280206 0.258150
v -0.491038 2.280206 0.675856
v -0.491038 2.280206 -0.675856
v -0.794517 2.280206 -0.258150
v 0.491038 2.280206 -0.675856
v 0.000000 2.280206 -0.835404
v 0.574916 2.719408 0.417699
v -0.219602 2.719409 0.675851
v -0.710635 2.719408 0.000000
v -0.219602 2.719409 -0.675851
v 0.574916 2.719408 -0.417699
v 0.135716 2.990846 0.417698
v 0.439197 2.990844 0.000000
v -0.355316 2.990846 0.258149
v -0.355316 2.990846 -0.258149
v 0.135716 2.990846 -0.417698
v -0.135716 1.385693 0.417698
v 0.355316 1.385693 0.258149
v 0.355316 1.385693 -0.258149
v -0.439197 1.385695 0.000000
v -0.135716 1.385693 -0.417698
vn 0.7002 -0.6617 0.2680
vn 0.9050 -0.3304 0.2680
vn 0.0247 -0.3304 0.9435
vn -0.8897 -0.3304 0.3151
vn -0.5746 -0.3304 -0.7488
vn 0.5346 -0.3304 -0.7779
vn 0.8026 -0.1256 0.5831
vn -0.3066 -0.1256 0.9435
vn -0.9921 -0.1256 -0.0000
vn -0.3066 -0.1256 -0.9435
vn 0.8026 -0.1256 -0.5831
vn 0.4089 0.6617 0.6284
vn -0.4713 0.6617 0.5831
vn -0.7002 0.6617 -0.2680
vn 0.0385 0.6617 -0.7488
vn 0.7240 0.6617 -0.1947
vn 0.2680 0.9435 -0.1947
vn 0.4911 0.7947 -0.3568
vn 0.4089 0.6617 -0.6284
vn -0.1024 0.9435 -0.3151
vn -0.1876 0.7947 -0.5773
vn -0.4713 0.6617 -0.5831
vn -0.3313 0.9435 -0.0000
vn -0.6071 0.7947 -0.0000
vn -0.7002 0.6617 0.2680
vn -0.1024 0.9435 0.3151
vn -0.1876 0.7947 0.5773
vn 0.0385 0.6617 0.7488
vn 0.2680 0.9435 0.1947
vn 0.4911 0.7947 0.3568
vn 0.7240 0.6617 0.1947
vn 0.8897 0.3304 -0.3151
vn 0.7947 0.1876 -0.5773
vn 0.5746 0.3304 -0.7488
vn -0.0247 0.3304 -0.9435
vn -0.3035 0.1876 -0.9342
vn -0.5346 0.3304 -0.7779
vn -0.9050 0.3304 -0.2680
vn -0.9822 0.1876 -0.0000
vn -0.9050 0.3304 0.2680
vn -0.5346 0.3304 0.7779
vn -0.3035 0.1876 0.9342
vn -0.0247 0.3304 0.9435
vn 0.5746 0.3304 0.7488
vn 0.7947 0.1876 0.5773
vn 0.8897 0.3304 0.3151
vn 0.3066 0.1256 -0.9435
vn 0.3035 -0.1876 -0.9342
vn 0.0247 -0.3304 -0.9435
vn -0.8026 0.1256 -0.5831
vn -0.7947 -0.1876 -0.5773
vn -0.8897 -0.3304 -0.3151
vn -0.8026 0.1256 0.5831
vn -0.7947 -0.1876 0.5773
vn -0.5746 -0.3304 0.7488
vn 0.3066 0.1256 0.9435
vn 0.3035 -0.1876 0.9342
vn 0.5346 -0.3304 0.7779
vn 0.9921 0.1256 -0.0000
vn 0.9822 -0.1876 -0.0000
vn 0.9050 -0.3304 -0.2680
vn 0.4713 -0.6617 -0.5831
vn 0.1876 -0.7947 -0.5773
vn -0.0385 -0.6617 -0.7488
vn -0.4089 -0.6617 -0.6284
vn -0.4911 -0.7947 -0.3568
vn -0.7240 -0.6617 -0.1947
vn -0.7240 -0.6617 0.1947
vn -0.4911 -0.7947 0.3568
vn -0.4089 -0.6617 0.6284
vn 0.7002 -0.6617 -0.2680
vn 0.6071 -0.7947 -0.0000
vn -0.0385 -0.6617 0.7488
vn 0.1876 -0.7947 0.5773
vn 0.4713 -0.6617 0.5831
vn 0.3090 -0.0000 -0.9511
vn -0.8090 -0.0000 -0.5878
vn 0.3090 -0.0000 0.9511
vn 1.0000 -0.0000 -0.0000
vn -0.8090 -0.0000 0.5878
vt 0.272728 0.157461
vt 0.318182 0.078731
vt 0.363637 0.157461
vt 0.318182 0.236191
vt 0.090910 0.157461
vt 0.181819 0.157461
vt 0.136365 0.236191
vt 0.818182 0.157461
vt 0.909091 0.157461
vt 0.863636 0.236191
vt 0.636364 0.157461
vt 0.727273 0.157461
vt 0.681818 0.236191
vt 0.454546 0.157461
vt 0.545455 0.157461
vt 0.500000 0.236191
vt 0.227273 0.236191
vt 0.045455 0.236191
vt 0.772727 0.236191
vt 0.590909 0.236191
vt 0.409092 0.236191
vt 0.181819 0.314921
vt 0.272728 0.314921
vt 0.227273 0.393651
vt 0.000000 0.314921
vt 0.090910 0.314921
vt 0.045455 0.393651
vt 0.727273 0.314921
vt 0.818182 0.314921
vt 0.772727 0.393651
vt 0.545455 0.314921
vt 0.636364 0.314921
vt 0.590909 0.393651
vt 0.363637 0.314921
vt 0.454546 0.314921
vt 0.409092 0.393651
vt 0.500000 0.393651
vt 0.454546 0.472382
vt 0.681818 0.393651
vt 0.636364 0.472382
vt 0.863636 0.393651
vt 0.818182 0.472382
vt 0.909091 0.314921
vt 0.136365 0.393651
vt 0.090910 0.472382
vt 0.318182 0.393651
vt 0.272728 0.472382
vt 0.954545 0.236191
vt 1.000000 0.157461
vt 0.500000 0.078731
vt 0.590909 0.078731
vt 0.681818 0.078731
vt 0.772727 0.078731
vt 0.863636 0.078731
vt 0.954545 0.078731
vt 0.409092 0.078731
vt 0.136365 0.078731
vt 0.227273 0.078731
s 0
usemtl SBX_34
f 73/49/56 85/50/56 87/51/56
f 73/49/57 87/51/57 94/52/57
f 74/53/58 86/54/58 96/55/58
f 75/56/59 90/57/59 98/58/59
f 76/59/60 92/60/60 100/61/60
f 77/62/61 93/63/61 102/64/61
f 73/49/62 94/52/62 97/65/62
f 74/53/63 96/55/63 99/66/63
f 75/56/64 98/58/64 101/67/64
f 76/59/65 100/61/65 103/68/65
f 77/62/66 102/64/66 95/69/66
f 78/70/67 104/71/67 109/72/67
f 79/73/68 105/74/68 111/75/68
f 80/76/69 106/77/69 112/78/69
f 81/79/70 107/80/70 113/81/70
f 82/82/71 108/83/71 110/84/71
f 110/84/72 113/85/72 83/86/72
f 110/84/73 108/83/73 113/85/73
f 108/83/74 81/79/74 113/85/74
f 113/81/75 112/87/75 83/88/75
f 113/81/76 107/80/76 112/87/76
f 107/80/77 80/76/77 112/87/77
f 112/78/78 111/89/78 83/90/78
f 112/78/79 106/77/79 111/89/79
f 106/77/80 79/91/80 111/89/80
f 111/75/81 109/92/81 83/93/81
f 111/75/82 105/74/82 109/92/82
f 105/74/83 78/70/83 109/92/83
f 109/72/84 110/94/84 83/95/84
f 109/72/85 104/71/85 110/94/85
f 104/71/86 82/82/86 110/94/86
f 95/69/87 108/83/87 82/82/87
f 95/69/88 102/64/88 108/83/88
f 102/64/89 81/79/89 108/83/89
f 103/68/90 107/80/90 81/79/90
f 103/68/91 100/61/91 107/80/91
f 100/61/92 80/76/92 107/80/92
f 101/67/93 106/77/93 80/76/93
f 101/67/94 98/58/94 106/77/94
f 98/58/95 79/91/95 106/77/95
f 99/66/96 105/74/96 79/73/96
f 99/66/97 96/55/97 105/74/97
f 96/55/98 78/70/98 105/74/98
f 97/65/99 104/71/99 78/70/99
f 97/65/100 94/52/100 104/71/100
f 94/52/101 82/82/101 104/71/101
f 102/64/102 103/68/102 81/79/102
f 102/64/103 93/63/103 103/68/103
f 93/63/104 76/59/104 103/68/104
f 100/61/105 101/67/105 80/76/105
f 100/61/106 92/60/106 101/67/106
f 92/60/107 75/56/107 101/67/107
f 98/58/108 99/96/108 79/91/108
f 98/58/109 90/57/109 99/96/109
f 90/57/110 74/97/110 99/96/110
f 96/55/111 97/65/111 78/70/111
f 96/55/112 86/54/112 97/65/112
f 86/54/113 73/49/113 97/65/113
f 94/52/114 95/69/114 82/82/114
f 94/52/115 87/51/115 95/69/115
f 87/51/116 77/62/116 95/69/116
f 88/98/117 93/63/117 77/62/117
f 88/98/118 91/99/118 93/63/118
f 91/99/119 76/59/119 93/63/119
f 91/100/120 92/60/120 76/59/120
f 91/100/121 89/101/121 92/60/121
f 89/101/122 75/56/122 92/60/122
f 89/102/123 90/57/123 75/56/123
f 89/102/124 84/103/124 90/57/124
f 84/103/125 74/97/125 90/57/125
f 87/51/126 88/104/126 77/62/126
f 87/51/127 85/50/127 88/104/127
f 84/105/128 86/54/128 74/53/128
f 84/105/129 85/106/129 86/54/129
f 85/106/130 73/49/130 86/54/130
usemtl SBX_39
f 91/99/131 88/98/131 116/98/131 118/99/131
f 89/101/132 91/100/132 118/100/132 117/101/132
f 85/106/133 84/105/133 114/105/133 115/106/133
f 88/104/134 85/50/134 115/50/134 116/104/134
f 84/103/135 89/102/135 117/102/135 114/103/135
