# Blender 5.0.1
# www.blender.org
mtllib ip_badguy1.mtl
o Sphere
v 0.000000 2.008525 0.000000
v 0.000000 1.309952 -0.419924
v 0.000000 1.312766 0.000000
v 0.363665 1.766082 -0.209962
v 0.363665 1.309952 -0.209962
v 0.363665 1.766082 0.209962
v 0.363665 1.309952 0.209962
v -0.000000 1.766082 0.419924
v -0.000000 1.309952 0.419924
v -0.363665 1.766082 0.209962
v -0.363665 1.309952 0.209962
v -0.363665 1.766082 -0.209962
v -0.363665 1.309952 -0.209962
v 0.000000 1.766082 -0.419924
v 0.000000 1.318026 -0.280776
v 0.000000 1.189855 -0.280776
v 0.000000 1.074378 -0.225165
v 0.000000 0.994465 -0.124957
v 0.000000 0.965944 0.000000
v 0.198539 1.318026 -0.198539
v 0.198539 1.189855 -0.198539
v 0.159216 1.074378 -0.159216
v 0.088358 0.994465 -0.088358
v 0.280776 1.318026 0.000000
v 0.280776 1.189855 0.000000
v 0.225165 1.074378 0.000000
v 0.124957 0.994465 0.000000
v 0.198539 1.318026 0.198539
v 0.198539 1.189855 0.198539
v 0.159216 1.074378 0.159216
v 0.088358 0.994465 0.088358
v 0.000000 1.318026 0.280776
v 0.000000 1.189855 0.280776
v 0.000000 1.074378 0.225165
v 0.000000 0.994465 0.124957
v -0.198539 1.318026 0.198539
v -0.198539 1.189855 0.198539
v -0.159216 1.074378 0.159216
v -0.088358 0.994465 0.088358
v -0.280776 1.318026 0.000000
v -0.280776 1.189855 0.000000
v -0.225165 1.074378 0.000000
v -0.124957 0.994465 0.000000
v -0.198539 1.318026 -0.198539
v -0.198539 1.189855 -0.198539
v -0.159216 1.074378 -0.159216
v -0.088358 0.994465 -0.088358
v 0.000000 0.800986 -0.198944
v 0.000000 0.187578 0.000000
v 0.172291 1.111178 -0.099472
v 0.172291 0.800986 -0.099472
v 0.172291 1.111178 0.099472
v 0.172291 0.800986 0.099472
v -0.000000 1.111178 0.198944
v -0.000000 0.800986 0.198944
v -0.172291 1.111178 0.099472
v -0.172291 0.800986 0.099472
v -0.172291 1.111178 -0.099472
v -0.172291 0.800986 -0.099472
v 0.000000 1.111178 -0.198944
v 0.000000 0.004664 -0.028199
v 0.000000 -0.003473 0.000000
v 0.024421 0.408508 -0.014099
v 0.024421 0.004664 -0.014099
v 0.024421 0.408508 0.014099
v 0.024421 0.004664 0.014099
v -0.000000 0.408508 0.028199
v -0.000000 0.004664 0.028199
v -0.024421 0.408508 0.014099
v -0.024421 0.004664 0.014099
v -0.024421 0.408508 -0.014099
v -0.024421 0.004664 -0.014099
v 0.000000 0.408508 -0.028199
vn -0.0039 -1.0000 0.0067
vn 0.5000 -0.0000 -0.8660
vn 0.2774 0.8321 -0.4804
vn -0.0077 -1.0000 -0.0000
vn 1.0000 -0.0000 -0.0000
vn 0.5547 0.8321 -0.0000
vn -0.0039 -1.0000 -0.0067
vn 0.5000 -0.0000 0.8660
vn 0.2773 0.8321 0.4804
vn 0.0039 -1.0000 -0.0067
vn -0.5000 -0.0000 0.8660
vn -0.2774 0.8321 0.4804
vn 0.0077 -1.0000 -0.0000
vn -1.0000 -0.0000 -0.0000
vn -0.5547 0.8321 -0.0000
vn 0.0039 -1.0000 0.0067
vn -0.5000 -0.0000 -0.8660
vn -0.2774 0.8321 -0.4804
vn 0.0918 -0.9708 -0.2216
vn 0.3496 -0.4065 -0.8441
vn 0.2501 -0.7570 -0.6037
vn 0.3827 -0.0000 -0.9239
vn 0.6037 -0.7570 -0.2501
vn 0.9239 -0.0000 -0.3827
vn 0.2216 -0.9708 -0.0918
vn 0.8441 -0.4065 -0.3496
vn 0.2216 -0.9708 0.0918
vn 0.8441 -0.4065 0.3496
vn 0.6037 -0.7570 0.2501
vn 0.9239 -0.0000 0.3827
vn 0.0918 -0.9708 0.2216
vn 0.3496 -0.4065 0.8441
vn 0.2501 -0.7570 0.6037
vn 0.3827 -0.0000 0.9239
vn -0.3496 -0.4065 0.8441
vn -0.2501 -0.7570 0.6037
vn -0.3827 -0.0000 0.9239
vn -0.0918 -0.9708 0.2216
vn -0.6037 -0.7570 0.2501
vn -0.9239 -0.0000 0.3827
vn -0.2216 -0.9708 0.0918
vn -0.8441 -0.4065 0.3496
vn -0.6037 -0.7570 -0.2501
vn -0.9239 -0.0000 -0.3827
vn -0.2216 -0.9708 -0.0918
vn -0.8441 -0.4065 -0.3496
vn -0.3827 -0.0000 -0.9239
vn -0.0918 -0.9708 -0.2216
vn -0.3496 -0.4065 -0.8441
vn -0.2501 -0.7570 -0.6037
vn 0.4814 -0.2704 -0.8338
vn 0.9627 -0.2704 -0.0000
vn 0.4814 -0.2704 0.8338
vn -0.4814 -0.2704 0.8338
vn -0.9627 -0.2704 -0.0000
vn -0.4814 -0.2704 -0.8338
vn 0.1581 -0.9487 -0.2738
vn 0.3161 -0.9487 -0.0000
vn 0.1581 -0.9487 0.2738
vn -0.1581 -0.9487 0.2738
vn -0.3161 -0.9487 -0.0000
vn -0.1581 -0.9487 -0.2738
vt 0.583333 0.000000
vt 0.666667 0.333333
vt 0.500000 0.333333
vt 0.666667 0.666667
vt 0.583333 1.000000
vt 0.500000 0.666667
vt 0.416667 0.000000
vt 0.333333 0.333333
vt 0.416667 1.000000
vt 0.333333 0.666667
vt 0.250000 0.000000
vt 0.166667 0.333333
vt 0.250000 1.000000
vt 0.166667 0.666667
vt 0.083333 0.000000
vt 0.000000 0.333333
vt 0.083333 1.000000
vt 0.000000 0.666667
vt 0.916667 0.000000
vt 1.000000 0.333333
vt 0.833333 0.333333
vt 1.000000 0.666667
vt 0.916667 1.000000
vt 0.833333 0.666667
vt 0.750000 0.000000
vt 0.750000 1.000000
vt 0.687500 0.000000
vt 0.750000 0.142857
vt 0.625000 0.142857
vt 0.750000 0.428571
vt 0.625000 0.285714
vt 0.750000 0.285714
vt 0.750000 0.571429
vt 0.625000 0.428571
vt 0.500000 0.142857
vt 0.625000 0.571429
vt 0.500000 0.428571
vt 0.562500 0.000000
vt 0.500000 0.285714
vt 0.437500 0.000000
vt 0.375000 0.142857
vt 0.375000 0.285714
vt 0.500000 0.571429
vt 0.375000 0.428571
vt 0.312500 0.000000
vt 0.250000 0.142857
vt 0.250000 0.285714
vt 0.375000 0.571429
vt 0.250000 0.428571
vt 0.125000 0.285714
vt 0.125000 0.142857
vt 0.250000 0.571429
vt 0.125000 0.428571
vt 0.187500 0.000000
vt 0.000000 0.142857
vt 0.125000 0.571429
vt 0.000000 0.428571
vt 0.062500 0.000000
vt 0.000000 0.285714
vt 1.000000 0.285714
vt 0.875000 0.142857
vt 1.000000 0.142857
vt 1.000000 0.571429
vt 0.875000 0.428571
vt 1.000000 0.428571
vt 0.937500 0.000000
vt 0.875000 0.285714
vt 0.875000 0.571429
vt 0.812500 0.000000
vt 0.000000 0.571429
s 0
usemtl SBX_36
f 3/1/1 2/2/1 5/3/1
f 14/4/2 5/3/2 2/2/2
f 14/4/3 1/5/3 4/6/3
f 3/7/4 5/3/4 7/8/4
f 4/6/5 7/8/5 5/3/5
f 4/6/6 1/9/6 6/10/6
f 3/11/7 7/8/7 9/12/7
f 6/10/8 9/12/8 7/8/8
f 6/10/9 1/13/9 8/14/9
f 3/15/10 9/12/10 11/16/10
f 8/14/11 11/16/11 9/12/11
f 8/14/12 1/17/12 10/18/12
f 3/19/13 11/20/13 13/21/13
f 10/22/14 13/21/14 11/20/14
f 10/22/15 1/23/15 12/24/15
f 3/25/16 13/21/16 2/2/16
f 12/24/17 2/2/17 13/21/17
f 12/24/18 1/26/18 14/4/18
f 60/4/2 51/3/2 48/2/2
f 50/6/5 53/8/5 51/3/5
f 52/10/8 55/12/8 53/8/8
f 54/14/11 57/16/11 55/12/11
f 56/22/14 59/21/14 57/20/14
f 58/24/17 48/2/17 59/21/17
f 62/1/57 61/2/57 64/3/57
f 73/4/2 64/3/2 61/2/2
f 62/7/58 64/3/58 66/8/58
f 63/6/5 66/8/5 64/3/5
f 62/11/59 66/8/59 68/12/59
f 65/10/8 68/12/8 66/8/8
f 62/15/60 68/12/60 70/16/60
f 67/14/11 70/16/11 68/12/11
f 62/19/61 70/20/61 72/21/61
f 69/22/14 72/21/14 70/20/14
f 62/25/62 72/21/62 61/2/62
f 71/24/17 61/2/17 72/21/17
f 14/4/2 4/6/2 5/3/2
f 4/6/5 6/10/5 7/8/5
f 6/10/8 8/14/8 9/12/8
f 8/14/11 10/18/11 11/16/11
f 10/22/14 12/24/14 13/21/14
f 12/24/17 14/4/17 2/2/17
f 60/4/2 50/6/2 51/3/2
f 50/6/5 52/10/5 53/8/5
f 52/10/8 54/14/8 55/12/8
f 54/14/11 56/18/11 57/16/11
f 56/22/14 58/24/14 59/21/14
f 58/24/17 60/4/17 48/2/17
f 73/4/2 63/6/2 64/3/2
f 63/6/5 65/10/5 66/8/5
f 65/10/8 67/14/8 68/12/8
f 67/14/11 69/18/11 70/16/11
f 69/22/14 71/24/14 72/21/14
f 71/24/17 73/4/17 61/2/17
usemtl SBX_34E
f 19/27/19 18/28/19 23/29/19
f 16/30/20 22/31/20 17/32/20
f 17/32/21 23/29/21 18/28/21
f 15/33/22 21/34/22 16/30/22
f 22/31/23 27/35/23 23/29/23
f 20/36/24 25/37/24 21/34/24
f 19/38/25 23/29/25 27/35/25
f 21/34/26 26/39/26 22/31/26
f 19/40/27 27/35/27 31/41/27
f 25/37/28 30/42/28 26/39/28
f 26/39/29 31/41/29 27/35/29
f 24/43/30 29/44/30 25/37/30
f 19/45/31 31/41/31 35/46/31
f 29/44/32 34/47/32 30/42/32
f 30/42/33 35/46/33 31/41/33
f 28/48/34 33/49/34 29/44/34
f 33/49/35 38/50/35 34/47/35
f 34/47/36 39/51/36 35/46/36
f 32/52/37 37/53/37 33/49/37
f 19/54/38 35/46/38 39/51/38
f 38/50/39 43/55/39 39/51/39
f 36/56/40 41/57/40 37/53/40
f 19/58/41 39/51/41 43/55/41
f 37/53/42 42/59/42 38/50/42
f 42/60/43 47/61/43 43/62/43
f 40/63/44 45/64/44 41/65/44
f 19/66/45 43/62/45 47/61/45
f 41/65/46 46/67/46 42/60/46
f 44/68/47 16/30/47 45/64/47
f 19/69/48 47/61/48 18/28/48
f 45/64/49 17/32/49 46/67/49
f 46/67/50 18/28/50 47/61/50
f 16/30/20 21/34/20 22/31/20
f 17/32/21 22/31/21 23/29/21
f 15/33/22 20/36/22 21/34/22
f 22/31/23 26/39/23 27/35/23
f 20/36/24 24/43/24 25/37/24
f 21/34/26 25/37/26 26/39/26
f 25/37/28 29/44/28 30/42/28
f 26/39/29 30/42/29 31/41/29
f 24/43/30 28/48/30 29/44/30
f 29/44/32 33/49/32 34/47/32
f 30/42/33 34/47/33 35/46/33
f 28/48/34 32/52/34 33/49/34
f 33/49/35 37/53/35 38/50/35
f 34/47/36 38/50/36 39/51/36
f 32/52/37 36/56/37 37/53/37
f 38/50/39 42/59/39 43/55/39
f 36/56/40 40/70/40 41/57/40
f 37/53/42 41/57/42 42/59/42
f 42/60/43 46/67/43 47/61/43
f 40/63/44 44/68/44 45/64/44
f 41/65/46 45/64/46 46/67/46
f 44/68/47 15/33/47 16/30/47
f 45/64/49 16/30/49 17/32/49
f 46/67/50 17/32/50 18/28/50
usemtl SBX_35
f 49/1/51 48/2/51 51/3/51
f 49/7/52 51/3/52 53/8/52
f 49/11/53 53/8/53 55/12/53
f 49/15/54 55/12/54 57/16/54
f 49/19/55 57/20/55 59/21/55
f 49/25/56 59/21/56 48/2/56
