# Blender 5.0.1
# www.blender.org
mtllib island.mtl
o Cube.001
v -0.470526 0.158971 0.253634
v -0.470526 0.158971 0.118428
v -0.433472 0.158971 0.253634
v -0.433472 0.158971 0.118428
v -0.470526 0.158971 -0.030300
v -0.470526 0.158971 -0.165506
v -0.433472 0.158971 -0.030300
v -0.433472 0.158971 -0.165506
v -0.470526 0.158971 -0.314234
v -0.470526 0.158971 -0.449441
v -0.433472 0.158971 -0.314234
v -0.433472 0.158971 -0.449441
v -0.470526 0.158971 -0.598168
v -0.470526 0.158971 -0.733375
v -0.433472 0.158971 -0.598168
v -0.433472 0.158971 -0.733375
v -0.470526 0.158971 -0.882102
v -0.470526 0.158971 -1.017309
v -0.433472 0.158971 -0.882102
v -0.433472 0.158971 -1.017309
v -0.470526 0.158971 -1.166036
v -0.433472 0.158971 -1.166036
v -0.470526 0.158971 -1.449970
v -0.470526 0.158971 -1.585177
v -0.433472 0.158971 -1.449970
v -0.433472 0.158971 -1.585177
v -0.470526 0.158971 -1.733905
v -0.470526 0.158971 -1.869111
v -0.433472 0.158971 -1.733905
v -0.433472 0.158971 -1.869111
v -0.470526 0.158971 -2.017839
v -0.470526 0.158971 -2.153045
v -0.433472 0.158971 -2.017839
v -0.433472 0.158971 -2.153045
v -0.470526 0.158971 -2.301773
v -0.470526 0.158971 -2.436980
v -0.433472 0.158971 -2.301773
v -0.433472 0.158971 -2.436980
v -0.470526 0.158971 -2.585707
v -0.433472 0.158971 -2.585707
v -0.470526 0.158971 -2.869641
v -0.470526 0.158971 -3.004848
v -0.433472 0.158971 -2.869641
v -0.433472 0.158971 -3.004848
v -0.470526 0.158971 -3.153575
v -0.470526 0.158971 -3.288782
v -0.433472 0.158971 -3.153575
v -0.433472 0.158971 -3.288782
v -0.470526 0.158971 -3.437509
v -0.470526 0.158971 -3.572716
v -0.433472 0.158971 -3.437509
v -0.433472 0.158971 -3.572716
v -0.470526 0.158971 -3.721443
v -0.470526 0.158971 -3.856650
v -0.433472 0.158971 -3.721443
v -0.433472 0.158971 -3.856650
v -0.470526 0.158971 -4.005378
v -0.470526 0.158971 -4.140584
v -0.433472 0.158971 -4.005378
v -0.433472 0.158971 -4.140584
v -0.470526 0.158971 -4.289311
v -0.470526 0.158971 -4.424518
v -0.433472 0.158971 -4.289311
v -0.433472 0.158971 -4.424518
v -0.470526 0.158971 -4.573245
v -0.470526 0.158971 -4.708452
v -0.433472 0.158971 -4.573245
v -0.433472 0.158971 -4.708452
v -0.470526 0.158971 -4.857181
v -0.470526 0.158971 -4.992387
v -0.433472 0.158971 -4.857181
v -0.433472 0.158971 -4.992387
v -0.470526 0.158971 -5.141114
v -0.470526 0.158971 -5.276321
v -0.433472 0.158971 -5.141114
v -0.433472 0.158971 -5.276321
v -0.470526 0.158971 -5.425048
v -0.470526 0.158971 -5.560255
v -0.433472 0.158971 -5.425048
v -0.433472 0.158971 -5.560255
v -0.470526 0.158971 -5.708982
v -0.470526 0.158971 -5.844189
v -0.433472 0.158971 -5.708982
v -0.433472 0.158971 -5.844189
v -1.013041 0.158971 -2.055539
v -1.013041 0.158971 -6.184440
v 0.111198 0.158971 -6.184440
v -0.114790 0.158971 0.341444
v 1.195476 0.158971 0.341444
v -0.789209 0.158971 0.341444
v 0.111198 0.158971 -2.055539
v 0.111198 0.158971 -0.149014
v -1.420847 0.158971 -0.149014
v -2.419426 0.158971 0.341444
v 1.195476 0.158971 -0.149014
v -0.461357 0.158971 -4.289311
v -0.470526 0.158971 -5.992916
v -0.470526 0.158971 -6.128123
v -0.433472 0.158971 -5.992916
v -0.433472 0.158971 -6.128123
v -0.448635 0.158971 -4.140584
v -0.470526 0.158971 -2.055538
v -0.470526 0.158971 -2.720914
v -0.433472 0.158971 -2.055538
v -0.433472 0.158971 -2.720914
v -0.470526 0.158971 -1.301243
v -0.433472 0.158971 -1.301243
v -0.442642 0.158971 -0.733374
v -0.459049 0.158971 -0.882102
v -1.420847 0.158971 -2.055539
v -1.062009 0.158971 0.341444
v -2.419426 0.158971 -0.149014
v 0.895363 0.000000 -7.689301
v -2.092453 0.000000 -8.252616
v -5.368975 0.000000 -7.101884
v -6.134328 0.000000 -4.129607
v -3.806399 0.000000 -1.527167
v -6.039938 0.000000 2.396415
v -6.423688 0.000000 5.600965
v -5.256595 0.000000 7.704993
v -0.808405 0.000000 8.500640
v 4.292402 0.000000 6.893676
v 6.899587 0.000000 4.343422
v 6.265416 0.000000 -0.344534
v 6.993180 0.000000 -1.968733
v 7.259281 0.000000 -4.312154
v 5.986854 0.000000 -5.844341
v 3.420235 0.000000 -6.001207
v -2.004805 0.158971 -7.096982
v 0.369379 0.158971 -6.649360
v -4.434018 0.158971 -6.243829
v -4.901092 0.158971 -4.429935
v -2.578710 0.158971 -1.833696
v -5.046616 0.158971 3.045836
v -4.976172 0.158971 5.902843
v -4.535785 0.158971 6.696772
v -0.909219 0.158971 7.345452
v 3.681586 0.158971 5.925291
v 5.645213 0.158971 4.004540
v 5.144592 0.158971 -0.198443
v 5.877216 0.158971 -2.334735
v 5.844592 0.158971 -4.263536
v 5.435134 0.158971 -4.756584
v 2.950966 0.158971 -4.908411
v -0.951094 0.158971 -1.454006
v -1.468501 0.158971 -2.542464
v -1.585324 0.158971 -1.601959
vn -0.0000 1.0000 -0.0000
vn 0.0261 0.9901 -0.1382
vn -0.0466 0.9901 -0.1327
vn -0.1362 0.9901 -0.0351
vn -0.1048 0.9901 0.0937
vn -0.1156 0.9911 -0.0658
vn -0.1065 0.9942 -0.0128
vn -0.1230 0.9901 0.0682
vn -0.0248 0.9901 0.1384
vn 0.0427 0.9898 0.1356
vn 0.0983 0.9901 0.1005
vn 0.1383 0.9903 -0.0165
vn 0.1231 0.9909 0.0551
vn 0.1121 0.9936 0.0127
vn 0.1082 0.9901 -0.0898
vn 0.0086 0.9901 -0.1403
vn 0.0762 0.9907 -0.1129
vn -0.1462 0.9865 -0.0739
vn -0.1606 0.9870 0.0040
vn 0.0411 0.9903 0.1327
vn 0.1304 0.9913 -0.0176
vn 0.1467 0.9879 0.0503
vn 0.1418 0.9899 -0.0024
vn 0.0749 0.9909 -0.1120
vt 0.875000 0.500000
vt 0.625000 0.750000
vt 0.625000 0.500000
vt 0.000000 0.000000
vt 0.875000 0.750000
s 0
usemtl SBX_33
f 2/1/1 3/2/1 4/3/1
f 6/1/1 7/2/1 8/3/1
f 10/1/1 11/2/1 12/3/1
f 14/1/1 15/2/1 16/3/1
f 18/1/1 19/2/1 20/3/1
f 106/1/1 22/2/1 107/3/1
f 24/1/1 25/2/1 26/3/1
f 28/1/1 29/2/1 30/3/1
f 32/1/1 33/2/1 34/3/1
f 36/1/1 37/2/1 38/3/1
f 103/1/1 40/2/1 105/3/1
f 42/1/1 43/2/1 44/3/1
f 46/1/1 47/2/1 48/3/1
f 50/1/1 51/2/1 52/3/1
f 54/1/1 55/2/1 56/3/1
f 58/1/1 59/2/1 60/3/1
f 62/1/1 63/2/1 64/3/1
f 66/1/1 67/2/1 68/3/1
f 70/1/1 71/2/1 72/3/1
f 74/1/1 75/2/1 76/3/1
f 78/1/1 79/2/1 80/3/1
f 82/1/1 83/2/1 84/3/1
f 98/1/1 99/2/1 100/3/1
f 2/1/1 1/5/1 3/2/1
f 6/1/1 5/5/1 7/2/1
f 10/1/1 9/5/1 11/2/1
f 14/1/1 13/5/1 15/2/1
f 18/1/1 17/5/1 19/2/1
f 106/1/1 21/5/1 22/2/1
f 24/1/1 23/5/1 25/2/1
f 28/1/1 27/5/1 29/2/1
f 32/1/1 31/5/1 33/2/1
f 36/1/1 35/5/1 37/2/1
f 103/1/1 39/5/1 40/2/1
f 42/1/1 41/5/1 43/2/1
f 46/1/1 45/5/1 47/2/1
f 50/1/1 49/5/1 51/2/1
f 54/1/1 53/5/1 55/2/1
f 58/1/1 57/5/1 59/2/1
f 62/1/1 61/5/1 63/2/1
f 66/1/1 65/5/1 67/2/1
f 70/1/1 69/5/1 71/2/1
f 74/1/1 73/5/1 75/2/1
f 78/1/1 77/5/1 79/2/1
f 82/1/1 81/5/1 83/2/1
f 98/1/1 97/5/1 99/2/1
usemtl SBX_40
f 28/4/1 33/4/1 31/4/1
f 106/4/1 25/4/1 23/4/1
f 24/4/1 29/4/1 27/4/1
f 100/4/1 99/4/1 87/4/1
f 32/4/1 37/4/1 35/4/1
f 36/4/1 40/4/1 39/4/1
f 103/4/1 43/4/1 41/4/1
f 47/4/1 42/4/1 44/4/1
f 51/4/1 46/4/1 48/4/1
f 50/4/1 55/4/1 53/4/1
f 54/4/1 59/4/1 57/4/1
f 58/4/1 96/4/1 61/4/1
f 62/4/1 67/4/1 65/4/1
f 66/4/1 71/4/1 69/4/1
f 70/4/1 75/4/1 73/4/1
f 79/4/1 74/4/1 76/4/1
f 78/4/1 83/4/1 81/4/1
f 99/4/1 82/4/1 84/4/1
f 18/4/1 85/4/1 17/4/1
f 14/4/1 109/4/1 17/4/1
f 90/4/1 3/4/1 1/4/1
f 2/4/1 7/4/1 5/4/1
f 15/4/1 10/4/1 12/4/1
f 11/4/1 6/4/1 8/4/1
f 28/4/1 30/4/1 33/4/1
f 106/4/1 107/4/1 25/4/1
f 24/4/1 26/4/1 29/4/1
f 34/4/1 104/4/1 91/4/1
f 86/4/1 85/4/1 58/4/1
f 85/4/1 102/4/1 32/4/1
f 85/4/1 32/4/1 35/4/1
f 34/4/1 91/4/1 37/4/1
f 91/4/1 87/4/1 60/4/1
f 37/4/1 91/4/1 38/4/1
f 38/4/1 91/4/1 40/4/1
f 85/4/1 35/4/1 36/4/1
f 85/4/1 36/4/1 39/4/1
f 40/4/1 91/4/1 105/4/1
f 105/4/1 91/4/1 43/4/1
f 85/4/1 39/4/1 103/4/1
f 85/4/1 103/4/1 41/4/1
f 43/4/1 91/4/1 44/4/1
f 44/4/1 91/4/1 47/4/1
f 85/4/1 41/4/1 42/4/1
f 85/4/1 42/4/1 45/4/1
f 47/4/1 91/4/1 48/4/1
f 48/4/1 91/4/1 51/4/1
f 85/4/1 45/4/1 46/4/1
f 85/4/1 46/4/1 49/4/1
f 51/4/1 91/4/1 52/4/1
f 52/4/1 91/4/1 55/4/1
f 85/4/1 49/4/1 50/4/1
f 85/4/1 50/4/1 53/4/1
f 55/4/1 91/4/1 56/4/1
f 56/4/1 91/4/1 59/4/1
f 85/4/1 53/4/1 54/4/1
f 85/4/1 54/4/1 57/4/1
f 59/4/1 91/4/1 60/4/1
f 85/4/1 57/4/1 58/4/1
f 96/4/1 101/4/1 63/4/1
f 101/4/1 60/4/1 63/4/1
f 86/4/1 58/4/1 61/4/1
f 86/4/1 61/4/1 62/4/1
f 63/4/1 60/4/1 87/4/1
f 64/4/1 63/4/1 87/4/1
f 86/4/1 62/4/1 65/4/1
f 86/4/1 65/4/1 66/4/1
f 67/4/1 64/4/1 87/4/1
f 68/4/1 67/4/1 87/4/1
f 86/4/1 66/4/1 69/4/1
f 86/4/1 69/4/1 70/4/1
f 71/4/1 68/4/1 87/4/1
f 72/4/1 71/4/1 87/4/1
f 86/4/1 70/4/1 73/4/1
f 86/4/1 73/4/1 74/4/1
f 75/4/1 72/4/1 87/4/1
f 76/4/1 75/4/1 87/4/1
f 86/4/1 74/4/1 77/4/1
f 86/4/1 77/4/1 78/4/1
f 79/4/1 76/4/1 87/4/1
f 80/4/1 79/4/1 87/4/1
f 86/4/1 78/4/1 81/4/1
f 86/4/1 81/4/1 82/4/1
f 83/4/1 80/4/1 87/4/1
f 84/4/1 83/4/1 87/4/1
f 86/4/1 82/4/1 97/4/1
f 86/4/1 97/4/1 98/4/1
f 99/4/1 84/4/1 87/4/1
f 86/4/1 98/4/1 87/4/1
f 98/4/1 100/4/1 87/4/1
f 32/4/1 34/4/1 37/4/1
f 36/4/1 38/4/1 40/4/1
f 103/4/1 105/4/1 43/4/1
f 47/4/1 45/4/1 42/4/1
f 51/4/1 49/4/1 46/4/1
f 50/4/1 52/4/1 55/4/1
f 54/4/1 56/4/1 59/4/1
f 58/4/1 101/4/1 96/4/1
f 62/4/1 64/4/1 67/4/1
f 66/4/1 68/4/1 71/4/1
f 70/4/1 72/4/1 75/4/1
f 79/4/1 77/4/1 74/4/1
f 78/4/1 80/4/1 83/4/1
f 99/4/1 97/4/1 82/4/1
f 19/4/1 109/4/1 108/4/1
f 19/4/1 108/4/1 16/4/1
f 4/4/1 3/4/1 88/4/1
f 88/4/1 89/4/1 95/4/1
f 92/4/1 91/4/1 22/4/1
f 91/4/1 104/4/1 33/4/1
f 88/4/1 95/4/1 92/4/1
f 7/4/1 4/4/1 92/4/1
f 4/4/1 88/4/1 92/4/1
f 8/4/1 7/4/1 92/4/1
f 91/4/1 33/4/1 30/4/1
f 91/4/1 30/4/1 29/4/1
f 11/4/1 8/4/1 92/4/1
f 12/4/1 11/4/1 92/4/1
f 91/4/1 29/4/1 26/4/1
f 91/4/1 26/4/1 25/4/1
f 15/4/1 12/4/1 92/4/1
f 16/4/1 15/4/1 92/4/1
f 91/4/1 25/4/1 107/4/1
f 91/4/1 107/4/1 22/4/1
f 19/4/1 16/4/1 92/4/1
f 20/4/1 19/4/1 92/4/1
f 92/4/1 22/4/1 20/4/1
f 20/4/1 22/4/1 21/4/1
f 18/4/1 20/4/1 21/4/1
f 90/4/1 1/4/1 2/4/1
f 112/4/1 94/4/1 111/4/1
f 111/4/1 90/4/1 93/4/1
f 90/4/1 2/4/1 5/4/1
f 90/4/1 5/4/1 6/4/1
f 93/4/1 112/4/1 111/4/1
f 85/4/1 110/4/1 93/4/1
f 31/4/1 102/4/1 85/4/1
f 28/4/1 31/4/1 85/4/1
f 85/4/1 93/4/1 17/4/1
f 85/4/1 24/4/1 27/4/1
f 90/4/1 6/4/1 9/4/1
f 90/4/1 9/4/1 10/4/1
f 28/4/1 85/4/1 27/4/1
f 24/4/1 85/4/1 23/4/1
f 90/4/1 10/4/1 13/4/1
f 90/4/1 13/4/1 14/4/1
f 23/4/1 85/4/1 106/4/1
f 106/4/1 85/4/1 21/4/1
f 90/4/1 14/4/1 17/4/1
f 93/4/1 90/4/1 17/4/1
f 21/4/1 85/4/1 18/4/1
f 14/4/1 108/4/1 109/4/1
f 90/4/1 88/4/1 3/4/1
f 2/4/1 4/4/1 7/4/1
f 15/4/1 13/4/1 10/4/1
f 11/4/1 9/4/1 6/4/1
usemtl SBX_35
f 91/4/1 95/4/1 130/4/1
f 90/4/1 111/4/1 137/4/1
f 130/4/1 129/4/1 87/4/1
f 129/4/1 131/4/1 133/4/1
f 86/4/1 129/4/1 110/4/1
f 131/4/1 132/4/1 133/4/1
f 133/4/1 94/4/1 112/4/1
f 112/4/1 93/4/1 110/4/1
f 110/4/1 85/4/1 86/4/1
f 112/4/1 110/4/1 133/4/1
f 133/4/1 110/4/1 129/4/1
f 142/4/1 143/4/1 141/4/1
f 143/4/1 144/4/1 141/4/1
f 95/4/1 140/4/1 144/4/1
f 140/4/1 141/4/1 144/4/1
f 129/4/1 86/4/1 87/4/1
f 91/4/1 92/4/1 95/4/1
f 130/4/1 87/4/1 91/4/1
f 95/4/1 144/4/1 130/4/1
f 139/4/1 140/4/1 138/4/1
f 140/4/1 95/4/1 138/4/1
f 95/4/1 89/4/1 138/4/1
f 137/4/1 138/4/1 89/4/1
f 135/4/1 136/4/1 134/4/1
f 136/4/1 137/4/1 134/4/1
f 94/4/1 133/4/1 134/4/1
f 137/4/1 89/4/1 88/4/1
f 94/4/1 134/4/1 137/4/1
f 111/4/1 94/4/1 137/4/1
f 137/4/1 88/4/1 90/4/1
usemtl SBX_37
f 130/4/2 114/4/2 129/4/2
f 131/4/3 114/4/3 115/4/3
f 132/4/4 115/4/4 116/4/4
f 132/4/5 117/4/5 133/4/5
f 134/4/6 117/4/6 118/4/6
f 135/4/7 118/4/7 119/4/7
f 135/4/8 120/4/8 136/4/8
f 136/4/9 121/4/9 137/4/9
f 138/4/10 121/4/10 122/4/10
f 139/4/11 122/4/11 123/4/11
f 139/4/12 124/4/12 140/4/12
f 141/4/13 124/4/13 125/4/13
f 142/4/14 125/4/14 126/4/14
f 142/4/15 127/4/15 143/4/15
f 143/4/16 128/4/16 144/4/16
f 144/4/17 113/4/17 130/4/17
f 130/4/2 113/4/2 114/4/2
f 131/4/3 129/4/3 114/4/3
f 132/4/4 131/4/4 115/4/4
f 132/4/5 116/4/5 117/4/5
f 134/4/18 133/4/18 117/4/18
f 135/4/19 134/4/19 118/4/19
f 135/4/8 119/4/8 120/4/8
f 136/4/9 120/4/9 121/4/9
f 138/4/20 137/4/20 121/4/20
f 139/4/11 138/4/11 122/4/11
f 139/4/21 123/4/21 124/4/21
f 141/4/22 140/4/22 124/4/22
f 142/4/23 141/4/23 125/4/23
f 142/4/15 126/4/15 127/4/15
f 143/4/16 127/4/16 128/4/16
f 144/4/24 128/4/24 113/4/24
