# Blender 5.0.1
# www.blender.org
o Cube
v 2.185679 1.000000 0.520454
v 2.185679 -1.000000 1.000000
v 2.185679 1.000000 -0.520454
v 2.185679 -1.000000 -1.000000
v 2.892035 0.290760 0.375176
v 2.892035 -0.290760 0.375176
v 2.892035 0.290760 -0.375176
v 2.892035 -0.290760 -0.375176
v -1.624947 1.000000 0.520454
v -1.624947 -1.000000 1.000000
v -1.624947 1.000000 -0.520454
v -1.624947 -1.000000 -1.000000
v -4.829942 0.268875 0.268875
v -4.829942 -0.268875 0.268875
v -4.829942 0.268875 -0.268875
v -4.829942 -0.268875 -0.268875
v 1.359008 -0.371670 -3.152915
v 0.590155 -1.503916 -3.545282
v -0.798276 -0.371670 -3.152915
v -0.313394 -1.503916 -3.545282
v 1.359008 -0.371670 3.133501
v 0.590155 -1.503916 3.545242
v -0.798276 -0.371670 3.133501
v -0.313394 -1.503916 3.545242
v 1.663605 1.593706 -0.728173
v -1.102873 1.593706 -0.728173
v -1.102873 1.593706 0.723807
v 1.663605 1.593706 0.723807
v 1.063449 0.597887 -2.291169
v -0.502718 0.597887 -2.291169
v -0.502718 0.597887 2.272709
v 1.063449 0.597887 2.272709
v 2.892035 -0.403255 0.487671
v 2.892035 -0.403255 -0.487671
v 2.892035 0.403255 -0.487671
v 2.892035 0.403255 0.487671
v 2.532499 -0.220934 0.285078
v 2.532499 -0.220934 -0.285078
v 2.532499 0.220934 -0.285078
v 2.532499 0.220934 0.285078
s 0
f 36 3 1
f 4 35 34
f 6 40 5
f 2 34 33
f 2 12 4
f 36 2 33
f 9 15 13
f 3 9 1
f 12 19 20
f 2 21 22
f 13 16 14
f 9 14 10
f 10 16 12
f 11 16 15
f 18 19 17
f 1 32 21
f 12 18 4
f 4 17 3
f 21 24 22
f 2 24 10
f 10 23 9
f 19 29 17
f 25 30 26
f 27 32 28
f 3 26 11
f 3 29 25
f 9 31 27
f 11 30 19
f 9 28 1
f 21 31 23
f 6 34 8
f 8 35 7
f 5 33 6
f 7 36 5
f 39 37 38
f 6 38 37
f 7 40 39
f 7 38 8
f 36 35 3
f 4 3 35
f 6 37 40
f 2 4 34
f 2 10 12
f 36 1 2
f 9 11 15
f 3 11 9
f 12 11 19
f 2 1 21
f 13 15 16
f 9 13 14
f 10 14 16
f 11 12 16
f 18 20 19
f 1 28 32
f 12 20 18
f 4 18 17
f 21 23 24
f 2 22 24
f 10 24 23
f 19 30 29
f 25 29 30
f 27 31 32
f 3 25 26
f 3 17 29
f 9 23 31
f 11 26 30
f 9 27 28
f 21 32 31
f 6 33 34
f 8 34 35
f 5 36 33
f 7 35 36
f 39 40 37
f 6 8 38
f 7 5 40
f 7 39 38
